%TF.GenerationSoftware,KiCad,Pcbnew,8.0.1*%
%TF.CreationDate,2024-06-12T21:18:42+02:00*%
%TF.ProjectId,Keyboard,4b657962-6f61-4726-942e-6b696361645f,rev?*%
%TF.SameCoordinates,Original*%
%TF.FileFunction,Soldermask,Bot*%
%TF.FilePolarity,Negative*%
%FSLAX46Y46*%
G04 Gerber Fmt 4.6, Leading zero omitted, Abs format (unit mm)*
G04 Created by KiCad (PCBNEW 8.0.1) date 2024-06-12 21:18:42*
%MOMM*%
%LPD*%
G01*
G04 APERTURE LIST*
G04 Aperture macros list*
%AMRoundRect*
0 Rectangle with rounded corners*
0 $1 Rounding radius*
0 $2 $3 $4 $5 $6 $7 $8 $9 X,Y pos of 4 corners*
0 Add a 4 corners polygon primitive as box body*
4,1,4,$2,$3,$4,$5,$6,$7,$8,$9,$2,$3,0*
0 Add four circle primitives for the rounded corners*
1,1,$1+$1,$2,$3*
1,1,$1+$1,$4,$5*
1,1,$1+$1,$6,$7*
1,1,$1+$1,$8,$9*
0 Add four rect primitives between the rounded corners*
20,1,$1+$1,$2,$3,$4,$5,0*
20,1,$1+$1,$4,$5,$6,$7,0*
20,1,$1+$1,$6,$7,$8,$9,0*
20,1,$1+$1,$8,$9,$2,$3,0*%
G04 Aperture macros list end*
%ADD10C,1.701800*%
%ADD11C,3.000000*%
%ADD12C,3.987800*%
%ADD13R,2.550000X2.500000*%
%ADD14R,1.700000X1.700000*%
%ADD15O,1.700000X1.700000*%
%ADD16C,3.200000*%
%ADD17R,2.000000X2.000000*%
%ADD18C,2.000000*%
%ADD19R,3.200000X2.000000*%
%ADD20R,1.800000X1.800000*%
%ADD21C,1.800000*%
%ADD22C,1.500000*%
%ADD23C,0.650000*%
%ADD24O,1.000000X2.100000*%
%ADD25O,1.000000X1.800000*%
%ADD26RoundRect,0.150000X0.200000X-0.150000X0.200000X0.150000X-0.200000X0.150000X-0.200000X-0.150000X0*%
%ADD27RoundRect,0.200000X-0.200000X-0.275000X0.200000X-0.275000X0.200000X0.275000X-0.200000X0.275000X0*%
%ADD28RoundRect,0.150000X0.150000X0.200000X-0.150000X0.200000X-0.150000X-0.200000X0.150000X-0.200000X0*%
G04 APERTURE END LIST*
D10*
%TO.C,SW42*%
X288940000Y-147000000D03*
D11*
X290210000Y-144460000D03*
D12*
X294020000Y-147000000D03*
D11*
X296560000Y-141920000D03*
D10*
X299100000Y-147000000D03*
D13*
X300310000Y-141920000D03*
X286460000Y-144460000D03*
%TD*%
D10*
%TO.C,SW65*%
X155940000Y-185000000D03*
D11*
X157210000Y-182460000D03*
D12*
X161020000Y-185000000D03*
D11*
X163560000Y-179920000D03*
D10*
X166100000Y-185000000D03*
D13*
X167310000Y-179920000D03*
X153460000Y-182460000D03*
%TD*%
D14*
%TO.C,J3*%
X276771000Y-89821000D03*
D15*
X279311000Y-89821000D03*
X281851000Y-89821000D03*
%TD*%
D10*
%TO.C,SW67*%
X193940000Y-185000000D03*
D11*
X195210000Y-182460000D03*
D12*
X199020000Y-185000000D03*
D11*
X201560000Y-179920000D03*
D10*
X204100000Y-185000000D03*
D13*
X205310000Y-179920000D03*
X191460000Y-182460000D03*
%TD*%
D14*
%TO.C,J2*%
X265849000Y-89821000D03*
D15*
X268389000Y-89821000D03*
X270929000Y-89821000D03*
%TD*%
D10*
%TO.C,SW27*%
X288940000Y-128000000D03*
D11*
X290210000Y-125460000D03*
D12*
X294020000Y-128000000D03*
D11*
X296560000Y-122920000D03*
D10*
X299100000Y-128000000D03*
D13*
X300310000Y-122920000D03*
X286460000Y-125460000D03*
%TD*%
D10*
%TO.C,SW21*%
X174940000Y-128000000D03*
D11*
X176210000Y-125460000D03*
D12*
X180020000Y-128000000D03*
D11*
X182560000Y-122920000D03*
D10*
X185100000Y-128000000D03*
D13*
X186310000Y-122920000D03*
X172460000Y-125460000D03*
%TD*%
D10*
%TO.C,SW4*%
X136940000Y-109000000D03*
D11*
X138210000Y-106460000D03*
D12*
X142020000Y-109000000D03*
D11*
X144560000Y-103920000D03*
D10*
X147100000Y-109000000D03*
D13*
X148310000Y-103920000D03*
X134460000Y-106460000D03*
%TD*%
D10*
%TO.C,SW29*%
X326940000Y-128000000D03*
D11*
X328210000Y-125460000D03*
D12*
X332020000Y-128000000D03*
D11*
X334560000Y-122920000D03*
D10*
X337100000Y-128000000D03*
D13*
X338310000Y-122920000D03*
X324460000Y-125460000D03*
%TD*%
D16*
%TO.C,REF\u002A\u002A*%
X170500000Y-196000000D03*
%TD*%
D10*
%TO.C,SW35*%
X155940000Y-147000000D03*
D11*
X157210000Y-144460000D03*
D12*
X161020000Y-147000000D03*
D11*
X163560000Y-141920000D03*
D10*
X166100000Y-147000000D03*
D13*
X167310000Y-141920000D03*
X153460000Y-144460000D03*
%TD*%
D10*
%TO.C,SW75*%
X345940000Y-185000000D03*
D11*
X347210000Y-182460000D03*
D12*
X351020000Y-185000000D03*
D11*
X353560000Y-179920000D03*
D10*
X356100000Y-185000000D03*
D13*
X357310000Y-179920000D03*
X343460000Y-182460000D03*
%TD*%
D10*
%TO.C,SW72*%
X288940000Y-185000000D03*
D11*
X290210000Y-182460000D03*
D12*
X294020000Y-185000000D03*
D11*
X296560000Y-179920000D03*
D10*
X299100000Y-185000000D03*
D13*
X300310000Y-179920000D03*
X286460000Y-182460000D03*
%TD*%
D10*
%TO.C,SW10*%
X250940000Y-109000000D03*
D11*
X252210000Y-106460000D03*
D12*
X256020000Y-109000000D03*
D11*
X258560000Y-103920000D03*
D10*
X261100000Y-109000000D03*
D13*
X262310000Y-103920000D03*
X248460000Y-106460000D03*
%TD*%
D10*
%TO.C,SW46*%
X79940000Y-166000000D03*
D11*
X81210000Y-163460000D03*
D12*
X85020000Y-166000000D03*
D11*
X87560000Y-160920000D03*
D10*
X90100000Y-166000000D03*
D13*
X91310000Y-160920000D03*
X77460000Y-163460000D03*
%TD*%
D10*
%TO.C,SW20*%
X155940000Y-128000000D03*
D11*
X157210000Y-125460000D03*
D12*
X161020000Y-128000000D03*
D11*
X163560000Y-122920000D03*
D10*
X166100000Y-128000000D03*
D13*
X167310000Y-122920000D03*
X153460000Y-125460000D03*
%TD*%
D10*
%TO.C,SW66*%
X174940000Y-185000000D03*
D11*
X176210000Y-182460000D03*
D12*
X180020000Y-185000000D03*
D11*
X182560000Y-179920000D03*
D10*
X185100000Y-185000000D03*
D13*
X186310000Y-179920000D03*
X172460000Y-182460000D03*
%TD*%
D10*
%TO.C,SW30*%
X345940000Y-128000000D03*
D11*
X347210000Y-125460000D03*
D12*
X351020000Y-128000000D03*
D11*
X353560000Y-122920000D03*
D10*
X356100000Y-128000000D03*
D13*
X357310000Y-122920000D03*
X343460000Y-125460000D03*
%TD*%
D10*
%TO.C,SW49*%
X136940000Y-166000000D03*
D11*
X138210000Y-163460000D03*
D12*
X142020000Y-166000000D03*
D11*
X144560000Y-160920000D03*
D10*
X147100000Y-166000000D03*
D13*
X148310000Y-160920000D03*
X134460000Y-163460000D03*
%TD*%
D16*
%TO.C,REF\u002A\u002A*%
X74000000Y-137500000D03*
%TD*%
D10*
%TO.C,SW22*%
X193940000Y-128000000D03*
D11*
X195210000Y-125460000D03*
D12*
X199020000Y-128000000D03*
D11*
X201560000Y-122920000D03*
D10*
X204100000Y-128000000D03*
D13*
X205310000Y-122920000D03*
X191460000Y-125460000D03*
%TD*%
D10*
%TO.C,SW52*%
X193940000Y-166000000D03*
D11*
X195210000Y-163460000D03*
D12*
X199020000Y-166000000D03*
D11*
X201560000Y-160920000D03*
D10*
X204100000Y-166000000D03*
D13*
X205310000Y-160920000D03*
X191460000Y-163460000D03*
%TD*%
D10*
%TO.C,SW68*%
X212940000Y-185000000D03*
D11*
X214210000Y-182460000D03*
D12*
X218020000Y-185000000D03*
D11*
X220560000Y-179920000D03*
D10*
X223100000Y-185000000D03*
D13*
X224310000Y-179920000D03*
X210460000Y-182460000D03*
%TD*%
D10*
%TO.C,SW51*%
X174940000Y-166000000D03*
D11*
X176210000Y-163460000D03*
D12*
X180020000Y-166000000D03*
D11*
X182560000Y-160920000D03*
D10*
X185100000Y-166000000D03*
D13*
X186310000Y-160920000D03*
X172460000Y-163460000D03*
%TD*%
D17*
%TO.C,SW77*%
X88404000Y-85867000D03*
D18*
X88404000Y-90867000D03*
X88404000Y-88367000D03*
D19*
X95904000Y-82767000D03*
X95904000Y-93967000D03*
D18*
X102904000Y-90867000D03*
X102904000Y-85867000D03*
%TD*%
D16*
%TO.C,REF\u002A\u002A*%
X362000000Y-81000000D03*
%TD*%
D10*
%TO.C,SW1*%
X79940000Y-109000000D03*
D11*
X81210000Y-106460000D03*
D12*
X85020000Y-109000000D03*
D11*
X87560000Y-103920000D03*
D10*
X90100000Y-109000000D03*
D13*
X91310000Y-103920000D03*
X77460000Y-106460000D03*
%TD*%
D10*
%TO.C,SW57*%
X288940000Y-166000000D03*
D11*
X290210000Y-163460000D03*
D12*
X294020000Y-166000000D03*
D11*
X296560000Y-160920000D03*
D10*
X299100000Y-166000000D03*
D13*
X300310000Y-160920000D03*
X286460000Y-163460000D03*
%TD*%
D16*
%TO.C,REF\u002A\u002A*%
X362000000Y-95500000D03*
%TD*%
D10*
%TO.C,SW32*%
X98940000Y-147000000D03*
D11*
X100210000Y-144460000D03*
D12*
X104020000Y-147000000D03*
D11*
X106560000Y-141920000D03*
D10*
X109100000Y-147000000D03*
D13*
X110310000Y-141920000D03*
X96460000Y-144460000D03*
%TD*%
D10*
%TO.C,SW18*%
X117940000Y-128000000D03*
D11*
X119210000Y-125460000D03*
D12*
X123020000Y-128000000D03*
D11*
X125560000Y-122920000D03*
D10*
X128100000Y-128000000D03*
D13*
X129310000Y-122920000D03*
X115460000Y-125460000D03*
%TD*%
D10*
%TO.C,SW16*%
X79940000Y-128000000D03*
D11*
X81210000Y-125460000D03*
D12*
X85020000Y-128000000D03*
D11*
X87560000Y-122920000D03*
D10*
X90100000Y-128000000D03*
D13*
X91310000Y-122920000D03*
X77460000Y-125460000D03*
%TD*%
D10*
%TO.C,SW56*%
X269940000Y-166000000D03*
D11*
X271210000Y-163460000D03*
D12*
X275020000Y-166000000D03*
D11*
X277560000Y-160920000D03*
D10*
X280100000Y-166000000D03*
D13*
X281310000Y-160920000D03*
X267460000Y-163460000D03*
%TD*%
D10*
%TO.C,SW24*%
X231940000Y-128000000D03*
D11*
X233210000Y-125460000D03*
D12*
X237020000Y-128000000D03*
D11*
X239560000Y-122920000D03*
D10*
X242100000Y-128000000D03*
D13*
X243310000Y-122920000D03*
X229460000Y-125460000D03*
%TD*%
D16*
%TO.C,REF\u002A\u002A*%
X218000000Y-95500000D03*
%TD*%
D10*
%TO.C,SW17*%
X98940000Y-128000000D03*
D11*
X100210000Y-125460000D03*
D12*
X104020000Y-128000000D03*
D11*
X106560000Y-122920000D03*
D10*
X109100000Y-128000000D03*
D13*
X110310000Y-122920000D03*
X96460000Y-125460000D03*
%TD*%
D10*
%TO.C,SW74*%
X326940000Y-185000000D03*
D11*
X328210000Y-182460000D03*
D12*
X332020000Y-185000000D03*
D11*
X334560000Y-179920000D03*
D10*
X337100000Y-185000000D03*
D13*
X338310000Y-179920000D03*
X324460000Y-182460000D03*
%TD*%
D16*
%TO.C,REF\u002A\u002A*%
X218000000Y-81000000D03*
%TD*%
D10*
%TO.C,SW71*%
X269940000Y-185000000D03*
D11*
X271210000Y-182460000D03*
D12*
X275020000Y-185000000D03*
D11*
X277560000Y-179920000D03*
D10*
X280100000Y-185000000D03*
D13*
X281310000Y-179920000D03*
X267460000Y-182460000D03*
%TD*%
D10*
%TO.C,SW40*%
X250940000Y-147000000D03*
D11*
X252210000Y-144460000D03*
D12*
X256020000Y-147000000D03*
D11*
X258560000Y-141920000D03*
D10*
X261100000Y-147000000D03*
D13*
X262310000Y-141920000D03*
X248460000Y-144460000D03*
%TD*%
D16*
%TO.C,REF\u002A\u002A*%
X265500000Y-137500000D03*
%TD*%
D10*
%TO.C,SW63*%
X117940000Y-185000000D03*
D11*
X119210000Y-182460000D03*
D12*
X123020000Y-185000000D03*
D11*
X125560000Y-179920000D03*
D10*
X128100000Y-185000000D03*
D13*
X129310000Y-179920000D03*
X115460000Y-182460000D03*
%TD*%
D10*
%TO.C,SW3*%
X117940000Y-109000000D03*
D11*
X119210000Y-106460000D03*
D12*
X123020000Y-109000000D03*
D11*
X125560000Y-103920000D03*
D10*
X128100000Y-109000000D03*
D13*
X129310000Y-103920000D03*
X115460000Y-106460000D03*
%TD*%
D10*
%TO.C,SW12*%
X288940000Y-109000000D03*
D11*
X290210000Y-106460000D03*
D12*
X294020000Y-109000000D03*
D11*
X296560000Y-103920000D03*
D10*
X299100000Y-109000000D03*
D13*
X300310000Y-103920000D03*
X286460000Y-106460000D03*
%TD*%
D10*
%TO.C,SW15*%
X345940000Y-109000000D03*
D11*
X347210000Y-106460000D03*
D12*
X351020000Y-109000000D03*
D11*
X353560000Y-103920000D03*
D10*
X356100000Y-109000000D03*
D13*
X357310000Y-103920000D03*
X343460000Y-106460000D03*
%TD*%
D10*
%TO.C,SW43*%
X307940000Y-147000000D03*
D11*
X309210000Y-144460000D03*
D12*
X313020000Y-147000000D03*
D11*
X315560000Y-141920000D03*
D10*
X318100000Y-147000000D03*
D13*
X319310000Y-141920000D03*
X305460000Y-144460000D03*
%TD*%
D20*
%TO.C,D76*%
X336187000Y-82398000D03*
D21*
X338727000Y-82398000D03*
%TD*%
D10*
%TO.C,SW39*%
X231940000Y-147000000D03*
D11*
X233210000Y-144460000D03*
D12*
X237020000Y-147000000D03*
D11*
X239560000Y-141920000D03*
D10*
X242100000Y-147000000D03*
D13*
X243310000Y-141920000D03*
X229460000Y-144460000D03*
%TD*%
D22*
%TO.C,Y1*%
X298247500Y-90702000D03*
X298247500Y-85822000D03*
%TD*%
D10*
%TO.C,SW31*%
X79940000Y-147000000D03*
D11*
X81210000Y-144460000D03*
D12*
X85020000Y-147000000D03*
D11*
X87560000Y-141920000D03*
D10*
X90100000Y-147000000D03*
D13*
X91310000Y-141920000D03*
X77460000Y-144460000D03*
%TD*%
D16*
%TO.C,REF\u002A\u002A*%
X74000000Y-95500000D03*
%TD*%
D10*
%TO.C,SW5*%
X155940000Y-109000000D03*
D11*
X157210000Y-106460000D03*
D12*
X161020000Y-109000000D03*
D11*
X163560000Y-103920000D03*
D10*
X166100000Y-109000000D03*
D13*
X167310000Y-103920000D03*
X153460000Y-106460000D03*
%TD*%
D10*
%TO.C,SW58*%
X307940000Y-166000000D03*
D11*
X309210000Y-163460000D03*
D12*
X313020000Y-166000000D03*
D11*
X315560000Y-160920000D03*
D10*
X318100000Y-166000000D03*
D13*
X319310000Y-160920000D03*
X305460000Y-163460000D03*
%TD*%
D10*
%TO.C,SW23*%
X212940000Y-128000000D03*
D11*
X214210000Y-125460000D03*
D12*
X218020000Y-128000000D03*
D11*
X220560000Y-122920000D03*
D10*
X223100000Y-128000000D03*
D13*
X224310000Y-122920000D03*
X210460000Y-125460000D03*
%TD*%
D16*
%TO.C,REF\u002A\u002A*%
X362000000Y-137500000D03*
%TD*%
D10*
%TO.C,SW25*%
X250940000Y-128000000D03*
D11*
X252210000Y-125460000D03*
D12*
X256020000Y-128000000D03*
D11*
X258560000Y-122920000D03*
D10*
X261100000Y-128000000D03*
D13*
X262310000Y-122920000D03*
X248460000Y-125460000D03*
%TD*%
D10*
%TO.C,SW6*%
X174940000Y-109000000D03*
D11*
X176210000Y-106460000D03*
D12*
X180020000Y-109000000D03*
D11*
X182560000Y-103920000D03*
D10*
X185100000Y-109000000D03*
D13*
X186310000Y-103920000D03*
X172460000Y-106460000D03*
%TD*%
D10*
%TO.C,SW14*%
X326940000Y-109000000D03*
D11*
X328210000Y-106460000D03*
D12*
X332020000Y-109000000D03*
D11*
X334560000Y-103920000D03*
D10*
X337100000Y-109000000D03*
D13*
X338310000Y-103920000D03*
X324460000Y-106460000D03*
%TD*%
D10*
%TO.C,SW73*%
X307940000Y-185000000D03*
D11*
X309210000Y-182460000D03*
D12*
X313020000Y-185000000D03*
D11*
X315560000Y-179920000D03*
D10*
X318100000Y-185000000D03*
D13*
X319310000Y-179920000D03*
X305460000Y-182460000D03*
%TD*%
D10*
%TO.C,SW50*%
X155940000Y-166000000D03*
D11*
X157210000Y-163460000D03*
D12*
X161020000Y-166000000D03*
D11*
X163560000Y-160920000D03*
D10*
X166100000Y-166000000D03*
D13*
X167310000Y-160920000D03*
X153460000Y-163460000D03*
%TD*%
D10*
%TO.C,SW64*%
X136940000Y-185000000D03*
D11*
X138210000Y-182460000D03*
D12*
X142020000Y-185000000D03*
D11*
X144560000Y-179920000D03*
D10*
X147100000Y-185000000D03*
D13*
X148310000Y-179920000D03*
X134460000Y-182460000D03*
%TD*%
D10*
%TO.C,SW48*%
X117940000Y-166000000D03*
D11*
X119210000Y-163460000D03*
D12*
X123020000Y-166000000D03*
D11*
X125560000Y-160920000D03*
D10*
X128100000Y-166000000D03*
D13*
X129310000Y-160920000D03*
X115460000Y-163460000D03*
%TD*%
D16*
%TO.C,REF\u002A\u002A*%
X170500000Y-137500000D03*
%TD*%
D10*
%TO.C,SW8*%
X212940000Y-109000000D03*
D11*
X214210000Y-106460000D03*
D12*
X218020000Y-109000000D03*
D11*
X220560000Y-103920000D03*
D10*
X223100000Y-109000000D03*
D13*
X224310000Y-103920000D03*
X210460000Y-106460000D03*
%TD*%
D10*
%TO.C,SW70*%
X250940000Y-185000000D03*
D11*
X252210000Y-182460000D03*
D12*
X256020000Y-185000000D03*
D11*
X258560000Y-179920000D03*
D10*
X261100000Y-185000000D03*
D13*
X262310000Y-179920000D03*
X248460000Y-182460000D03*
%TD*%
D10*
%TO.C,SW36*%
X174940000Y-147000000D03*
D11*
X176210000Y-144460000D03*
D12*
X180020000Y-147000000D03*
D11*
X182560000Y-141920000D03*
D10*
X185100000Y-147000000D03*
D13*
X186310000Y-141920000D03*
X172460000Y-144460000D03*
%TD*%
D10*
%TO.C,SW59*%
X326940000Y-166000000D03*
D11*
X328210000Y-163460000D03*
D12*
X332020000Y-166000000D03*
D11*
X334560000Y-160920000D03*
D10*
X337100000Y-166000000D03*
D13*
X338310000Y-160920000D03*
X324460000Y-163460000D03*
%TD*%
D10*
%TO.C,SW61*%
X79920000Y-185000000D03*
D11*
X81190000Y-182460000D03*
D12*
X85000000Y-185000000D03*
D11*
X87540000Y-179920000D03*
D10*
X90080000Y-185000000D03*
D13*
X91290000Y-179920000D03*
X77440000Y-182460000D03*
%TD*%
D10*
%TO.C,SW60*%
X345940000Y-166000000D03*
D11*
X347210000Y-163460000D03*
D12*
X351020000Y-166000000D03*
D11*
X353560000Y-160920000D03*
D10*
X356100000Y-166000000D03*
D13*
X357310000Y-160920000D03*
X343460000Y-163460000D03*
%TD*%
D10*
%TO.C,SW33*%
X117940000Y-147000000D03*
D11*
X119210000Y-144460000D03*
D12*
X123020000Y-147000000D03*
D11*
X125560000Y-141920000D03*
D10*
X128100000Y-147000000D03*
D13*
X129310000Y-141920000D03*
X115460000Y-144460000D03*
%TD*%
D10*
%TO.C,SW62*%
X98940000Y-185000000D03*
D11*
X100210000Y-182460000D03*
D12*
X104020000Y-185000000D03*
D11*
X106560000Y-179920000D03*
D10*
X109100000Y-185000000D03*
D13*
X110310000Y-179920000D03*
X96460000Y-182460000D03*
%TD*%
D10*
%TO.C,SW37*%
X193940000Y-147000000D03*
D11*
X195210000Y-144460000D03*
D12*
X199020000Y-147000000D03*
D11*
X201560000Y-141920000D03*
D10*
X204100000Y-147000000D03*
D13*
X205310000Y-141920000D03*
X191460000Y-144460000D03*
%TD*%
D10*
%TO.C,SW28*%
X307940000Y-128000000D03*
D11*
X309210000Y-125460000D03*
D12*
X313020000Y-128000000D03*
D11*
X315560000Y-122920000D03*
D10*
X318100000Y-128000000D03*
D13*
X319310000Y-122920000D03*
X305460000Y-125460000D03*
%TD*%
D10*
%TO.C,SW41*%
X269940000Y-147000000D03*
D11*
X271210000Y-144460000D03*
D12*
X275020000Y-147000000D03*
D11*
X277560000Y-141920000D03*
D10*
X280100000Y-147000000D03*
D13*
X281310000Y-141920000D03*
X267460000Y-144460000D03*
%TD*%
D10*
%TO.C,SW13*%
X307940000Y-109000000D03*
D11*
X309210000Y-106460000D03*
D12*
X313020000Y-109000000D03*
D11*
X315560000Y-103920000D03*
D10*
X318100000Y-109000000D03*
D13*
X319310000Y-103920000D03*
X305460000Y-106460000D03*
%TD*%
D10*
%TO.C,SW34*%
X136940000Y-147000000D03*
D11*
X138210000Y-144460000D03*
D12*
X142020000Y-147000000D03*
D11*
X144560000Y-141920000D03*
D10*
X147100000Y-147000000D03*
D13*
X148310000Y-141920000D03*
X134460000Y-144460000D03*
%TD*%
D10*
%TO.C,SW53*%
X212940000Y-166000000D03*
D11*
X214210000Y-163460000D03*
D12*
X218020000Y-166000000D03*
D11*
X220560000Y-160920000D03*
D10*
X223100000Y-166000000D03*
D13*
X224310000Y-160920000D03*
X210460000Y-163460000D03*
%TD*%
D16*
%TO.C,REF\u002A\u002A*%
X74000000Y-81000000D03*
%TD*%
D10*
%TO.C,SW54*%
X231940000Y-166000000D03*
D11*
X233210000Y-163460000D03*
D12*
X237020000Y-166000000D03*
D11*
X239560000Y-160920000D03*
D10*
X242100000Y-166000000D03*
D13*
X243310000Y-160920000D03*
X229460000Y-163460000D03*
%TD*%
D16*
%TO.C,REF\u002A\u002A*%
X362000000Y-196000000D03*
%TD*%
%TO.C,REF\u002A\u002A*%
X265500000Y-196000000D03*
%TD*%
D23*
%TO.C,J1*%
X352500000Y-83180000D03*
X346720000Y-83180000D03*
D24*
X353930000Y-83680000D03*
D25*
X353930000Y-79500000D03*
D24*
X345290000Y-83680000D03*
D25*
X345290000Y-79500000D03*
%TD*%
D10*
%TO.C,SW45*%
X345940000Y-147000000D03*
D11*
X347210000Y-144460000D03*
D12*
X351020000Y-147000000D03*
D11*
X353560000Y-141920000D03*
D10*
X356100000Y-147000000D03*
D13*
X357310000Y-141920000D03*
X343460000Y-144460000D03*
%TD*%
D16*
%TO.C,REF\u002A\u002A*%
X74000000Y-196000000D03*
%TD*%
D10*
%TO.C,SW2*%
X98940000Y-109000000D03*
D11*
X100210000Y-106460000D03*
D12*
X104020000Y-109000000D03*
D11*
X106560000Y-103920000D03*
D10*
X109100000Y-109000000D03*
D13*
X110310000Y-103920000D03*
X96460000Y-106460000D03*
%TD*%
D10*
%TO.C,SW19*%
X136940000Y-128000000D03*
D11*
X138210000Y-125460000D03*
D12*
X142020000Y-128000000D03*
D11*
X144560000Y-122920000D03*
D10*
X147100000Y-128000000D03*
D13*
X148310000Y-122920000D03*
X134460000Y-125460000D03*
%TD*%
D14*
%TO.C,J4*%
X252382000Y-89821000D03*
D15*
X254922000Y-89821000D03*
X257462000Y-89821000D03*
X260002000Y-89821000D03*
%TD*%
D10*
%TO.C,SW11*%
X269940000Y-109000000D03*
D11*
X271210000Y-106460000D03*
D12*
X275020000Y-109000000D03*
D11*
X277560000Y-103920000D03*
D10*
X280100000Y-109000000D03*
D13*
X281310000Y-103920000D03*
X267460000Y-106460000D03*
%TD*%
D10*
%TO.C,SW47*%
X98940000Y-166000000D03*
D11*
X100210000Y-163460000D03*
D12*
X104020000Y-166000000D03*
D11*
X106560000Y-160920000D03*
D10*
X109100000Y-166000000D03*
D13*
X110310000Y-160920000D03*
X96460000Y-163460000D03*
%TD*%
D10*
%TO.C,SW26*%
X269940000Y-128000000D03*
D11*
X271210000Y-125460000D03*
D12*
X275020000Y-128000000D03*
D11*
X277560000Y-122920000D03*
D10*
X280100000Y-128000000D03*
D13*
X281310000Y-122920000D03*
X267460000Y-125460000D03*
%TD*%
D10*
%TO.C,SW55*%
X250940000Y-166000000D03*
D11*
X252210000Y-163460000D03*
D12*
X256020000Y-166000000D03*
D11*
X258560000Y-160920000D03*
D10*
X261100000Y-166000000D03*
D13*
X262310000Y-160920000D03*
X248460000Y-163460000D03*
%TD*%
D10*
%TO.C,SW38*%
X212940000Y-147000000D03*
D11*
X214210000Y-144460000D03*
D12*
X218020000Y-147000000D03*
D11*
X220560000Y-141920000D03*
D10*
X223100000Y-147000000D03*
D13*
X224310000Y-141920000D03*
X210460000Y-144460000D03*
%TD*%
D10*
%TO.C,SW9*%
X231940000Y-109000000D03*
D11*
X233210000Y-106460000D03*
D12*
X237020000Y-109000000D03*
D11*
X239560000Y-103920000D03*
D10*
X242100000Y-109000000D03*
D13*
X243310000Y-103920000D03*
X229460000Y-106460000D03*
%TD*%
D10*
%TO.C,SW69*%
X231940000Y-185000000D03*
D11*
X233210000Y-182460000D03*
D12*
X237020000Y-185000000D03*
D11*
X239560000Y-179920000D03*
D10*
X242100000Y-185000000D03*
D13*
X243310000Y-179920000D03*
X229460000Y-182460000D03*
%TD*%
D10*
%TO.C,SW44*%
X326940000Y-147000000D03*
D11*
X328210000Y-144460000D03*
D12*
X332020000Y-147000000D03*
D11*
X334560000Y-141920000D03*
D10*
X337100000Y-147000000D03*
D13*
X338310000Y-141920000D03*
X324460000Y-144460000D03*
%TD*%
D10*
%TO.C,SW7*%
X193940000Y-109000000D03*
D11*
X195210000Y-106460000D03*
D12*
X199020000Y-109000000D03*
D11*
X201560000Y-103920000D03*
D10*
X204100000Y-109000000D03*
D13*
X205310000Y-103920000D03*
X191460000Y-106460000D03*
%TD*%
D26*
%TO.C,D11*%
X266822000Y-100796000D03*
X266822000Y-102196000D03*
%TD*%
%TO.C,D65*%
X153020000Y-176800000D03*
X153020000Y-178200000D03*
%TD*%
%TO.C,D15*%
X343022000Y-100734000D03*
X343022000Y-102134000D03*
%TD*%
%TO.C,D54*%
X229020000Y-158000000D03*
X229020000Y-159400000D03*
%TD*%
%TO.C,D69*%
X229020000Y-176800000D03*
X229020000Y-178200000D03*
%TD*%
%TO.C,D71*%
X267020000Y-176800000D03*
X267020000Y-178200000D03*
%TD*%
%TO.C,D73*%
X305020000Y-176800000D03*
X305020000Y-178200000D03*
%TD*%
%TO.C,D49*%
X134020000Y-158000000D03*
X134020000Y-159400000D03*
%TD*%
%TO.C,D53*%
X210020000Y-158000000D03*
X210020000Y-159400000D03*
%TD*%
D27*
%TO.C,R10*%
X160107000Y-98908000D03*
X161757000Y-98908000D03*
%TD*%
%TO.C,R18*%
X312570000Y-98908000D03*
X314220000Y-98908000D03*
%TD*%
D26*
%TO.C,D30*%
X343020000Y-119800000D03*
X343020000Y-121200000D03*
%TD*%
%TO.C,D38*%
X210020000Y-138800000D03*
X210020000Y-140200000D03*
%TD*%
D28*
%TO.C,D36*%
X174710000Y-139040000D03*
X176110000Y-139040000D03*
%TD*%
D26*
%TO.C,D12*%
X285872000Y-100734000D03*
X285872000Y-102134000D03*
%TD*%
%TO.C,D32*%
X96020000Y-138800000D03*
X96020000Y-140200000D03*
%TD*%
D27*
%TO.C,R11*%
X179157000Y-98908000D03*
X180807000Y-98908000D03*
%TD*%
%TO.C,R16*%
X274661000Y-98654000D03*
X276311000Y-98654000D03*
%TD*%
D26*
%TO.C,D13*%
X304922000Y-100734000D03*
X304922000Y-102134000D03*
%TD*%
%TO.C,D9*%
X228976000Y-100796000D03*
X228976000Y-102196000D03*
%TD*%
%TO.C,D34*%
X134020000Y-138800000D03*
X134020000Y-140200000D03*
%TD*%
%TO.C,D42*%
X286020000Y-138800000D03*
X286020000Y-140200000D03*
%TD*%
%TO.C,D20*%
X153020000Y-119800000D03*
X153020000Y-121200000D03*
%TD*%
%TO.C,D50*%
X153020000Y-158000000D03*
X153020000Y-159400000D03*
%TD*%
%TO.C,D14*%
X323972000Y-100734000D03*
X323972000Y-102134000D03*
%TD*%
D27*
%TO.C,R6*%
X84669000Y-98908000D03*
X86319000Y-98908000D03*
%TD*%
D26*
%TO.C,D23*%
X210020000Y-119800000D03*
X210020000Y-121200000D03*
%TD*%
%TO.C,D68*%
X210020000Y-176800000D03*
X210020000Y-178200000D03*
%TD*%
%TO.C,D43*%
X305070000Y-138800000D03*
X305070000Y-140200000D03*
%TD*%
%TO.C,D10*%
X248026000Y-100796000D03*
X248026000Y-102196000D03*
%TD*%
%TO.C,D24*%
X229020000Y-119800000D03*
X229020000Y-121200000D03*
%TD*%
%TO.C,D51*%
X172020000Y-158000000D03*
X172020000Y-159400000D03*
%TD*%
%TO.C,D29*%
X324020000Y-119800000D03*
X324020000Y-121200000D03*
%TD*%
%TO.C,D27*%
X286020000Y-119800000D03*
X286020000Y-121200000D03*
%TD*%
%TO.C,D21*%
X172020000Y-119800000D03*
X172020000Y-121200000D03*
%TD*%
%TO.C,D58*%
X305020000Y-157800000D03*
X305020000Y-159200000D03*
%TD*%
%TO.C,D33*%
X115020000Y-138800000D03*
X115020000Y-140200000D03*
%TD*%
%TO.C,D17*%
X96020000Y-119800000D03*
X96020000Y-121200000D03*
%TD*%
%TO.C,D55*%
X248020000Y-158000000D03*
X248020000Y-159400000D03*
%TD*%
%TO.C,D52*%
X191020000Y-158000000D03*
X191020000Y-159400000D03*
%TD*%
%TO.C,D7*%
X190876000Y-100796000D03*
X190876000Y-102196000D03*
%TD*%
D27*
%TO.C,R14*%
X236307000Y-98654000D03*
X237957000Y-98654000D03*
%TD*%
D26*
%TO.C,D5*%
X153030000Y-100796000D03*
X153030000Y-102196000D03*
%TD*%
%TO.C,D46*%
X77070000Y-158000000D03*
X77070000Y-159400000D03*
%TD*%
D27*
%TO.C,R15*%
X255611000Y-98654000D03*
X257261000Y-98654000D03*
%TD*%
D26*
%TO.C,D22*%
X191020000Y-119800000D03*
X191020000Y-121200000D03*
%TD*%
%TO.C,D63*%
X115020000Y-176800000D03*
X115020000Y-178200000D03*
%TD*%
%TO.C,D35*%
X153020000Y-138800000D03*
X153020000Y-140200000D03*
%TD*%
%TO.C,D47*%
X96020000Y-158000000D03*
X96020000Y-159400000D03*
%TD*%
D27*
%TO.C,R13*%
X212685000Y-99162000D03*
X214335000Y-99162000D03*
%TD*%
%TO.C,R20*%
X344511000Y-99416000D03*
X346161000Y-99416000D03*
%TD*%
D26*
%TO.C,D18*%
X115020000Y-119800000D03*
X115020000Y-121200000D03*
%TD*%
%TO.C,D28*%
X305020000Y-119800000D03*
X305020000Y-121200000D03*
%TD*%
%TO.C,D19*%
X134020000Y-120000000D03*
X134020000Y-121400000D03*
%TD*%
%TO.C,D67*%
X191020000Y-176800000D03*
X191020000Y-178200000D03*
%TD*%
%TO.C,D62*%
X96020000Y-176800000D03*
X96020000Y-178200000D03*
%TD*%
%TO.C,D60*%
X343020000Y-157800000D03*
X343020000Y-159200000D03*
%TD*%
%TO.C,D57*%
X286020000Y-157800000D03*
X286020000Y-159200000D03*
%TD*%
%TO.C,D64*%
X134020000Y-176800000D03*
X134020000Y-178200000D03*
%TD*%
%TO.C,D48*%
X115020000Y-158000000D03*
X115020000Y-159400000D03*
%TD*%
%TO.C,D39*%
X229020000Y-138800000D03*
X229020000Y-140200000D03*
%TD*%
%TO.C,D1*%
X77020000Y-100858000D03*
X77020000Y-102258000D03*
%TD*%
D27*
%TO.C,R9*%
X141057000Y-98908000D03*
X142707000Y-98908000D03*
%TD*%
D26*
%TO.C,D75*%
X343020000Y-176800000D03*
X343020000Y-178200000D03*
%TD*%
%TO.C,D4*%
X133980000Y-100796000D03*
X133980000Y-102196000D03*
%TD*%
%TO.C,D16*%
X77084000Y-119846000D03*
X77084000Y-121246000D03*
%TD*%
D27*
%TO.C,R19*%
X331557000Y-98908000D03*
X333207000Y-98908000D03*
%TD*%
%TO.C,R8*%
X122261000Y-98908000D03*
X123911000Y-98908000D03*
%TD*%
D26*
%TO.C,D61*%
X77020000Y-176800000D03*
X77020000Y-178200000D03*
%TD*%
%TO.C,D8*%
X209926000Y-100796000D03*
X209926000Y-102196000D03*
%TD*%
%TO.C,D3*%
X114930000Y-100796000D03*
X114930000Y-102196000D03*
%TD*%
%TO.C,D6*%
X171826000Y-100796000D03*
X171826000Y-102196000D03*
%TD*%
D28*
%TO.C,D41*%
X269706000Y-138786000D03*
X271106000Y-138786000D03*
%TD*%
D26*
%TO.C,D37*%
X191020000Y-138800000D03*
X191020000Y-140200000D03*
%TD*%
D28*
%TO.C,D31*%
X78444000Y-139040000D03*
X79844000Y-139040000D03*
%TD*%
D26*
%TO.C,D72*%
X286020000Y-176800000D03*
X286020000Y-178200000D03*
%TD*%
D27*
%TO.C,R7*%
X103211000Y-98908000D03*
X104861000Y-98908000D03*
%TD*%
%TO.C,R12*%
X198207000Y-98908000D03*
X199857000Y-98908000D03*
%TD*%
D26*
%TO.C,D70*%
X248020000Y-176800000D03*
X248020000Y-178200000D03*
%TD*%
%TO.C,D59*%
X324020000Y-157800000D03*
X324020000Y-159200000D03*
%TD*%
%TO.C,D2*%
X96020000Y-100796000D03*
X96020000Y-102196000D03*
%TD*%
%TO.C,D56*%
X267020000Y-157800000D03*
X267020000Y-159200000D03*
%TD*%
%TO.C,D44*%
X324020000Y-138800000D03*
X324020000Y-140200000D03*
%TD*%
%TO.C,D25*%
X248020000Y-119800000D03*
X248020000Y-121200000D03*
%TD*%
D27*
%TO.C,R17*%
X293711000Y-98654000D03*
X295361000Y-98654000D03*
%TD*%
D26*
%TO.C,D66*%
X172020000Y-176800000D03*
X172020000Y-178200000D03*
%TD*%
%TO.C,D26*%
X267020000Y-119800000D03*
X267020000Y-121200000D03*
%TD*%
%TO.C,D40*%
X248020000Y-138800000D03*
X248020000Y-140200000D03*
%TD*%
%TO.C,D74*%
X324020000Y-176800000D03*
X324020000Y-178200000D03*
%TD*%
%TO.C,D45*%
X343020000Y-138800000D03*
X343020000Y-140200000D03*
%TD*%
M02*
