M48
; DRILL file {KiCad 8.0.1} date 2024-06-12T21:18:51+0200
; FORMAT={-:-/ absolute / inch / decimal}
; #@! TF.CreationDate,2024-06-12T21:18:51+02:00
; #@! TF.GenerationSoftware,Kicad,Pcbnew,8.0.1
; #@! TF.FileFunction,NonPlated,1,4,NPTH
FMAT,2
INCH
; #@! TA.AperFunction,NonPlated,NPTH,ComponentDrill
T1C0.0256
; #@! TA.AperFunction,NonPlated,NPTH,ComponentDrill
T2C0.0670
; #@! TA.AperFunction,NonPlated,NPTH,ComponentDrill
T3C0.1181
; #@! TA.AperFunction,NonPlated,NPTH,ComponentDrill
T4C0.1260
; #@! TA.AperFunction,NonPlated,NPTH,ComponentDrill
T5C0.1570
%
G90
G05
T1
X13.6504Y-3.2748
X13.878Y-3.2748
T2
X3.1465Y-7.2835
X3.1472Y-4.2913
X3.1472Y-5.0394
X3.1472Y-5.7874
X3.1472Y-6.5354
X3.5465Y-7.2835
X3.5472Y-4.2913
X3.5472Y-5.0394
X3.5472Y-5.7874
X3.5472Y-6.5354
X3.8953Y-4.2913
X3.8953Y-5.0394
X3.8953Y-5.7874
X3.8953Y-6.5354
X3.8953Y-7.2835
X4.2953Y-4.2913
X4.2953Y-5.0394
X4.2953Y-5.7874
X4.2953Y-6.5354
X4.2953Y-7.2835
X4.6433Y-4.2913
X4.6433Y-5.0394
X4.6433Y-5.7874
X4.6433Y-6.5354
X4.6433Y-7.2835
X5.0433Y-4.2913
X5.0433Y-5.0394
X5.0433Y-5.7874
X5.0433Y-6.5354
X5.0433Y-7.2835
X5.3913Y-4.2913
X5.3913Y-5.0394
X5.3913Y-5.7874
X5.3913Y-6.5354
X5.3913Y-7.2835
X5.7913Y-4.2913
X5.7913Y-5.0394
X5.7913Y-5.7874
X5.7913Y-6.5354
X5.7913Y-7.2835
X6.1394Y-4.2913
X6.1394Y-5.0394
X6.1394Y-5.7874
X6.1394Y-6.5354
X6.1394Y-7.2835
X6.5394Y-4.2913
X6.5394Y-5.0394
X6.5394Y-5.7874
X6.5394Y-6.5354
X6.5394Y-7.2835
X6.8874Y-4.2913
X6.8874Y-5.0394
X6.8874Y-5.7874
X6.8874Y-6.5354
X6.8874Y-7.2835
X7.2874Y-4.2913
X7.2874Y-5.0394
X7.2874Y-5.7874
X7.2874Y-6.5354
X7.2874Y-7.2835
X7.6354Y-4.2913
X7.6354Y-5.0394
X7.6354Y-5.7874
X7.6354Y-6.5354
X7.6354Y-7.2835
X8.0354Y-4.2913
X8.0354Y-5.0394
X8.0354Y-5.7874
X8.0354Y-6.5354
X8.0354Y-7.2835
X8.3835Y-4.2913
X8.3835Y-5.0394
X8.3835Y-5.7874
X8.3835Y-6.5354
X8.3835Y-7.2835
X8.7835Y-4.2913
X8.7835Y-5.0394
X8.7835Y-5.7874
X8.7835Y-6.5354
X8.7835Y-7.2835
X9.1315Y-4.2913
X9.1315Y-5.0394
X9.1315Y-5.7874
X9.1315Y-6.5354
X9.1315Y-7.2835
X9.5315Y-4.2913
X9.5315Y-5.0394
X9.5315Y-5.7874
X9.5315Y-6.5354
X9.5315Y-7.2835
X9.8795Y-4.2913
X9.8795Y-5.0394
X9.8795Y-5.7874
X9.8795Y-6.5354
X9.8795Y-7.2835
X10.2795Y-4.2913
X10.2795Y-5.0394
X10.2795Y-5.7874
X10.2795Y-6.5354
X10.2795Y-7.2835
X10.6276Y-4.2913
X10.6276Y-5.0394
X10.6276Y-5.7874
X10.6276Y-6.5354
X10.6276Y-7.2835
X11.0276Y-4.2913
X11.0276Y-5.0394
X11.0276Y-5.7874
X11.0276Y-6.5354
X11.0276Y-7.2835
X11.3756Y-4.2913
X11.3756Y-5.0394
X11.3756Y-5.7874
X11.3756Y-6.5354
X11.3756Y-7.2835
X11.7756Y-4.2913
X11.7756Y-5.0394
X11.7756Y-5.7874
X11.7756Y-6.5354
X11.7756Y-7.2835
X12.1236Y-4.2913
X12.1236Y-5.0394
X12.1236Y-5.7874
X12.1236Y-6.5354
X12.1236Y-7.2835
X12.5236Y-4.2913
X12.5236Y-5.0394
X12.5236Y-5.7874
X12.5236Y-6.5354
X12.5236Y-7.2835
X12.8717Y-4.2913
X12.8717Y-5.0394
X12.8717Y-5.7874
X12.8717Y-6.5354
X12.8717Y-7.2835
X13.2717Y-4.2913
X13.2717Y-5.0394
X13.2717Y-5.7874
X13.2717Y-6.5354
X13.2717Y-7.2835
X13.6197Y-4.2913
X13.6197Y-5.0394
X13.6197Y-5.7874
X13.6197Y-6.5354
X13.6197Y-7.2835
X14.0197Y-4.2913
X14.0197Y-5.0394
X14.0197Y-5.7874
X14.0197Y-6.5354
X14.0197Y-7.2835
T3
X3.1965Y-7.1835
X3.1972Y-4.1913
X3.1972Y-4.9394
X3.1972Y-5.6874
X3.1972Y-6.4354
X3.4465Y-7.0835
X3.4472Y-4.0913
X3.4472Y-4.8394
X3.4472Y-5.5874
X3.4472Y-6.3354
X3.9453Y-4.1913
X3.9453Y-4.9394
X3.9453Y-5.6874
X3.9453Y-6.4354
X3.9453Y-7.1835
X4.1953Y-4.0913
X4.1953Y-4.8394
X4.1953Y-5.5874
X4.1953Y-6.3354
X4.1953Y-7.0835
X4.6933Y-4.1913
X4.6933Y-4.9394
X4.6933Y-5.6874
X4.6933Y-6.4354
X4.6933Y-7.1835
X4.9433Y-4.0913
X4.9433Y-4.8394
X4.9433Y-5.5874
X4.9433Y-6.3354
X4.9433Y-7.0835
X5.4413Y-4.1913
X5.4413Y-4.9394
X5.4413Y-5.6874
X5.4413Y-6.4354
X5.4413Y-7.1835
X5.6913Y-4.0913
X5.6913Y-4.8394
X5.6913Y-5.5874
X5.6913Y-6.3354
X5.6913Y-7.0835
X6.1894Y-4.1913
X6.1894Y-4.9394
X6.1894Y-5.6874
X6.1894Y-6.4354
X6.1894Y-7.1835
X6.4394Y-4.0913
X6.4394Y-4.8394
X6.4394Y-5.5874
X6.4394Y-6.3354
X6.4394Y-7.0835
X6.9374Y-4.1913
X6.9374Y-4.9394
X6.9374Y-5.6874
X6.9374Y-6.4354
X6.9374Y-7.1835
X7.1874Y-4.0913
X7.1874Y-4.8394
X7.1874Y-5.5874
X7.1874Y-6.3354
X7.1874Y-7.0835
X7.6854Y-4.1913
X7.6854Y-4.9394
X7.6854Y-5.6874
X7.6854Y-6.4354
X7.6854Y-7.1835
X7.9354Y-4.0913
X7.9354Y-4.8394
X7.9354Y-5.5874
X7.9354Y-6.3354
X7.9354Y-7.0835
X8.4335Y-4.1913
X8.4335Y-4.9394
X8.4335Y-5.6874
X8.4335Y-6.4354
X8.4335Y-7.1835
X8.6835Y-4.0913
X8.6835Y-4.8394
X8.6835Y-5.5874
X8.6835Y-6.3354
X8.6835Y-7.0835
X9.1815Y-4.1913
X9.1815Y-4.9394
X9.1815Y-5.6874
X9.1815Y-6.4354
X9.1815Y-7.1835
X9.4315Y-4.0913
X9.4315Y-4.8394
X9.4315Y-5.5874
X9.4315Y-6.3354
X9.4315Y-7.0835
X9.9295Y-4.1913
X9.9295Y-4.9394
X9.9295Y-5.6874
X9.9295Y-6.4354
X9.9295Y-7.1835
X10.1795Y-4.0913
X10.1795Y-4.8394
X10.1795Y-5.5874
X10.1795Y-6.3354
X10.1795Y-7.0835
X10.6776Y-4.1913
X10.6776Y-4.9394
X10.6776Y-5.6874
X10.6776Y-6.4354
X10.6776Y-7.1835
X10.9276Y-4.0913
X10.9276Y-4.8394
X10.9276Y-5.5874
X10.9276Y-6.3354
X10.9276Y-7.0835
X11.4256Y-4.1913
X11.4256Y-4.9394
X11.4256Y-5.6874
X11.4256Y-6.4354
X11.4256Y-7.1835
X11.6756Y-4.0913
X11.6756Y-4.8394
X11.6756Y-5.5874
X11.6756Y-6.3354
X11.6756Y-7.0835
X12.1736Y-4.1913
X12.1736Y-4.9394
X12.1736Y-5.6874
X12.1736Y-6.4354
X12.1736Y-7.1835
X12.4236Y-4.0913
X12.4236Y-4.8394
X12.4236Y-5.5874
X12.4236Y-6.3354
X12.4236Y-7.0835
X12.9217Y-4.1913
X12.9217Y-4.9394
X12.9217Y-5.6874
X12.9217Y-6.4354
X12.9217Y-7.1835
X13.1717Y-4.0913
X13.1717Y-4.8394
X13.1717Y-5.5874
X13.1717Y-6.3354
X13.1717Y-7.0835
X13.6697Y-4.1913
X13.6697Y-4.9394
X13.6697Y-5.6874
X13.6697Y-6.4354
X13.6697Y-7.1835
X13.9197Y-4.0913
X13.9197Y-4.8394
X13.9197Y-5.5874
X13.9197Y-6.3354
X13.9197Y-7.0835
T4
X2.9134Y-3.189
X2.9134Y-3.7598
X2.9134Y-5.4134
X2.9134Y-7.7165
X6.7126Y-5.4134
X6.7126Y-7.7165
X8.5827Y-3.189
X8.5827Y-3.7598
X10.4528Y-5.4134
X10.4528Y-7.7165
X14.252Y-3.189
X14.252Y-3.7598
X14.252Y-5.4134
X14.252Y-7.7165
T5
X3.3465Y-7.2835
X3.3472Y-4.2913
X3.3472Y-5.0394
X3.3472Y-5.7874
X3.3472Y-6.5354
X4.0953Y-4.2913
X4.0953Y-5.0394
X4.0953Y-5.7874
X4.0953Y-6.5354
X4.0953Y-7.2835
X4.8433Y-4.2913
X4.8433Y-5.0394
X4.8433Y-5.7874
X4.8433Y-6.5354
X4.8433Y-7.2835
X5.5913Y-4.2913
X5.5913Y-5.0394
X5.5913Y-5.7874
X5.5913Y-6.5354
X5.5913Y-7.2835
X6.3394Y-4.2913
X6.3394Y-5.0394
X6.3394Y-5.7874
X6.3394Y-6.5354
X6.3394Y-7.2835
X7.0874Y-4.2913
X7.0874Y-5.0394
X7.0874Y-5.7874
X7.0874Y-6.5354
X7.0874Y-7.2835
X7.8354Y-4.2913
X7.8354Y-5.0394
X7.8354Y-5.7874
X7.8354Y-6.5354
X7.8354Y-7.2835
X8.5835Y-4.2913
X8.5835Y-5.0394
X8.5835Y-5.7874
X8.5835Y-6.5354
X8.5835Y-7.2835
X9.3315Y-4.2913
X9.3315Y-5.0394
X9.3315Y-5.7874
X9.3315Y-6.5354
X9.3315Y-7.2835
X10.0795Y-4.2913
X10.0795Y-5.0394
X10.0795Y-5.7874
X10.0795Y-6.5354
X10.0795Y-7.2835
X10.8276Y-4.2913
X10.8276Y-5.0394
X10.8276Y-5.7874
X10.8276Y-6.5354
X10.8276Y-7.2835
X11.5756Y-4.2913
X11.5756Y-5.0394
X11.5756Y-5.7874
X11.5756Y-6.5354
X11.5756Y-7.2835
X12.3236Y-4.2913
X12.3236Y-5.0394
X12.3236Y-5.7874
X12.3236Y-6.5354
X12.3236Y-7.2835
X13.0717Y-4.2913
X13.0717Y-5.0394
X13.0717Y-5.7874
X13.0717Y-6.5354
X13.0717Y-7.2835
X13.8197Y-4.2913
X13.8197Y-5.0394
X13.8197Y-5.7874
X13.8197Y-6.5354
X13.8197Y-7.2835
M30
