%TF.GenerationSoftware,KiCad,Pcbnew,8.0.1*%
%TF.CreationDate,2024-06-12T21:18:50+02:00*%
%TF.ProjectId,Keyboard,4b657962-6f61-4726-942e-6b696361645f,rev?*%
%TF.SameCoordinates,Original*%
%TF.FileFunction,Drillmap*%
%TF.FilePolarity,Positive*%
%FSLAX45Y45*%
G04 Gerber Fmt 4.5, Leading zero omitted, Abs format (unit mm)*
G04 Created by KiCad (PCBNEW 8.0.1) date 2024-06-12 21:18:50*
%MOMM*%
%LPD*%
G01*
G04 APERTURE LIST*
%ADD10C,0.050000*%
%ADD11C,0.200000*%
%ADD12C,0.100000*%
%ADD13C,0.150000*%
G04 APERTURE END LIST*
D10*
X36600000Y-19700000D02*
G75*
G02*
X36300000Y-20000000I-300000J0D01*
G01*
X7000000Y-8000000D02*
G75*
G02*
X7300000Y-7700000I300000J0D01*
G01*
X7000000Y-19700000D02*
X7000000Y-8000000D01*
X7300000Y-20000000D02*
X36300000Y-20000000D01*
X36600000Y-19700000D02*
X36600000Y-8000000D01*
X36300000Y-7700000D02*
G75*
G02*
X36600000Y-8000000I0J-300000D01*
G01*
X7300000Y-7700000D02*
X36300000Y-7700000D01*
X7300000Y-20000000D02*
G75*
G02*
X7000000Y-19700000I0J300000D01*
G01*
D11*
D12*
X7782500Y-8380175D02*
X7812500Y-8410175D01*
X7812500Y-8380175D02*
X7782500Y-8410175D01*
X7782500Y-9180175D02*
X7812500Y-9210175D01*
X7812500Y-9180175D02*
X7782500Y-9210175D01*
X7782500Y-11580175D02*
X7812500Y-11610175D01*
X7812500Y-11580175D02*
X7782500Y-11610175D01*
X7782500Y-13180175D02*
X7812500Y-13210175D01*
X7812500Y-13180175D02*
X7782500Y-13210175D01*
X7782500Y-14780175D02*
X7812500Y-14810175D01*
X7812500Y-14780175D02*
X7782500Y-14810175D01*
X7782500Y-15580175D02*
X7812500Y-15610175D01*
X7812500Y-15580175D02*
X7782500Y-15610175D01*
X7782500Y-17180175D02*
X7812500Y-17210175D01*
X7812500Y-17180175D02*
X7782500Y-17210175D01*
X7782500Y-17980175D02*
X7812500Y-18010175D01*
X7812500Y-17980175D02*
X7782500Y-18010175D01*
X7782500Y-18780175D02*
X7812500Y-18810175D01*
X7812500Y-18780175D02*
X7782500Y-18810175D01*
X7782500Y-19580175D02*
X7812500Y-19610175D01*
X7812500Y-19580175D02*
X7782500Y-19610175D01*
X8582500Y-8380175D02*
X8612500Y-8410175D01*
X8612500Y-8380175D02*
X8582500Y-8410175D01*
X8582500Y-11580175D02*
X8612500Y-11610175D01*
X8612500Y-11580175D02*
X8582500Y-11610175D01*
X8582500Y-13180175D02*
X8612500Y-13210175D01*
X8612500Y-13180175D02*
X8582500Y-13210175D01*
X8582500Y-15580175D02*
X8612500Y-15610175D01*
X8612500Y-15580175D02*
X8582500Y-15610175D01*
X8582500Y-17180175D02*
X8612500Y-17210175D01*
X8612500Y-17180175D02*
X8582500Y-17210175D01*
X8582500Y-18780175D02*
X8612500Y-18810175D01*
X8612500Y-18780175D02*
X8582500Y-18810175D01*
X8582500Y-19580175D02*
X8612500Y-19610175D01*
X8612500Y-19580175D02*
X8582500Y-19610175D01*
X9194800Y-15794000D02*
X9224800Y-15824000D01*
X9224800Y-15794000D02*
X9194800Y-15824000D01*
X9220200Y-17673600D02*
X9250200Y-17703600D01*
X9250200Y-17673600D02*
X9220200Y-17703600D01*
X9245600Y-10053600D02*
X9275600Y-10083600D01*
X9275600Y-10053600D02*
X9245600Y-10083600D01*
X9245600Y-11958600D02*
X9275600Y-11988600D01*
X9275600Y-11958600D02*
X9245600Y-11988600D01*
X9245600Y-13863600D02*
X9275600Y-13893600D01*
X9275600Y-13863600D02*
X9245600Y-13893600D01*
X9382500Y-9180175D02*
X9412500Y-9210175D01*
X9412500Y-9180175D02*
X9382500Y-9210175D01*
X9382500Y-17980175D02*
X9412500Y-18010175D01*
X9412500Y-17980175D02*
X9382500Y-18010175D01*
X9382500Y-18780175D02*
X9412500Y-18810175D01*
X9412500Y-18780175D02*
X9382500Y-18810175D01*
X9382500Y-19580175D02*
X9412500Y-19610175D01*
X9412500Y-19580175D02*
X9382500Y-19610175D01*
X10182500Y-11580175D02*
X10212500Y-11610175D01*
X10212500Y-11580175D02*
X10182500Y-11610175D01*
X10182500Y-13180175D02*
X10212500Y-13210175D01*
X10212500Y-13180175D02*
X10182500Y-13210175D01*
X10182500Y-13980175D02*
X10212500Y-14010175D01*
X10212500Y-13980175D02*
X10182500Y-14010175D01*
X10182500Y-15580175D02*
X10212500Y-15610175D01*
X10212500Y-15580175D02*
X10182500Y-15610175D01*
X10182500Y-17180175D02*
X10212500Y-17210175D01*
X10212500Y-17180175D02*
X10182500Y-17210175D01*
X10182500Y-17980175D02*
X10212500Y-18010175D01*
X10212500Y-17980175D02*
X10182500Y-18010175D01*
X10182500Y-18780175D02*
X10212500Y-18810175D01*
X10212500Y-18780175D02*
X10182500Y-18810175D01*
X10182500Y-19580175D02*
X10212500Y-19610175D01*
X10212500Y-19580175D02*
X10182500Y-19610175D01*
X10871200Y-10053600D02*
X10901200Y-10083600D01*
X10901200Y-10053600D02*
X10871200Y-10083600D01*
X10871200Y-15794000D02*
X10901200Y-15824000D01*
X10901200Y-15794000D02*
X10871200Y-15824000D01*
X10896600Y-11958600D02*
X10926600Y-11988600D01*
X10926600Y-11958600D02*
X10896600Y-11988600D01*
X10896600Y-13863600D02*
X10926600Y-13893600D01*
X10926600Y-13863600D02*
X10896600Y-13893600D01*
X10896600Y-17673600D02*
X10926600Y-17703600D01*
X10926600Y-17673600D02*
X10896600Y-17703600D01*
X10909300Y-8593100D02*
X10939300Y-8623100D01*
X10939300Y-8593100D02*
X10909300Y-8623100D01*
X10909300Y-9088400D02*
X10939300Y-9118400D01*
X10939300Y-9088400D02*
X10909300Y-9118400D01*
X10934700Y-8034300D02*
X10964700Y-8064300D01*
X10964700Y-8034300D02*
X10934700Y-8064300D01*
X10982500Y-9180175D02*
X11012500Y-9210175D01*
X11012500Y-9180175D02*
X10982500Y-9210175D01*
X10982500Y-11580175D02*
X11012500Y-11610175D01*
X11012500Y-11580175D02*
X10982500Y-11610175D01*
X10982500Y-13180175D02*
X11012500Y-13210175D01*
X11012500Y-13180175D02*
X10982500Y-13210175D01*
X10982500Y-15580175D02*
X11012500Y-15610175D01*
X11012500Y-15580175D02*
X10982500Y-15610175D01*
X10982500Y-16380175D02*
X11012500Y-16410175D01*
X11012500Y-16380175D02*
X10982500Y-16410175D01*
X10982500Y-17180175D02*
X11012500Y-17210175D01*
X11012500Y-17180175D02*
X10982500Y-17210175D01*
X10982500Y-18780175D02*
X11012500Y-18810175D01*
X11012500Y-18780175D02*
X10982500Y-18810175D01*
X10982500Y-19580175D02*
X11012500Y-19610175D01*
X11012500Y-19580175D02*
X10982500Y-19610175D01*
X11782500Y-9180175D02*
X11812500Y-9210175D01*
X11812500Y-9180175D02*
X11782500Y-9210175D01*
X11782500Y-11580175D02*
X11812500Y-11610175D01*
X11812500Y-11580175D02*
X11782500Y-11610175D01*
X11782500Y-13180175D02*
X11812500Y-13210175D01*
X11812500Y-13180175D02*
X11782500Y-13210175D01*
X11782500Y-13980175D02*
X11812500Y-14010175D01*
X11812500Y-13980175D02*
X11782500Y-14010175D01*
X11782500Y-15580175D02*
X11812500Y-15610175D01*
X11812500Y-15580175D02*
X11782500Y-15610175D01*
X11782500Y-17180175D02*
X11812500Y-17210175D01*
X11812500Y-17180175D02*
X11782500Y-17210175D01*
X11782500Y-17980175D02*
X11812500Y-18010175D01*
X11812500Y-17980175D02*
X11782500Y-18010175D01*
X11782500Y-18780175D02*
X11812500Y-18810175D01*
X11812500Y-18780175D02*
X11782500Y-18810175D01*
X11782500Y-19580175D02*
X11812500Y-19610175D01*
X11812500Y-19580175D02*
X11782500Y-19610175D01*
X12582500Y-9180175D02*
X12612500Y-9210175D01*
X12612500Y-9180175D02*
X12582500Y-9210175D01*
X12582500Y-10780175D02*
X12612500Y-10810175D01*
X12612500Y-10780175D02*
X12582500Y-10810175D01*
X12582500Y-11580175D02*
X12612500Y-11610175D01*
X12612500Y-11580175D02*
X12582500Y-11610175D01*
X12582500Y-13180175D02*
X12612500Y-13210175D01*
X12612500Y-13180175D02*
X12582500Y-13210175D01*
X12582500Y-14780175D02*
X12612500Y-14810175D01*
X12612500Y-14780175D02*
X12582500Y-14810175D01*
X12582500Y-15580175D02*
X12612500Y-15610175D01*
X12612500Y-15580175D02*
X12582500Y-15610175D01*
X12582500Y-16380175D02*
X12612500Y-16410175D01*
X12612500Y-16380175D02*
X12582500Y-16410175D01*
X12582500Y-17180175D02*
X12612500Y-17210175D01*
X12612500Y-17180175D02*
X12582500Y-17210175D01*
X12582500Y-18780175D02*
X12612500Y-18810175D01*
X12612500Y-18780175D02*
X12582500Y-18810175D01*
X12582500Y-19580175D02*
X12612500Y-19610175D01*
X12612500Y-19580175D02*
X12582500Y-19610175D01*
X12776200Y-10053600D02*
X12806200Y-10083600D01*
X12806200Y-10053600D02*
X12776200Y-10083600D01*
X12776200Y-11958600D02*
X12806200Y-11988600D01*
X12806200Y-11958600D02*
X12776200Y-11988600D01*
X12776200Y-13863600D02*
X12806200Y-13893600D01*
X12806200Y-13863600D02*
X12776200Y-13893600D01*
X12776200Y-15794000D02*
X12806200Y-15824000D01*
X12806200Y-15794000D02*
X12776200Y-15824000D01*
X12776200Y-17673600D02*
X12806200Y-17703600D01*
X12806200Y-17673600D02*
X12776200Y-17703600D01*
X13271500Y-9164600D02*
X13301500Y-9194600D01*
X13301500Y-9164600D02*
X13271500Y-9194600D01*
X13382500Y-11580175D02*
X13412500Y-11610175D01*
X13412500Y-11580175D02*
X13382500Y-11610175D01*
X13382500Y-13180175D02*
X13412500Y-13210175D01*
X13412500Y-13180175D02*
X13382500Y-13210175D01*
X13382500Y-14780175D02*
X13412500Y-14810175D01*
X13412500Y-14780175D02*
X13382500Y-14810175D01*
X13382500Y-15580175D02*
X13412500Y-15610175D01*
X13412500Y-15580175D02*
X13382500Y-15610175D01*
X13382500Y-17180175D02*
X13412500Y-17210175D01*
X13412500Y-17180175D02*
X13382500Y-17210175D01*
X13382500Y-18780175D02*
X13412500Y-18810175D01*
X13412500Y-18780175D02*
X13382500Y-18810175D01*
X13382500Y-19580175D02*
X13412500Y-19610175D01*
X13412500Y-19580175D02*
X13382500Y-19610175D01*
X14182500Y-11580175D02*
X14212500Y-11610175D01*
X14212500Y-11580175D02*
X14182500Y-11610175D01*
X14182500Y-12380175D02*
X14212500Y-12410175D01*
X14212500Y-12380175D02*
X14182500Y-12410175D01*
X14182500Y-13180175D02*
X14212500Y-13210175D01*
X14212500Y-13180175D02*
X14182500Y-13210175D01*
X14182500Y-13980175D02*
X14212500Y-14010175D01*
X14212500Y-13980175D02*
X14182500Y-14010175D01*
X14182500Y-15580175D02*
X14212500Y-15610175D01*
X14212500Y-15580175D02*
X14182500Y-15610175D01*
X14182500Y-17180175D02*
X14212500Y-17210175D01*
X14212500Y-17180175D02*
X14182500Y-17210175D01*
X14182500Y-17980175D02*
X14212500Y-18010175D01*
X14212500Y-17980175D02*
X14182500Y-18010175D01*
X14182500Y-18780175D02*
X14212500Y-18810175D01*
X14212500Y-18780175D02*
X14182500Y-18810175D01*
X14182500Y-19580175D02*
X14212500Y-19610175D01*
X14212500Y-19580175D02*
X14182500Y-19610175D01*
X14617700Y-9139200D02*
X14647700Y-9169200D01*
X14647700Y-9139200D02*
X14617700Y-9169200D01*
X14681200Y-10053600D02*
X14711200Y-10083600D01*
X14711200Y-10053600D02*
X14681200Y-10083600D01*
X14681200Y-11958600D02*
X14711200Y-11988600D01*
X14711200Y-11958600D02*
X14681200Y-11988600D01*
X14681200Y-13863600D02*
X14711200Y-13893600D01*
X14711200Y-13863600D02*
X14681200Y-13893600D01*
X14681200Y-15794000D02*
X14711200Y-15824000D01*
X14711200Y-15794000D02*
X14681200Y-15824000D01*
X14681200Y-17673600D02*
X14711200Y-17703600D01*
X14711200Y-17673600D02*
X14681200Y-17703600D01*
X14982500Y-10780175D02*
X15012500Y-10810175D01*
X15012500Y-10780175D02*
X14982500Y-10810175D01*
X14982500Y-11580175D02*
X15012500Y-11610175D01*
X15012500Y-11580175D02*
X14982500Y-11610175D01*
X14982500Y-13180175D02*
X15012500Y-13210175D01*
X15012500Y-13180175D02*
X14982500Y-13210175D01*
X14982500Y-14780175D02*
X15012500Y-14810175D01*
X15012500Y-14780175D02*
X14982500Y-14810175D01*
X14982500Y-15580175D02*
X15012500Y-15610175D01*
X15012500Y-15580175D02*
X14982500Y-15610175D01*
X14982500Y-16380175D02*
X15012500Y-16410175D01*
X15012500Y-16380175D02*
X14982500Y-16410175D01*
X14982500Y-17180175D02*
X15012500Y-17210175D01*
X15012500Y-17180175D02*
X14982500Y-17210175D01*
X14982500Y-18780175D02*
X15012500Y-18810175D01*
X15012500Y-18780175D02*
X14982500Y-18810175D01*
X14982500Y-19580175D02*
X15012500Y-19610175D01*
X15012500Y-19580175D02*
X14982500Y-19610175D01*
X15782500Y-11580175D02*
X15812500Y-11610175D01*
X15812500Y-11580175D02*
X15782500Y-11610175D01*
X15782500Y-13180175D02*
X15812500Y-13210175D01*
X15812500Y-13180175D02*
X15782500Y-13210175D01*
X15782500Y-13980175D02*
X15812500Y-14010175D01*
X15812500Y-13980175D02*
X15782500Y-14010175D01*
X15782500Y-14780175D02*
X15812500Y-14810175D01*
X15812500Y-14780175D02*
X15782500Y-14810175D01*
X15782500Y-15580175D02*
X15812500Y-15610175D01*
X15812500Y-15580175D02*
X15782500Y-15610175D01*
X15782500Y-17180175D02*
X15812500Y-17210175D01*
X15812500Y-17180175D02*
X15782500Y-17210175D01*
X15782500Y-17980175D02*
X15812500Y-18010175D01*
X15812500Y-17980175D02*
X15782500Y-18010175D01*
X15782500Y-18780175D02*
X15812500Y-18810175D01*
X15812500Y-18780175D02*
X15782500Y-18810175D01*
X15782500Y-19580175D02*
X15812500Y-19610175D01*
X15812500Y-19580175D02*
X15782500Y-19610175D01*
X15938500Y-9037600D02*
X15968500Y-9067600D01*
X15968500Y-9037600D02*
X15938500Y-9067600D01*
X16560800Y-13863600D02*
X16590800Y-13893600D01*
X16590800Y-13863600D02*
X16560800Y-13893600D01*
X16582500Y-9180175D02*
X16612500Y-9210175D01*
X16612500Y-9180175D02*
X16582500Y-9210175D01*
X16582500Y-11580175D02*
X16612500Y-11610175D01*
X16612500Y-11580175D02*
X16582500Y-11610175D01*
X16582500Y-13180175D02*
X16612500Y-13210175D01*
X16612500Y-13180175D02*
X16582500Y-13210175D01*
X16582500Y-15580175D02*
X16612500Y-15610175D01*
X16612500Y-15580175D02*
X16582500Y-15610175D01*
X16582500Y-16380175D02*
X16612500Y-16410175D01*
X16612500Y-16380175D02*
X16582500Y-16410175D01*
X16582500Y-17180175D02*
X16612500Y-17210175D01*
X16612500Y-17180175D02*
X16582500Y-17210175D01*
X16582500Y-18780175D02*
X16612500Y-18810175D01*
X16612500Y-18780175D02*
X16582500Y-18810175D01*
X16582500Y-19580175D02*
X16612500Y-19610175D01*
X16612500Y-19580175D02*
X16582500Y-19610175D01*
X16586200Y-10053600D02*
X16616200Y-10083600D01*
X16616200Y-10053600D02*
X16586200Y-10083600D01*
X16586200Y-11958600D02*
X16616200Y-11988600D01*
X16616200Y-11958600D02*
X16586200Y-11988600D01*
X16586200Y-15794000D02*
X16616200Y-15824000D01*
X16616200Y-15794000D02*
X16586200Y-15824000D01*
X16586200Y-17673600D02*
X16616200Y-17703600D01*
X16616200Y-17673600D02*
X16586200Y-17703600D01*
X17382500Y-11580175D02*
X17412500Y-11610175D01*
X17412500Y-11580175D02*
X17382500Y-11610175D01*
X17382500Y-13180175D02*
X17412500Y-13210175D01*
X17412500Y-13180175D02*
X17382500Y-13210175D01*
X17382500Y-15580175D02*
X17412500Y-15610175D01*
X17412500Y-15580175D02*
X17382500Y-15610175D01*
X17382500Y-17180175D02*
X17412500Y-17210175D01*
X17412500Y-17180175D02*
X17382500Y-17210175D01*
X17382500Y-17980175D02*
X17412500Y-18010175D01*
X17412500Y-17980175D02*
X17382500Y-18010175D01*
X17382500Y-18780175D02*
X17412500Y-18810175D01*
X17412500Y-18780175D02*
X17382500Y-18810175D01*
X17382500Y-19580175D02*
X17412500Y-19610175D01*
X17412500Y-19580175D02*
X17382500Y-19610175D01*
X17602200Y-9037600D02*
X17632200Y-9067600D01*
X17632200Y-9037600D02*
X17602200Y-9067600D01*
X18182500Y-11580175D02*
X18212500Y-11610175D01*
X18212500Y-11580175D02*
X18182500Y-11610175D01*
X18182500Y-13180175D02*
X18212500Y-13210175D01*
X18212500Y-13180175D02*
X18182500Y-13210175D01*
X18182500Y-15580175D02*
X18212500Y-15610175D01*
X18212500Y-15580175D02*
X18182500Y-15610175D01*
X18182500Y-17180175D02*
X18212500Y-17210175D01*
X18212500Y-17180175D02*
X18182500Y-17210175D01*
X18182500Y-18780175D02*
X18212500Y-18810175D01*
X18212500Y-18780175D02*
X18182500Y-18810175D01*
X18182500Y-19580175D02*
X18212500Y-19610175D01*
X18212500Y-19580175D02*
X18182500Y-19610175D01*
X18465800Y-15794000D02*
X18495800Y-15824000D01*
X18495800Y-15794000D02*
X18465800Y-15824000D01*
X18491200Y-10053600D02*
X18521200Y-10083600D01*
X18521200Y-10053600D02*
X18491200Y-10083600D01*
X18491200Y-11958600D02*
X18521200Y-11988600D01*
X18521200Y-11958600D02*
X18491200Y-11988600D01*
X18491200Y-13863600D02*
X18521200Y-13893600D01*
X18521200Y-13863600D02*
X18491200Y-13893600D01*
X18491200Y-17673600D02*
X18521200Y-17703600D01*
X18521200Y-17673600D02*
X18491200Y-17703600D01*
X18732500Y-8936000D02*
X18762500Y-8966000D01*
X18762500Y-8936000D02*
X18732500Y-8966000D01*
X18982500Y-17980175D02*
X19012500Y-18010175D01*
X19012500Y-17980175D02*
X18982500Y-18010175D01*
X18982500Y-18780175D02*
X19012500Y-18810175D01*
X19012500Y-18780175D02*
X18982500Y-18810175D01*
X18982500Y-19580175D02*
X19012500Y-19610175D01*
X19012500Y-19580175D02*
X18982500Y-19610175D01*
X19782500Y-11580175D02*
X19812500Y-11610175D01*
X19812500Y-11580175D02*
X19782500Y-11610175D01*
X19782500Y-12380175D02*
X19812500Y-12410175D01*
X19812500Y-12380175D02*
X19782500Y-12410175D01*
X19782500Y-13180175D02*
X19812500Y-13210175D01*
X19812500Y-13180175D02*
X19782500Y-13210175D01*
X19782500Y-13980175D02*
X19812500Y-14010175D01*
X19812500Y-13980175D02*
X19782500Y-14010175D01*
X19782500Y-15580175D02*
X19812500Y-15610175D01*
X19812500Y-15580175D02*
X19782500Y-15610175D01*
X19782500Y-17180175D02*
X19812500Y-17210175D01*
X19812500Y-17180175D02*
X19782500Y-17210175D01*
X19782500Y-17980175D02*
X19812500Y-18010175D01*
X19812500Y-17980175D02*
X19782500Y-18010175D01*
X19782500Y-18780175D02*
X19812500Y-18810175D01*
X19812500Y-18780175D02*
X19782500Y-18810175D01*
X19782500Y-19580175D02*
X19812500Y-19610175D01*
X19812500Y-19580175D02*
X19782500Y-19610175D01*
X20370800Y-10053600D02*
X20400800Y-10083600D01*
X20400800Y-10053600D02*
X20370800Y-10083600D01*
X20396200Y-11958600D02*
X20426200Y-11988600D01*
X20426200Y-11958600D02*
X20396200Y-11988600D01*
X20396200Y-13863600D02*
X20426200Y-13893600D01*
X20426200Y-13863600D02*
X20396200Y-13893600D01*
X20396200Y-15794000D02*
X20426200Y-15824000D01*
X20426200Y-15794000D02*
X20396200Y-15824000D01*
X20396200Y-17673600D02*
X20426200Y-17703600D01*
X20426200Y-17673600D02*
X20396200Y-17703600D01*
X20582500Y-9180175D02*
X20612500Y-9210175D01*
X20612500Y-9180175D02*
X20582500Y-9210175D01*
X20582500Y-10780175D02*
X20612500Y-10810175D01*
X20612500Y-10780175D02*
X20582500Y-10810175D01*
X20582500Y-11580175D02*
X20612500Y-11610175D01*
X20612500Y-11580175D02*
X20582500Y-11610175D01*
X20582500Y-13180175D02*
X20612500Y-13210175D01*
X20612500Y-13180175D02*
X20582500Y-13210175D01*
X20582500Y-14780175D02*
X20612500Y-14810175D01*
X20612500Y-14780175D02*
X20582500Y-14810175D01*
X20582500Y-15580175D02*
X20612500Y-15610175D01*
X20612500Y-15580175D02*
X20582500Y-15610175D01*
X20582500Y-16380175D02*
X20612500Y-16410175D01*
X20612500Y-16380175D02*
X20582500Y-16410175D01*
X20582500Y-17180175D02*
X20612500Y-17210175D01*
X20612500Y-17180175D02*
X20582500Y-17210175D01*
X20582500Y-18780175D02*
X20612500Y-18810175D01*
X20612500Y-18780175D02*
X20582500Y-18810175D01*
X20582500Y-19580175D02*
X20612500Y-19610175D01*
X20612500Y-19580175D02*
X20582500Y-19610175D01*
X21069300Y-8237500D02*
X21099300Y-8267500D01*
X21099300Y-8237500D02*
X21069300Y-8267500D01*
X21382500Y-11580175D02*
X21412500Y-11610175D01*
X21412500Y-11580175D02*
X21382500Y-11610175D01*
X21382500Y-13180175D02*
X21412500Y-13210175D01*
X21412500Y-13180175D02*
X21382500Y-13210175D01*
X21382500Y-13980175D02*
X21412500Y-14010175D01*
X21412500Y-13980175D02*
X21382500Y-14010175D01*
X21382500Y-15580175D02*
X21412500Y-15610175D01*
X21412500Y-15580175D02*
X21382500Y-15610175D01*
X21382500Y-17180175D02*
X21412500Y-17210175D01*
X21412500Y-17180175D02*
X21382500Y-17210175D01*
X21382500Y-17980175D02*
X21412500Y-18010175D01*
X21412500Y-17980175D02*
X21382500Y-18010175D01*
X21382500Y-18780175D02*
X21412500Y-18810175D01*
X21412500Y-18780175D02*
X21382500Y-18810175D01*
X21382500Y-19580175D02*
X21412500Y-19610175D01*
X21412500Y-19580175D02*
X21382500Y-19610175D01*
X21539200Y-9050300D02*
X21569200Y-9080300D01*
X21569200Y-9050300D02*
X21539200Y-9080300D01*
X22182500Y-9180175D02*
X22212500Y-9210175D01*
X22212500Y-9180175D02*
X22182500Y-9210175D01*
X22182500Y-11580175D02*
X22212500Y-11610175D01*
X22212500Y-11580175D02*
X22182500Y-11610175D01*
X22182500Y-13180175D02*
X22212500Y-13210175D01*
X22212500Y-13180175D02*
X22182500Y-13210175D01*
X22182500Y-15580175D02*
X22212500Y-15610175D01*
X22212500Y-15580175D02*
X22182500Y-15610175D01*
X22182500Y-16380175D02*
X22212500Y-16410175D01*
X22212500Y-16380175D02*
X22182500Y-16410175D01*
X22182500Y-17180175D02*
X22212500Y-17210175D01*
X22212500Y-17180175D02*
X22182500Y-17210175D01*
X22182500Y-18780175D02*
X22212500Y-18810175D01*
X22212500Y-18780175D02*
X22182500Y-18810175D01*
X22182500Y-19580175D02*
X22212500Y-19610175D01*
X22212500Y-19580175D02*
X22182500Y-19610175D01*
X22275800Y-11958600D02*
X22305800Y-11988600D01*
X22305800Y-11958600D02*
X22275800Y-11988600D01*
X22301200Y-13863600D02*
X22331200Y-13893600D01*
X22331200Y-13863600D02*
X22301200Y-13893600D01*
X22301200Y-15794000D02*
X22331200Y-15824000D01*
X22331200Y-15794000D02*
X22301200Y-15824000D01*
X22301200Y-17673600D02*
X22331200Y-17703600D01*
X22331200Y-17673600D02*
X22301200Y-17703600D01*
X22352000Y-10053600D02*
X22382000Y-10083600D01*
X22382000Y-10053600D02*
X22352000Y-10083600D01*
X22982500Y-11580175D02*
X23012500Y-11610175D01*
X23012500Y-11580175D02*
X22982500Y-11610175D01*
X22982500Y-13180175D02*
X23012500Y-13210175D01*
X23012500Y-13180175D02*
X22982500Y-13210175D01*
X22982500Y-14780175D02*
X23012500Y-14810175D01*
X23012500Y-14780175D02*
X22982500Y-14810175D01*
X22982500Y-15580175D02*
X23012500Y-15610175D01*
X23012500Y-15580175D02*
X22982500Y-15610175D01*
X22982500Y-17180175D02*
X23012500Y-17210175D01*
X23012500Y-17180175D02*
X22982500Y-17210175D01*
X22982500Y-18780175D02*
X23012500Y-18810175D01*
X23012500Y-18780175D02*
X22982500Y-18810175D01*
X22982500Y-19580175D02*
X23012500Y-19610175D01*
X23012500Y-19580175D02*
X22982500Y-19610175D01*
X23782500Y-11580175D02*
X23812500Y-11610175D01*
X23812500Y-11580175D02*
X23782500Y-11610175D01*
X23782500Y-13180175D02*
X23812500Y-13210175D01*
X23812500Y-13180175D02*
X23782500Y-13210175D01*
X23782500Y-15580175D02*
X23812500Y-15610175D01*
X23812500Y-15580175D02*
X23782500Y-15610175D01*
X23782500Y-17180175D02*
X23812500Y-17210175D01*
X23812500Y-17180175D02*
X23782500Y-17210175D01*
X23782500Y-18780175D02*
X23812500Y-18810175D01*
X23812500Y-18780175D02*
X23782500Y-18810175D01*
X23782500Y-19580175D02*
X23812500Y-19610175D01*
X23812500Y-19580175D02*
X23782500Y-19610175D01*
X24180800Y-11958600D02*
X24210800Y-11988600D01*
X24210800Y-11958600D02*
X24180800Y-11988600D01*
X24180800Y-13863600D02*
X24210800Y-13893600D01*
X24210800Y-13863600D02*
X24180800Y-13893600D01*
X24180800Y-15794000D02*
X24210800Y-15824000D01*
X24210800Y-15794000D02*
X24180800Y-15824000D01*
X24180800Y-17673600D02*
X24210800Y-17703600D01*
X24210800Y-17673600D02*
X24180800Y-17703600D01*
X24206200Y-10053600D02*
X24236200Y-10083600D01*
X24236200Y-10053600D02*
X24206200Y-10083600D01*
X24582500Y-8380175D02*
X24612500Y-8410175D01*
X24612500Y-8380175D02*
X24582500Y-8410175D01*
X24582500Y-17980175D02*
X24612500Y-18010175D01*
X24612500Y-17980175D02*
X24582500Y-18010175D01*
X24582500Y-18780175D02*
X24612500Y-18810175D01*
X24612500Y-18780175D02*
X24582500Y-18810175D01*
X24582500Y-19580175D02*
X24612500Y-19610175D01*
X24612500Y-19580175D02*
X24582500Y-19610175D01*
X25209500Y-9355100D02*
X25239500Y-9385100D01*
X25239500Y-9355100D02*
X25209500Y-9385100D01*
X25382500Y-8380175D02*
X25412500Y-8410175D01*
X25412500Y-8380175D02*
X25382500Y-8410175D01*
X25382500Y-11580175D02*
X25412500Y-11610175D01*
X25412500Y-11580175D02*
X25382500Y-11610175D01*
X25382500Y-13180175D02*
X25412500Y-13210175D01*
X25412500Y-13180175D02*
X25382500Y-13210175D01*
X25382500Y-13980175D02*
X25412500Y-14010175D01*
X25412500Y-13980175D02*
X25382500Y-14010175D01*
X25382500Y-15580175D02*
X25412500Y-15610175D01*
X25412500Y-15580175D02*
X25382500Y-15610175D01*
X25382500Y-17180175D02*
X25412500Y-17210175D01*
X25412500Y-17180175D02*
X25382500Y-17210175D01*
X25382500Y-17980175D02*
X25412500Y-18010175D01*
X25412500Y-17980175D02*
X25382500Y-18010175D01*
X25382500Y-18780175D02*
X25412500Y-18810175D01*
X25412500Y-18780175D02*
X25382500Y-18810175D01*
X25382500Y-19580175D02*
X25412500Y-19610175D01*
X25412500Y-19580175D02*
X25382500Y-19610175D01*
X25425400Y-9672600D02*
X25455400Y-9702600D01*
X25455400Y-9672600D02*
X25425400Y-9702600D01*
X26060400Y-13863600D02*
X26090400Y-13893600D01*
X26090400Y-13863600D02*
X26060400Y-13893600D01*
X26085800Y-11958600D02*
X26115800Y-11988600D01*
X26115800Y-11958600D02*
X26085800Y-11988600D01*
X26085800Y-15794000D02*
X26115800Y-15824000D01*
X26115800Y-15794000D02*
X26085800Y-15824000D01*
X26085800Y-17673600D02*
X26115800Y-17703600D01*
X26115800Y-17673600D02*
X26085800Y-17703600D01*
X26136600Y-10053600D02*
X26166600Y-10083600D01*
X26166600Y-10053600D02*
X26136600Y-10083600D01*
X26182500Y-11580175D02*
X26212500Y-11610175D01*
X26212500Y-11580175D02*
X26182500Y-11610175D01*
X26182500Y-13180175D02*
X26212500Y-13210175D01*
X26212500Y-13180175D02*
X26182500Y-13210175D01*
X26182500Y-15580175D02*
X26212500Y-15610175D01*
X26212500Y-15580175D02*
X26182500Y-15610175D01*
X26182500Y-16380175D02*
X26212500Y-16410175D01*
X26212500Y-16380175D02*
X26182500Y-16410175D01*
X26182500Y-17180175D02*
X26212500Y-17210175D01*
X26212500Y-17180175D02*
X26182500Y-17210175D01*
X26182500Y-18780175D02*
X26212500Y-18810175D01*
X26212500Y-18780175D02*
X26182500Y-18810175D01*
X26182500Y-19580175D02*
X26212500Y-19610175D01*
X26212500Y-19580175D02*
X26182500Y-19610175D01*
X26982500Y-8380175D02*
X27012500Y-8410175D01*
X27012500Y-8380175D02*
X26982500Y-8410175D01*
X26982500Y-11580175D02*
X27012500Y-11610175D01*
X27012500Y-11580175D02*
X26982500Y-11610175D01*
X26982500Y-15580175D02*
X27012500Y-15610175D01*
X27012500Y-15580175D02*
X26982500Y-15610175D01*
X26982500Y-17180175D02*
X27012500Y-17210175D01*
X27012500Y-17180175D02*
X26982500Y-17210175D01*
X26982500Y-17980175D02*
X27012500Y-18010175D01*
X27012500Y-17980175D02*
X26982500Y-18010175D01*
X26982500Y-18780175D02*
X27012500Y-18810175D01*
X27012500Y-18780175D02*
X26982500Y-18810175D01*
X26982500Y-19580175D02*
X27012500Y-19610175D01*
X27012500Y-19580175D02*
X26982500Y-19610175D01*
X27419300Y-9647200D02*
X27449300Y-9677200D01*
X27449300Y-9647200D02*
X27419300Y-9677200D01*
X27782500Y-8380175D02*
X27812500Y-8410175D01*
X27812500Y-8380175D02*
X27782500Y-8410175D01*
X27782500Y-10780175D02*
X27812500Y-10810175D01*
X27812500Y-10780175D02*
X27782500Y-10810175D01*
X27782500Y-11580175D02*
X27812500Y-11610175D01*
X27812500Y-11580175D02*
X27782500Y-11610175D01*
X27782500Y-13180175D02*
X27812500Y-13210175D01*
X27812500Y-13180175D02*
X27782500Y-13210175D01*
X27782500Y-14780175D02*
X27812500Y-14810175D01*
X27812500Y-14780175D02*
X27782500Y-14810175D01*
X27782500Y-15580175D02*
X27812500Y-15610175D01*
X27812500Y-15580175D02*
X27782500Y-15610175D01*
X27782500Y-16380175D02*
X27812500Y-16410175D01*
X27812500Y-16380175D02*
X27782500Y-16410175D01*
X27782500Y-17180175D02*
X27812500Y-17210175D01*
X27812500Y-17180175D02*
X27782500Y-17210175D01*
X27782500Y-18780175D02*
X27812500Y-18810175D01*
X27812500Y-18780175D02*
X27782500Y-18810175D01*
X27782500Y-19580175D02*
X27812500Y-19610175D01*
X27812500Y-19580175D02*
X27782500Y-19610175D01*
X27965400Y-11958600D02*
X27995400Y-11988600D01*
X27995400Y-11958600D02*
X27965400Y-11988600D01*
X27990800Y-13863600D02*
X28020800Y-13893600D01*
X28020800Y-13863600D02*
X27990800Y-13893600D01*
X27990800Y-15794000D02*
X28020800Y-15824000D01*
X28020800Y-15794000D02*
X27990800Y-15824000D01*
X27990800Y-17673600D02*
X28020800Y-17703600D01*
X28020800Y-17673600D02*
X27990800Y-17703600D01*
X28041600Y-10053600D02*
X28071600Y-10083600D01*
X28071600Y-10053600D02*
X28041600Y-10083600D01*
X28282900Y-9354400D02*
X28312900Y-9384400D01*
X28312900Y-9354400D02*
X28282900Y-9384400D01*
X28582500Y-8380175D02*
X28612500Y-8410175D01*
X28612500Y-8380175D02*
X28582500Y-8410175D01*
X28582500Y-11580175D02*
X28612500Y-11610175D01*
X28612500Y-11580175D02*
X28582500Y-11610175D01*
X28582500Y-13180175D02*
X28612500Y-13210175D01*
X28612500Y-13180175D02*
X28582500Y-13210175D01*
X28582500Y-14780175D02*
X28612500Y-14810175D01*
X28612500Y-14780175D02*
X28582500Y-14810175D01*
X28582500Y-17180175D02*
X28612500Y-17210175D01*
X28612500Y-17180175D02*
X28582500Y-17210175D01*
X28582500Y-18780175D02*
X28612500Y-18810175D01*
X28612500Y-18780175D02*
X28582500Y-18810175D01*
X28582500Y-19580175D02*
X28612500Y-19610175D01*
X28612500Y-19580175D02*
X28582500Y-19610175D01*
X28968700Y-9151900D02*
X28998700Y-9181900D01*
X28998700Y-9151900D02*
X28968700Y-9181900D01*
X29044900Y-9228100D02*
X29074900Y-9258100D01*
X29074900Y-9228100D02*
X29044900Y-9258100D01*
X29121100Y-9304300D02*
X29151100Y-9334300D01*
X29151100Y-9304300D02*
X29121100Y-9334300D01*
X29286200Y-8897900D02*
X29316200Y-8927900D01*
X29316200Y-8897900D02*
X29286200Y-8927900D01*
X29310595Y-9475900D02*
X29340595Y-9505900D01*
X29340595Y-9475900D02*
X29310595Y-9505900D01*
X29320174Y-9665900D02*
X29350174Y-9695900D01*
X29350174Y-9665900D02*
X29320174Y-9695900D01*
X29382500Y-8380175D02*
X29412500Y-8410175D01*
X29412500Y-8380175D02*
X29382500Y-8410175D01*
X29382500Y-11580175D02*
X29412500Y-11610175D01*
X29412500Y-11580175D02*
X29382500Y-11610175D01*
X29382500Y-12380175D02*
X29412500Y-12410175D01*
X29412500Y-12380175D02*
X29382500Y-12410175D01*
X29382500Y-13180175D02*
X29412500Y-13210175D01*
X29412500Y-13180175D02*
X29382500Y-13210175D01*
X29382500Y-13980175D02*
X29412500Y-14010175D01*
X29412500Y-13980175D02*
X29382500Y-14010175D01*
X29382500Y-15580175D02*
X29412500Y-15610175D01*
X29412500Y-15580175D02*
X29382500Y-15610175D01*
X29382500Y-17180175D02*
X29412500Y-17210175D01*
X29412500Y-17180175D02*
X29382500Y-17210175D01*
X29382500Y-17980175D02*
X29412500Y-18010175D01*
X29412500Y-17980175D02*
X29382500Y-18010175D01*
X29382500Y-18780175D02*
X29412500Y-18810175D01*
X29412500Y-18780175D02*
X29382500Y-18810175D01*
X29382500Y-19580175D02*
X29412500Y-19610175D01*
X29412500Y-19580175D02*
X29382500Y-19610175D01*
X29429612Y-9625584D02*
X29459612Y-9655584D01*
X29459612Y-9625584D02*
X29429612Y-9655584D01*
X29553044Y-9593625D02*
X29583044Y-9623625D01*
X29583044Y-9593625D02*
X29553044Y-9623625D01*
X29845000Y-8897900D02*
X29875000Y-8927900D01*
X29875000Y-8897900D02*
X29845000Y-8927900D01*
X29870400Y-13863600D02*
X29900400Y-13893600D01*
X29900400Y-13863600D02*
X29870400Y-13893600D01*
X29870400Y-17673600D02*
X29900400Y-17703600D01*
X29900400Y-17673600D02*
X29870400Y-17703600D01*
X29895800Y-11958600D02*
X29925800Y-11988600D01*
X29925800Y-11958600D02*
X29895800Y-11988600D01*
X29895800Y-15794000D02*
X29925800Y-15824000D01*
X29925800Y-15794000D02*
X29895800Y-15824000D01*
X29921200Y-10053600D02*
X29951200Y-10083600D01*
X29951200Y-10053600D02*
X29921200Y-10083600D01*
X29922213Y-9216702D02*
X29952213Y-9246702D01*
X29952213Y-9216702D02*
X29922213Y-9246702D01*
X29946982Y-9292772D02*
X29976982Y-9322772D01*
X29976982Y-9292772D02*
X29946982Y-9322772D01*
X29968500Y-9396700D02*
X29998500Y-9426700D01*
X29998500Y-9396700D02*
X29968500Y-9426700D01*
X29972000Y-9139200D02*
X30002000Y-9169200D01*
X30002000Y-9139200D02*
X29972000Y-9169200D01*
X30010100Y-8974100D02*
X30040100Y-9004100D01*
X30040100Y-8974100D02*
X30010100Y-9004100D01*
X30137100Y-9405200D02*
X30167100Y-9435200D01*
X30167100Y-9405200D02*
X30137100Y-9435200D01*
X30182500Y-8380175D02*
X30212500Y-8410175D01*
X30212500Y-8380175D02*
X30182500Y-8410175D01*
X30182500Y-10780175D02*
X30212500Y-10810175D01*
X30212500Y-10780175D02*
X30182500Y-10810175D01*
X30182500Y-11580175D02*
X30212500Y-11610175D01*
X30212500Y-11580175D02*
X30182500Y-11610175D01*
X30182500Y-13180175D02*
X30212500Y-13210175D01*
X30212500Y-13180175D02*
X30182500Y-13210175D01*
X30182500Y-14780175D02*
X30212500Y-14810175D01*
X30212500Y-14780175D02*
X30182500Y-14810175D01*
X30182500Y-15580175D02*
X30212500Y-15610175D01*
X30212500Y-15580175D02*
X30182500Y-15610175D01*
X30182500Y-16380175D02*
X30212500Y-16410175D01*
X30212500Y-16380175D02*
X30182500Y-16410175D01*
X30182500Y-17180175D02*
X30212500Y-17210175D01*
X30212500Y-17180175D02*
X30182500Y-17210175D01*
X30182500Y-18780175D02*
X30212500Y-18810175D01*
X30212500Y-18780175D02*
X30182500Y-18810175D01*
X30182500Y-19580175D02*
X30212500Y-19610175D01*
X30212500Y-19580175D02*
X30182500Y-19610175D01*
X30266950Y-8683200D02*
X30296950Y-8713200D01*
X30296950Y-8683200D02*
X30266950Y-8713200D01*
X30276800Y-9393200D02*
X30306800Y-9423200D01*
X30306800Y-9393200D02*
X30276800Y-9423200D01*
X30402924Y-9450200D02*
X30432924Y-9480200D01*
X30432924Y-9450200D02*
X30402924Y-9480200D01*
X30467300Y-11285500D02*
X30497300Y-11315500D01*
X30497300Y-11285500D02*
X30467300Y-11315500D01*
X30470150Y-8251400D02*
X30500150Y-8281400D01*
X30500150Y-8251400D02*
X30470150Y-8281400D01*
X30480000Y-13038100D02*
X30510000Y-13068100D01*
X30510000Y-13038100D02*
X30480000Y-13068100D01*
X30492700Y-15070100D02*
X30522700Y-15100100D01*
X30522700Y-15070100D02*
X30492700Y-15100100D01*
X30492700Y-16886200D02*
X30522700Y-16916200D01*
X30522700Y-16886200D02*
X30492700Y-16916200D01*
X30505400Y-8478800D02*
X30535400Y-8508800D01*
X30535400Y-8478800D02*
X30505400Y-8508800D01*
X30530800Y-9253500D02*
X30560800Y-9283500D01*
X30560800Y-9253500D02*
X30530800Y-9283500D01*
X30543500Y-9393200D02*
X30573500Y-9423200D01*
X30573500Y-9393200D02*
X30543500Y-9423200D01*
X30604000Y-9875800D02*
X30634000Y-9905800D01*
X30634000Y-9875800D02*
X30604000Y-9905800D01*
X30607000Y-11730000D02*
X30637000Y-11760000D01*
X30637000Y-11730000D02*
X30607000Y-11760000D01*
X30707100Y-9527600D02*
X30737100Y-9557600D01*
X30737100Y-9527600D02*
X30707100Y-9557600D01*
X30707100Y-9607600D02*
X30737100Y-9637600D01*
X30737100Y-9607600D02*
X30707100Y-9637600D01*
X30721300Y-9139200D02*
X30751300Y-9169200D01*
X30751300Y-9139200D02*
X30721300Y-9169200D01*
X30721300Y-10129800D02*
X30751300Y-10159800D01*
X30751300Y-10129800D02*
X30721300Y-10159800D01*
X30734000Y-10383800D02*
X30764000Y-10413800D01*
X30764000Y-10383800D02*
X30734000Y-10413800D01*
X30746700Y-8669300D02*
X30776700Y-8699300D01*
X30776700Y-8669300D02*
X30746700Y-8699300D01*
X30759400Y-8957500D02*
X30789400Y-8987500D01*
X30789400Y-8957500D02*
X30759400Y-8987500D01*
X30766894Y-8872527D02*
X30796894Y-8902527D01*
X30796894Y-8872527D02*
X30766894Y-8902527D01*
X30772100Y-9075700D02*
X30802100Y-9105700D01*
X30802100Y-9075700D02*
X30772100Y-9105700D01*
X30810200Y-8605800D02*
X30840200Y-8635800D01*
X30840200Y-8605800D02*
X30810200Y-8635800D01*
X30861000Y-8161300D02*
X30891000Y-8191300D01*
X30891000Y-8161300D02*
X30861000Y-8191300D01*
X30897588Y-9089912D02*
X30927588Y-9119912D01*
X30927588Y-9089912D02*
X30897588Y-9119912D01*
X30897600Y-8899400D02*
X30927600Y-8929400D01*
X30927600Y-8899400D02*
X30897600Y-8929400D01*
X30906962Y-8585238D02*
X30936962Y-8615238D01*
X30936962Y-8585238D02*
X30906962Y-8615238D01*
X30937200Y-9647200D02*
X30967200Y-9677200D01*
X30967200Y-9647200D02*
X30937200Y-9677200D01*
X30982500Y-11580175D02*
X31012500Y-11610175D01*
X31012500Y-11580175D02*
X30982500Y-11610175D01*
X30982500Y-13180175D02*
X31012500Y-13210175D01*
X31012500Y-13180175D02*
X30982500Y-13210175D01*
X30982500Y-13980175D02*
X31012500Y-14010175D01*
X31012500Y-13980175D02*
X30982500Y-14010175D01*
X30982500Y-14780175D02*
X31012500Y-14810175D01*
X31012500Y-14780175D02*
X30982500Y-14810175D01*
X30982500Y-15580175D02*
X31012500Y-15610175D01*
X31012500Y-15580175D02*
X30982500Y-15610175D01*
X30982500Y-17980175D02*
X31012500Y-18010175D01*
X31012500Y-17980175D02*
X30982500Y-18010175D01*
X30982500Y-18780175D02*
X31012500Y-18810175D01*
X31012500Y-18780175D02*
X30982500Y-18810175D01*
X30982500Y-19580175D02*
X31012500Y-19610175D01*
X31012500Y-19580175D02*
X30982500Y-19610175D01*
X31000700Y-8250200D02*
X31030700Y-8280200D01*
X31030700Y-8250200D02*
X31000700Y-8280200D01*
X31038150Y-8703600D02*
X31068150Y-8733600D01*
X31068150Y-8703600D02*
X31038150Y-8733600D01*
X31088150Y-8783600D02*
X31118150Y-8813600D01*
X31118150Y-8783600D02*
X31088150Y-8813600D01*
X31127700Y-7869200D02*
X31157700Y-7899200D01*
X31157700Y-7869200D02*
X31127700Y-7899200D01*
X31153150Y-8834400D02*
X31183150Y-8864400D01*
X31183150Y-8834400D02*
X31153150Y-8864400D01*
X31153150Y-9875800D02*
X31183150Y-9905800D01*
X31183150Y-9875800D02*
X31153150Y-9905800D01*
X31218150Y-8605800D02*
X31248150Y-8635800D01*
X31248150Y-8605800D02*
X31218150Y-8635800D01*
X31254700Y-10142500D02*
X31284700Y-10172500D01*
X31284700Y-10142500D02*
X31254700Y-10172500D01*
X31305500Y-8199400D02*
X31335500Y-8229400D01*
X31335500Y-8199400D02*
X31305500Y-8229400D01*
X31521400Y-9939300D02*
X31551400Y-9969300D01*
X31551400Y-9939300D02*
X31521400Y-9969300D01*
X31534100Y-8085100D02*
X31564100Y-8115100D01*
X31564100Y-8085100D02*
X31534100Y-8115100D01*
X31559500Y-8555000D02*
X31589500Y-8585000D01*
X31589500Y-8555000D02*
X31559500Y-8585000D01*
X31572200Y-8717076D02*
X31602200Y-8747076D01*
X31602200Y-8717076D02*
X31572200Y-8747076D01*
X31610300Y-9088400D02*
X31640300Y-9118400D01*
X31640300Y-9088400D02*
X31610300Y-9118400D01*
X31661100Y-8847100D02*
X31691100Y-8877100D01*
X31691100Y-8847100D02*
X31661100Y-8877100D01*
X31689350Y-9419800D02*
X31719350Y-9449800D01*
X31719350Y-9419800D02*
X31689350Y-9449800D01*
X31724600Y-8326400D02*
X31754600Y-8356400D01*
X31754600Y-8326400D02*
X31724600Y-8356400D01*
X31737300Y-8529600D02*
X31767300Y-8559600D01*
X31767300Y-8529600D02*
X31737300Y-8559600D01*
X31775400Y-10053600D02*
X31805400Y-10083600D01*
X31805400Y-10053600D02*
X31775400Y-10083600D01*
X31775400Y-11958600D02*
X31805400Y-11988600D01*
X31805400Y-11958600D02*
X31775400Y-11988600D01*
X31775400Y-13863600D02*
X31805400Y-13893600D01*
X31805400Y-13863600D02*
X31775400Y-13893600D01*
X31775400Y-17673600D02*
X31805400Y-17703600D01*
X31805400Y-17673600D02*
X31775400Y-17703600D01*
X31782500Y-9180175D02*
X31812500Y-9210175D01*
X31812500Y-9180175D02*
X31782500Y-9210175D01*
X31782500Y-11580175D02*
X31812500Y-11610175D01*
X31812500Y-11580175D02*
X31782500Y-11610175D01*
X31782500Y-13180175D02*
X31812500Y-13210175D01*
X31812500Y-13180175D02*
X31782500Y-13210175D01*
X31782500Y-15580175D02*
X31812500Y-15610175D01*
X31812500Y-15580175D02*
X31782500Y-15610175D01*
X31782500Y-16380175D02*
X31812500Y-16410175D01*
X31812500Y-16380175D02*
X31782500Y-16410175D01*
X31782500Y-17180175D02*
X31812500Y-17210175D01*
X31812500Y-17180175D02*
X31782500Y-17210175D01*
X31782500Y-18780175D02*
X31812500Y-18810175D01*
X31812500Y-18780175D02*
X31782500Y-18810175D01*
X31782500Y-19580175D02*
X31812500Y-19610175D01*
X31812500Y-19580175D02*
X31782500Y-19610175D01*
X31800800Y-15794000D02*
X31830800Y-15824000D01*
X31830800Y-15794000D02*
X31800800Y-15824000D01*
X31851600Y-9405900D02*
X31881600Y-9435900D01*
X31881600Y-9405900D02*
X31851600Y-9435900D01*
X31877000Y-8986800D02*
X31907000Y-9016800D01*
X31907000Y-8986800D02*
X31877000Y-9016800D01*
X31905600Y-8475600D02*
X31935600Y-8505600D01*
X31935600Y-8475600D02*
X31905600Y-8505600D01*
X32092900Y-9774200D02*
X32122900Y-9804200D01*
X32122900Y-9774200D02*
X32092900Y-9804200D01*
X32118300Y-9532900D02*
X32148300Y-9562900D01*
X32148300Y-9532900D02*
X32118300Y-9562900D01*
X32582500Y-11580175D02*
X32612500Y-11610175D01*
X32612500Y-11580175D02*
X32582500Y-11610175D01*
X32582500Y-13180175D02*
X32612500Y-13210175D01*
X32612500Y-13180175D02*
X32582500Y-13210175D01*
X32582500Y-13980175D02*
X32612500Y-14010175D01*
X32612500Y-13980175D02*
X32582500Y-14010175D01*
X32582500Y-15580175D02*
X32612500Y-15610175D01*
X32612500Y-15580175D02*
X32582500Y-15610175D01*
X32582500Y-17180175D02*
X32612500Y-17210175D01*
X32612500Y-17180175D02*
X32582500Y-17210175D01*
X32582500Y-17980175D02*
X32612500Y-18010175D01*
X32612500Y-17980175D02*
X32582500Y-18010175D01*
X32582500Y-18780175D02*
X32612500Y-18810175D01*
X32612500Y-18780175D02*
X32582500Y-18810175D01*
X32582500Y-19580175D02*
X32612500Y-19610175D01*
X32612500Y-19580175D02*
X32582500Y-19610175D01*
X33322232Y-9035032D02*
X33352232Y-9065032D01*
X33352232Y-9035032D02*
X33322232Y-9065032D01*
X33382500Y-8380175D02*
X33412500Y-8410175D01*
X33412500Y-8380175D02*
X33382500Y-8410175D01*
X33382500Y-11580175D02*
X33412500Y-11610175D01*
X33412500Y-11580175D02*
X33382500Y-11610175D01*
X33382500Y-13180175D02*
X33412500Y-13210175D01*
X33412500Y-13180175D02*
X33382500Y-13210175D01*
X33382500Y-15580175D02*
X33412500Y-15610175D01*
X33412500Y-15580175D02*
X33382500Y-15610175D01*
X33382500Y-17180175D02*
X33412500Y-17210175D01*
X33412500Y-17180175D02*
X33382500Y-17210175D01*
X33382500Y-18780175D02*
X33412500Y-18810175D01*
X33412500Y-18780175D02*
X33382500Y-18810175D01*
X33382500Y-19580175D02*
X33412500Y-19610175D01*
X33412500Y-19580175D02*
X33382500Y-19610175D01*
X33558112Y-9016912D02*
X33588112Y-9046912D01*
X33588112Y-9016912D02*
X33558112Y-9046912D01*
X33680400Y-10053600D02*
X33710400Y-10083600D01*
X33710400Y-10053600D02*
X33680400Y-10083600D01*
X33680400Y-11958600D02*
X33710400Y-11988600D01*
X33710400Y-11958600D02*
X33680400Y-11988600D01*
X33680400Y-13863600D02*
X33710400Y-13893600D01*
X33710400Y-13863600D02*
X33680400Y-13893600D01*
X33680400Y-15794000D02*
X33710400Y-15824000D01*
X33710400Y-15794000D02*
X33680400Y-15824000D01*
X33680400Y-17673600D02*
X33710400Y-17703600D01*
X33710400Y-17673600D02*
X33680400Y-17703600D01*
X34182500Y-8380175D02*
X34212500Y-8410175D01*
X34212500Y-8380175D02*
X34182500Y-8410175D01*
X34182500Y-9180175D02*
X34212500Y-9210175D01*
X34212500Y-9180175D02*
X34182500Y-9210175D01*
X34182500Y-17980175D02*
X34212500Y-18010175D01*
X34212500Y-17980175D02*
X34182500Y-18010175D01*
X34182500Y-18780175D02*
X34212500Y-18810175D01*
X34212500Y-18780175D02*
X34182500Y-18810175D01*
X34182500Y-19580175D02*
X34212500Y-19610175D01*
X34212500Y-19580175D02*
X34182500Y-19610175D01*
X34658300Y-8567700D02*
X34688300Y-8597700D01*
X34688300Y-8567700D02*
X34658300Y-8597700D01*
X34685000Y-9735000D02*
X34715000Y-9765000D01*
X34715000Y-9735000D02*
X34685000Y-9765000D01*
X34785000Y-9835000D02*
X34815000Y-9865000D01*
X34815000Y-9835000D02*
X34785000Y-9865000D01*
X34835000Y-8735000D02*
X34865000Y-8765000D01*
X34865000Y-8735000D02*
X34835000Y-8765000D01*
X34982500Y-11580175D02*
X35012500Y-11610175D01*
X35012500Y-11580175D02*
X34982500Y-11610175D01*
X34982500Y-12380175D02*
X35012500Y-12410175D01*
X35012500Y-12380175D02*
X34982500Y-12410175D01*
X34982500Y-13180175D02*
X35012500Y-13210175D01*
X35012500Y-13180175D02*
X34982500Y-13210175D01*
X34982500Y-13980175D02*
X35012500Y-14010175D01*
X35012500Y-13980175D02*
X34982500Y-14010175D01*
X34982500Y-15580175D02*
X35012500Y-15610175D01*
X35012500Y-15580175D02*
X34982500Y-15610175D01*
X34982500Y-17180175D02*
X35012500Y-17210175D01*
X35012500Y-17180175D02*
X34982500Y-17210175D01*
X34982500Y-17980175D02*
X35012500Y-18010175D01*
X35012500Y-17980175D02*
X34982500Y-18010175D01*
X34982500Y-18780175D02*
X35012500Y-18810175D01*
X35012500Y-18780175D02*
X34982500Y-18810175D01*
X34982500Y-19580175D02*
X35012500Y-19610175D01*
X35012500Y-19580175D02*
X34982500Y-19610175D01*
X34985000Y-8835000D02*
X35015000Y-8865000D01*
X35015000Y-8835000D02*
X34985000Y-8865000D01*
X35185000Y-9835000D02*
X35215000Y-9865000D01*
X35215000Y-9835000D02*
X35185000Y-9865000D01*
X35214800Y-8824200D02*
X35244800Y-8854200D01*
X35244800Y-8824200D02*
X35214800Y-8854200D01*
X35214800Y-9230600D02*
X35244800Y-9260600D01*
X35244800Y-9230600D02*
X35214800Y-9260600D01*
X35285000Y-9735000D02*
X35315000Y-9765000D01*
X35315000Y-9735000D02*
X35285000Y-9765000D01*
X35418000Y-9027400D02*
X35448000Y-9057400D01*
X35448000Y-9027400D02*
X35418000Y-9057400D01*
X35585400Y-15794000D02*
X35615400Y-15824000D01*
X35615400Y-15794000D02*
X35585400Y-15824000D01*
X35585400Y-17673600D02*
X35615400Y-17703600D01*
X35615400Y-17673600D02*
X35585400Y-17703600D01*
X35610800Y-10053600D02*
X35640800Y-10083600D01*
X35640800Y-10053600D02*
X35610800Y-10083600D01*
X35610800Y-11958600D02*
X35640800Y-11988600D01*
X35640800Y-11958600D02*
X35610800Y-11988600D01*
X35610800Y-13863600D02*
X35640800Y-13893600D01*
X35640800Y-13863600D02*
X35610800Y-13893600D01*
X35782500Y-8380175D02*
X35812500Y-8410175D01*
X35812500Y-8380175D02*
X35782500Y-8410175D01*
X35782500Y-9180175D02*
X35812500Y-9210175D01*
X35812500Y-9180175D02*
X35782500Y-9210175D01*
X35782500Y-9980175D02*
X35812500Y-10010175D01*
X35812500Y-9980175D02*
X35782500Y-10010175D01*
X35782500Y-10780175D02*
X35812500Y-10810175D01*
X35812500Y-10780175D02*
X35782500Y-10810175D01*
X35782500Y-11580175D02*
X35812500Y-11610175D01*
X35812500Y-11580175D02*
X35782500Y-11610175D01*
X35782500Y-13180175D02*
X35812500Y-13210175D01*
X35812500Y-13180175D02*
X35782500Y-13210175D01*
X35782500Y-14780175D02*
X35812500Y-14810175D01*
X35812500Y-14780175D02*
X35782500Y-14810175D01*
X35782500Y-15580175D02*
X35812500Y-15610175D01*
X35812500Y-15580175D02*
X35782500Y-15610175D01*
X35782500Y-16380175D02*
X35812500Y-16410175D01*
X35812500Y-16380175D02*
X35782500Y-16410175D01*
X35782500Y-17180175D02*
X35812500Y-17210175D01*
X35812500Y-17180175D02*
X35782500Y-17210175D01*
X35782500Y-18780175D02*
X35812500Y-18810175D01*
X35812500Y-18780175D02*
X35782500Y-18810175D01*
X35782500Y-19580175D02*
X35812500Y-19610175D01*
X35812500Y-19580175D02*
X35782500Y-19610175D01*
X34559000Y-7950000D02*
G75*
G02*
X34499000Y-7950000I-30000J0D01*
G01*
X34499000Y-7950000D02*
G75*
G02*
X34559000Y-7950000I30000J0D01*
G01*
X34559000Y-7990000D02*
X34559000Y-7910000D01*
X34499000Y-7910000D02*
G75*
G02*
X34559000Y-7910000I30000J0D01*
G01*
X34499000Y-7910000D02*
X34499000Y-7990000D01*
X34499000Y-7990000D02*
G75*
G03*
X34559000Y-7990000I30000J0D01*
G01*
X34559000Y-8368000D02*
G75*
G02*
X34499000Y-8368000I-30000J0D01*
G01*
X34499000Y-8368000D02*
G75*
G02*
X34559000Y-8368000I30000J0D01*
G01*
X34559000Y-8423000D02*
X34559000Y-8313000D01*
X34499000Y-8313000D02*
G75*
G02*
X34559000Y-8313000I30000J0D01*
G01*
X34499000Y-8313000D02*
X34499000Y-8423000D01*
X34499000Y-8423000D02*
G75*
G03*
X34559000Y-8423000I30000J0D01*
G01*
X35423000Y-7950000D02*
G75*
G02*
X35363000Y-7950000I-30000J0D01*
G01*
X35363000Y-7950000D02*
G75*
G02*
X35423000Y-7950000I30000J0D01*
G01*
X35423000Y-7990000D02*
X35423000Y-7910000D01*
X35363000Y-7910000D02*
G75*
G02*
X35423000Y-7910000I30000J0D01*
G01*
X35363000Y-7910000D02*
X35363000Y-7990000D01*
X35363000Y-7990000D02*
G75*
G03*
X35423000Y-7990000I30000J0D01*
G01*
X35423000Y-8368000D02*
G75*
G02*
X35363000Y-8368000I-30000J0D01*
G01*
X35363000Y-8368000D02*
G75*
G02*
X35423000Y-8368000I30000J0D01*
G01*
X35423000Y-8423000D02*
X35423000Y-8313000D01*
X35363000Y-8313000D02*
G75*
G02*
X35423000Y-8313000I30000J0D01*
G01*
X35363000Y-8313000D02*
X35363000Y-8423000D01*
X35363000Y-8423000D02*
G75*
G03*
X35423000Y-8423000I30000J0D01*
G01*
X29824750Y-8542200D02*
X29824750Y-8622200D01*
X29784750Y-8582200D02*
X29864750Y-8582200D01*
X29824750Y-9030200D02*
X29824750Y-9110200D01*
X29784750Y-9070200D02*
X29864750Y-9070200D01*
X33650520Y-8271620D02*
X33650520Y-8207980D01*
X33586880Y-8207980D01*
X33586880Y-8271620D01*
X33650520Y-8271620D01*
X33904520Y-8271620D02*
X33904520Y-8207980D01*
X33840880Y-8207980D01*
X33840880Y-8271620D01*
X33904520Y-8271620D01*
X8840400Y-8636700D02*
X8890400Y-8586700D01*
X8840400Y-8536700D01*
X8790400Y-8586700D01*
X8840400Y-8636700D01*
X8840400Y-8886700D02*
X8890400Y-8836700D01*
X8840400Y-8786700D01*
X8790400Y-8836700D01*
X8840400Y-8886700D01*
X8840400Y-9136700D02*
X8890400Y-9086700D01*
X8840400Y-9036700D01*
X8790400Y-9086700D01*
X8840400Y-9136700D01*
X10290400Y-8636700D02*
X10340400Y-8586700D01*
X10290400Y-8536700D01*
X10240400Y-8586700D01*
X10290400Y-8636700D01*
X10290400Y-9136700D02*
X10340400Y-9086700D01*
X10290400Y-9036700D01*
X10240400Y-9086700D01*
X10290400Y-9136700D01*
X25238200Y-9032100D02*
X25288200Y-8982100D01*
X25238200Y-8932100D01*
X25188200Y-8982100D01*
X25238200Y-9032100D01*
X25492200Y-9032100D02*
X25542200Y-8982100D01*
X25492200Y-8932100D01*
X25442200Y-8982100D01*
X25492200Y-9032100D01*
X25746200Y-9032100D02*
X25796200Y-8982100D01*
X25746200Y-8932100D01*
X25696200Y-8982100D01*
X25746200Y-9032100D01*
X26000200Y-9032100D02*
X26050200Y-8982100D01*
X26000200Y-8932100D01*
X25950200Y-8982100D01*
X26000200Y-9032100D01*
X26584900Y-9032100D02*
X26634900Y-8982100D01*
X26584900Y-8932100D01*
X26534900Y-8982100D01*
X26584900Y-9032100D01*
X26838900Y-9032100D02*
X26888900Y-8982100D01*
X26838900Y-8932100D01*
X26788900Y-8982100D01*
X26838900Y-9032100D01*
X27092900Y-9032100D02*
X27142900Y-8982100D01*
X27092900Y-8932100D01*
X27042900Y-8982100D01*
X27092900Y-9032100D01*
X27677100Y-9032100D02*
X27727100Y-8982100D01*
X27677100Y-8932100D01*
X27627100Y-8982100D01*
X27677100Y-9032100D01*
X27931100Y-9032100D02*
X27981100Y-8982100D01*
X27931100Y-8932100D01*
X27881100Y-8982100D01*
X27931100Y-9032100D01*
X28185100Y-9032100D02*
X28235100Y-8982100D01*
X28185100Y-8932100D01*
X28135100Y-8982100D01*
X28185100Y-9032100D01*
D13*
X9515400Y-8201700D02*
X9665400Y-8351700D01*
X9665400Y-8201700D02*
X9515400Y-8351700D01*
X9665400Y-8276700D02*
G75*
G02*
X9515400Y-8276700I-75000J0D01*
G01*
X9515400Y-8276700D02*
G75*
G02*
X9665400Y-8276700I75000J0D01*
G01*
D12*
X9525400Y-8351700D02*
X9655400Y-8351700D01*
X9655400Y-8201700D02*
G75*
G02*
X9655400Y-8351700I0J-75000D01*
G01*
X9655400Y-8201700D02*
X9525400Y-8201700D01*
X9525400Y-8201700D02*
G75*
G03*
X9525400Y-8351700I0J-75000D01*
G01*
D13*
X9515400Y-9321700D02*
X9665400Y-9471700D01*
X9665400Y-9321700D02*
X9515400Y-9471700D01*
X9665400Y-9396700D02*
G75*
G02*
X9515400Y-9396700I-75000J0D01*
G01*
X9515400Y-9396700D02*
G75*
G02*
X9665400Y-9396700I75000J0D01*
G01*
D12*
X9525400Y-9471700D02*
X9655400Y-9471700D01*
X9655400Y-9321700D02*
G75*
G02*
X9655400Y-9471700I0J-75000D01*
G01*
X9655400Y-9321700D02*
X9525400Y-9321700D01*
X9525400Y-9321700D02*
G75*
G03*
X9525400Y-9471700I0J-75000D01*
G01*
D11*
X7258277Y-20313984D02*
X7258277Y-20113984D01*
X7258277Y-20113984D02*
X7305896Y-20113984D01*
X7305896Y-20113984D02*
X7334467Y-20123508D01*
X7334467Y-20123508D02*
X7353515Y-20142555D01*
X7353515Y-20142555D02*
X7363039Y-20161603D01*
X7363039Y-20161603D02*
X7372562Y-20199698D01*
X7372562Y-20199698D02*
X7372562Y-20228270D01*
X7372562Y-20228270D02*
X7363039Y-20266365D01*
X7363039Y-20266365D02*
X7353515Y-20285412D01*
X7353515Y-20285412D02*
X7334467Y-20304460D01*
X7334467Y-20304460D02*
X7305896Y-20313984D01*
X7305896Y-20313984D02*
X7258277Y-20313984D01*
X7458277Y-20313984D02*
X7458277Y-20180650D01*
X7458277Y-20218746D02*
X7467801Y-20199698D01*
X7467801Y-20199698D02*
X7477324Y-20190174D01*
X7477324Y-20190174D02*
X7496372Y-20180650D01*
X7496372Y-20180650D02*
X7515420Y-20180650D01*
X7582086Y-20313984D02*
X7582086Y-20180650D01*
X7582086Y-20113984D02*
X7572562Y-20123508D01*
X7572562Y-20123508D02*
X7582086Y-20133031D01*
X7582086Y-20133031D02*
X7591610Y-20123508D01*
X7591610Y-20123508D02*
X7582086Y-20113984D01*
X7582086Y-20113984D02*
X7582086Y-20133031D01*
X7705896Y-20313984D02*
X7686848Y-20304460D01*
X7686848Y-20304460D02*
X7677324Y-20285412D01*
X7677324Y-20285412D02*
X7677324Y-20113984D01*
X7810658Y-20313984D02*
X7791610Y-20304460D01*
X7791610Y-20304460D02*
X7782086Y-20285412D01*
X7782086Y-20285412D02*
X7782086Y-20113984D01*
X8039229Y-20313984D02*
X8039229Y-20113984D01*
X8039229Y-20113984D02*
X8105896Y-20256841D01*
X8105896Y-20256841D02*
X8172562Y-20113984D01*
X8172562Y-20113984D02*
X8172562Y-20313984D01*
X8353515Y-20313984D02*
X8353515Y-20209222D01*
X8353515Y-20209222D02*
X8343991Y-20190174D01*
X8343991Y-20190174D02*
X8324943Y-20180650D01*
X8324943Y-20180650D02*
X8286848Y-20180650D01*
X8286848Y-20180650D02*
X8267801Y-20190174D01*
X8353515Y-20304460D02*
X8334467Y-20313984D01*
X8334467Y-20313984D02*
X8286848Y-20313984D01*
X8286848Y-20313984D02*
X8267801Y-20304460D01*
X8267801Y-20304460D02*
X8258277Y-20285412D01*
X8258277Y-20285412D02*
X8258277Y-20266365D01*
X8258277Y-20266365D02*
X8267801Y-20247317D01*
X8267801Y-20247317D02*
X8286848Y-20237793D01*
X8286848Y-20237793D02*
X8334467Y-20237793D01*
X8334467Y-20237793D02*
X8353515Y-20228270D01*
X8448753Y-20180650D02*
X8448753Y-20380650D01*
X8448753Y-20190174D02*
X8467801Y-20180650D01*
X8467801Y-20180650D02*
X8505896Y-20180650D01*
X8505896Y-20180650D02*
X8524944Y-20190174D01*
X8524944Y-20190174D02*
X8534467Y-20199698D01*
X8534467Y-20199698D02*
X8543991Y-20218746D01*
X8543991Y-20218746D02*
X8543991Y-20275889D01*
X8543991Y-20275889D02*
X8534467Y-20294936D01*
X8534467Y-20294936D02*
X8524944Y-20304460D01*
X8524944Y-20304460D02*
X8505896Y-20313984D01*
X8505896Y-20313984D02*
X8467801Y-20313984D01*
X8467801Y-20313984D02*
X8448753Y-20304460D01*
X8629705Y-20294936D02*
X8639229Y-20304460D01*
X8639229Y-20304460D02*
X8629705Y-20313984D01*
X8629705Y-20313984D02*
X8620182Y-20304460D01*
X8620182Y-20304460D02*
X8629705Y-20294936D01*
X8629705Y-20294936D02*
X8629705Y-20313984D01*
X8629705Y-20190174D02*
X8639229Y-20199698D01*
X8639229Y-20199698D02*
X8629705Y-20209222D01*
X8629705Y-20209222D02*
X8620182Y-20199698D01*
X8620182Y-20199698D02*
X8629705Y-20190174D01*
X8629705Y-20190174D02*
X8629705Y-20209222D01*
D12*
X6967500Y-20627500D02*
X6997500Y-20657500D01*
X6997500Y-20627500D02*
X6967500Y-20657500D01*
D11*
X7296372Y-20533984D02*
X7315420Y-20533984D01*
X7315420Y-20533984D02*
X7334467Y-20543508D01*
X7334467Y-20543508D02*
X7343991Y-20553031D01*
X7343991Y-20553031D02*
X7353515Y-20572079D01*
X7353515Y-20572079D02*
X7363039Y-20610174D01*
X7363039Y-20610174D02*
X7363039Y-20657793D01*
X7363039Y-20657793D02*
X7353515Y-20695889D01*
X7353515Y-20695889D02*
X7343991Y-20714936D01*
X7343991Y-20714936D02*
X7334467Y-20724460D01*
X7334467Y-20724460D02*
X7315420Y-20733984D01*
X7315420Y-20733984D02*
X7296372Y-20733984D01*
X7296372Y-20733984D02*
X7277324Y-20724460D01*
X7277324Y-20724460D02*
X7267801Y-20714936D01*
X7267801Y-20714936D02*
X7258277Y-20695889D01*
X7258277Y-20695889D02*
X7248753Y-20657793D01*
X7248753Y-20657793D02*
X7248753Y-20610174D01*
X7248753Y-20610174D02*
X7258277Y-20572079D01*
X7258277Y-20572079D02*
X7267801Y-20553031D01*
X7267801Y-20553031D02*
X7277324Y-20543508D01*
X7277324Y-20543508D02*
X7296372Y-20533984D01*
X7448753Y-20714936D02*
X7458277Y-20724460D01*
X7458277Y-20724460D02*
X7448753Y-20733984D01*
X7448753Y-20733984D02*
X7439229Y-20724460D01*
X7439229Y-20724460D02*
X7448753Y-20714936D01*
X7448753Y-20714936D02*
X7448753Y-20733984D01*
X7524943Y-20533984D02*
X7648753Y-20533984D01*
X7648753Y-20533984D02*
X7582086Y-20610174D01*
X7582086Y-20610174D02*
X7610658Y-20610174D01*
X7610658Y-20610174D02*
X7629705Y-20619698D01*
X7629705Y-20619698D02*
X7639229Y-20629222D01*
X7639229Y-20629222D02*
X7648753Y-20648270D01*
X7648753Y-20648270D02*
X7648753Y-20695889D01*
X7648753Y-20695889D02*
X7639229Y-20714936D01*
X7639229Y-20714936D02*
X7629705Y-20724460D01*
X7629705Y-20724460D02*
X7610658Y-20733984D01*
X7610658Y-20733984D02*
X7553515Y-20733984D01*
X7553515Y-20733984D02*
X7534467Y-20724460D01*
X7534467Y-20724460D02*
X7524943Y-20714936D01*
X7772562Y-20533984D02*
X7791610Y-20533984D01*
X7791610Y-20533984D02*
X7810658Y-20543508D01*
X7810658Y-20543508D02*
X7820182Y-20553031D01*
X7820182Y-20553031D02*
X7829705Y-20572079D01*
X7829705Y-20572079D02*
X7839229Y-20610174D01*
X7839229Y-20610174D02*
X7839229Y-20657793D01*
X7839229Y-20657793D02*
X7829705Y-20695889D01*
X7829705Y-20695889D02*
X7820182Y-20714936D01*
X7820182Y-20714936D02*
X7810658Y-20724460D01*
X7810658Y-20724460D02*
X7791610Y-20733984D01*
X7791610Y-20733984D02*
X7772562Y-20733984D01*
X7772562Y-20733984D02*
X7753515Y-20724460D01*
X7753515Y-20724460D02*
X7743991Y-20714936D01*
X7743991Y-20714936D02*
X7734467Y-20695889D01*
X7734467Y-20695889D02*
X7724943Y-20657793D01*
X7724943Y-20657793D02*
X7724943Y-20610174D01*
X7724943Y-20610174D02*
X7734467Y-20572079D01*
X7734467Y-20572079D02*
X7743991Y-20553031D01*
X7743991Y-20553031D02*
X7753515Y-20543508D01*
X7753515Y-20543508D02*
X7772562Y-20533984D01*
X7963039Y-20533984D02*
X7982086Y-20533984D01*
X7982086Y-20533984D02*
X8001134Y-20543508D01*
X8001134Y-20543508D02*
X8010658Y-20553031D01*
X8010658Y-20553031D02*
X8020182Y-20572079D01*
X8020182Y-20572079D02*
X8029705Y-20610174D01*
X8029705Y-20610174D02*
X8029705Y-20657793D01*
X8029705Y-20657793D02*
X8020182Y-20695889D01*
X8020182Y-20695889D02*
X8010658Y-20714936D01*
X8010658Y-20714936D02*
X8001134Y-20724460D01*
X8001134Y-20724460D02*
X7982086Y-20733984D01*
X7982086Y-20733984D02*
X7963039Y-20733984D01*
X7963039Y-20733984D02*
X7943991Y-20724460D01*
X7943991Y-20724460D02*
X7934467Y-20714936D01*
X7934467Y-20714936D02*
X7924943Y-20695889D01*
X7924943Y-20695889D02*
X7915420Y-20657793D01*
X7915420Y-20657793D02*
X7915420Y-20610174D01*
X7915420Y-20610174D02*
X7924943Y-20572079D01*
X7924943Y-20572079D02*
X7934467Y-20553031D01*
X7934467Y-20553031D02*
X7943991Y-20543508D01*
X7943991Y-20543508D02*
X7963039Y-20533984D01*
X8115420Y-20733984D02*
X8115420Y-20600650D01*
X8115420Y-20619698D02*
X8124943Y-20610174D01*
X8124943Y-20610174D02*
X8143991Y-20600650D01*
X8143991Y-20600650D02*
X8172563Y-20600650D01*
X8172563Y-20600650D02*
X8191610Y-20610174D01*
X8191610Y-20610174D02*
X8201134Y-20629222D01*
X8201134Y-20629222D02*
X8201134Y-20733984D01*
X8201134Y-20629222D02*
X8210658Y-20610174D01*
X8210658Y-20610174D02*
X8229705Y-20600650D01*
X8229705Y-20600650D02*
X8258277Y-20600650D01*
X8258277Y-20600650D02*
X8277324Y-20610174D01*
X8277324Y-20610174D02*
X8286848Y-20629222D01*
X8286848Y-20629222D02*
X8286848Y-20733984D01*
X8382086Y-20733984D02*
X8382086Y-20600650D01*
X8382086Y-20619698D02*
X8391610Y-20610174D01*
X8391610Y-20610174D02*
X8410658Y-20600650D01*
X8410658Y-20600650D02*
X8439229Y-20600650D01*
X8439229Y-20600650D02*
X8458277Y-20610174D01*
X8458277Y-20610174D02*
X8467801Y-20629222D01*
X8467801Y-20629222D02*
X8467801Y-20733984D01*
X8467801Y-20629222D02*
X8477325Y-20610174D01*
X8477325Y-20610174D02*
X8496372Y-20600650D01*
X8496372Y-20600650D02*
X8524944Y-20600650D01*
X8524944Y-20600650D02*
X8543991Y-20610174D01*
X8543991Y-20610174D02*
X8553515Y-20629222D01*
X8553515Y-20629222D02*
X8553515Y-20733984D01*
X8943991Y-20524460D02*
X8772563Y-20781603D01*
X9201134Y-20533984D02*
X9220182Y-20533984D01*
X9220182Y-20533984D02*
X9239229Y-20543508D01*
X9239229Y-20543508D02*
X9248753Y-20553031D01*
X9248753Y-20553031D02*
X9258277Y-20572079D01*
X9258277Y-20572079D02*
X9267801Y-20610174D01*
X9267801Y-20610174D02*
X9267801Y-20657793D01*
X9267801Y-20657793D02*
X9258277Y-20695889D01*
X9258277Y-20695889D02*
X9248753Y-20714936D01*
X9248753Y-20714936D02*
X9239229Y-20724460D01*
X9239229Y-20724460D02*
X9220182Y-20733984D01*
X9220182Y-20733984D02*
X9201134Y-20733984D01*
X9201134Y-20733984D02*
X9182087Y-20724460D01*
X9182087Y-20724460D02*
X9172563Y-20714936D01*
X9172563Y-20714936D02*
X9163039Y-20695889D01*
X9163039Y-20695889D02*
X9153515Y-20657793D01*
X9153515Y-20657793D02*
X9153515Y-20610174D01*
X9153515Y-20610174D02*
X9163039Y-20572079D01*
X9163039Y-20572079D02*
X9172563Y-20553031D01*
X9172563Y-20553031D02*
X9182087Y-20543508D01*
X9182087Y-20543508D02*
X9201134Y-20533984D01*
X9353515Y-20714936D02*
X9363039Y-20724460D01*
X9363039Y-20724460D02*
X9353515Y-20733984D01*
X9353515Y-20733984D02*
X9343991Y-20724460D01*
X9343991Y-20724460D02*
X9353515Y-20714936D01*
X9353515Y-20714936D02*
X9353515Y-20733984D01*
X9486848Y-20533984D02*
X9505896Y-20533984D01*
X9505896Y-20533984D02*
X9524944Y-20543508D01*
X9524944Y-20543508D02*
X9534468Y-20553031D01*
X9534468Y-20553031D02*
X9543991Y-20572079D01*
X9543991Y-20572079D02*
X9553515Y-20610174D01*
X9553515Y-20610174D02*
X9553515Y-20657793D01*
X9553515Y-20657793D02*
X9543991Y-20695889D01*
X9543991Y-20695889D02*
X9534468Y-20714936D01*
X9534468Y-20714936D02*
X9524944Y-20724460D01*
X9524944Y-20724460D02*
X9505896Y-20733984D01*
X9505896Y-20733984D02*
X9486848Y-20733984D01*
X9486848Y-20733984D02*
X9467801Y-20724460D01*
X9467801Y-20724460D02*
X9458277Y-20714936D01*
X9458277Y-20714936D02*
X9448753Y-20695889D01*
X9448753Y-20695889D02*
X9439229Y-20657793D01*
X9439229Y-20657793D02*
X9439229Y-20610174D01*
X9439229Y-20610174D02*
X9448753Y-20572079D01*
X9448753Y-20572079D02*
X9458277Y-20553031D01*
X9458277Y-20553031D02*
X9467801Y-20543508D01*
X9467801Y-20543508D02*
X9486848Y-20533984D01*
X9743991Y-20733984D02*
X9629706Y-20733984D01*
X9686848Y-20733984D02*
X9686848Y-20533984D01*
X9686848Y-20533984D02*
X9667801Y-20562555D01*
X9667801Y-20562555D02*
X9648753Y-20581603D01*
X9648753Y-20581603D02*
X9629706Y-20591127D01*
X9934468Y-20733984D02*
X9820182Y-20733984D01*
X9877325Y-20733984D02*
X9877325Y-20533984D01*
X9877325Y-20533984D02*
X9858277Y-20562555D01*
X9858277Y-20562555D02*
X9839229Y-20581603D01*
X9839229Y-20581603D02*
X9820182Y-20591127D01*
X10048753Y-20619698D02*
X10029706Y-20610174D01*
X10029706Y-20610174D02*
X10020182Y-20600650D01*
X10020182Y-20600650D02*
X10010658Y-20581603D01*
X10010658Y-20581603D02*
X10010658Y-20572079D01*
X10010658Y-20572079D02*
X10020182Y-20553031D01*
X10020182Y-20553031D02*
X10029706Y-20543508D01*
X10029706Y-20543508D02*
X10048753Y-20533984D01*
X10048753Y-20533984D02*
X10086849Y-20533984D01*
X10086849Y-20533984D02*
X10105896Y-20543508D01*
X10105896Y-20543508D02*
X10115420Y-20553031D01*
X10115420Y-20553031D02*
X10124944Y-20572079D01*
X10124944Y-20572079D02*
X10124944Y-20581603D01*
X10124944Y-20581603D02*
X10115420Y-20600650D01*
X10115420Y-20600650D02*
X10105896Y-20610174D01*
X10105896Y-20610174D02*
X10086849Y-20619698D01*
X10086849Y-20619698D02*
X10048753Y-20619698D01*
X10048753Y-20619698D02*
X10029706Y-20629222D01*
X10029706Y-20629222D02*
X10020182Y-20638746D01*
X10020182Y-20638746D02*
X10010658Y-20657793D01*
X10010658Y-20657793D02*
X10010658Y-20695889D01*
X10010658Y-20695889D02*
X10020182Y-20714936D01*
X10020182Y-20714936D02*
X10029706Y-20724460D01*
X10029706Y-20724460D02*
X10048753Y-20733984D01*
X10048753Y-20733984D02*
X10086849Y-20733984D01*
X10086849Y-20733984D02*
X10105896Y-20724460D01*
X10105896Y-20724460D02*
X10115420Y-20714936D01*
X10115420Y-20714936D02*
X10124944Y-20695889D01*
X10124944Y-20695889D02*
X10124944Y-20657793D01*
X10124944Y-20657793D02*
X10115420Y-20638746D01*
X10115420Y-20638746D02*
X10105896Y-20629222D01*
X10105896Y-20629222D02*
X10086849Y-20619698D01*
X10201134Y-20533984D02*
X10201134Y-20572079D01*
X10277325Y-20533984D02*
X10277325Y-20572079D01*
X10572563Y-20810174D02*
X10563039Y-20800650D01*
X10563039Y-20800650D02*
X10543991Y-20772079D01*
X10543991Y-20772079D02*
X10534468Y-20753031D01*
X10534468Y-20753031D02*
X10524944Y-20724460D01*
X10524944Y-20724460D02*
X10515420Y-20676841D01*
X10515420Y-20676841D02*
X10515420Y-20638746D01*
X10515420Y-20638746D02*
X10524944Y-20591127D01*
X10524944Y-20591127D02*
X10534468Y-20562555D01*
X10534468Y-20562555D02*
X10543991Y-20543508D01*
X10543991Y-20543508D02*
X10563039Y-20514936D01*
X10563039Y-20514936D02*
X10572563Y-20505412D01*
X10734468Y-20600650D02*
X10734468Y-20733984D01*
X10686849Y-20524460D02*
X10639230Y-20667317D01*
X10639230Y-20667317D02*
X10763039Y-20667317D01*
X10934468Y-20533984D02*
X10839230Y-20533984D01*
X10839230Y-20533984D02*
X10829706Y-20629222D01*
X10829706Y-20629222D02*
X10839230Y-20619698D01*
X10839230Y-20619698D02*
X10858277Y-20610174D01*
X10858277Y-20610174D02*
X10905896Y-20610174D01*
X10905896Y-20610174D02*
X10924944Y-20619698D01*
X10924944Y-20619698D02*
X10934468Y-20629222D01*
X10934468Y-20629222D02*
X10943991Y-20648270D01*
X10943991Y-20648270D02*
X10943991Y-20695889D01*
X10943991Y-20695889D02*
X10934468Y-20714936D01*
X10934468Y-20714936D02*
X10924944Y-20724460D01*
X10924944Y-20724460D02*
X10905896Y-20733984D01*
X10905896Y-20733984D02*
X10858277Y-20733984D01*
X10858277Y-20733984D02*
X10839230Y-20724460D01*
X10839230Y-20724460D02*
X10829706Y-20714936D01*
X11067801Y-20533984D02*
X11086849Y-20533984D01*
X11086849Y-20533984D02*
X11105896Y-20543508D01*
X11105896Y-20543508D02*
X11115420Y-20553031D01*
X11115420Y-20553031D02*
X11124944Y-20572079D01*
X11124944Y-20572079D02*
X11134468Y-20610174D01*
X11134468Y-20610174D02*
X11134468Y-20657793D01*
X11134468Y-20657793D02*
X11124944Y-20695889D01*
X11124944Y-20695889D02*
X11115420Y-20714936D01*
X11115420Y-20714936D02*
X11105896Y-20724460D01*
X11105896Y-20724460D02*
X11086849Y-20733984D01*
X11086849Y-20733984D02*
X11067801Y-20733984D01*
X11067801Y-20733984D02*
X11048753Y-20724460D01*
X11048753Y-20724460D02*
X11039230Y-20714936D01*
X11039230Y-20714936D02*
X11029706Y-20695889D01*
X11029706Y-20695889D02*
X11020182Y-20657793D01*
X11020182Y-20657793D02*
X11020182Y-20610174D01*
X11020182Y-20610174D02*
X11029706Y-20572079D01*
X11029706Y-20572079D02*
X11039230Y-20553031D01*
X11039230Y-20553031D02*
X11048753Y-20543508D01*
X11048753Y-20543508D02*
X11067801Y-20533984D01*
X11372563Y-20733984D02*
X11372563Y-20533984D01*
X11458277Y-20733984D02*
X11458277Y-20629222D01*
X11458277Y-20629222D02*
X11448753Y-20610174D01*
X11448753Y-20610174D02*
X11429706Y-20600650D01*
X11429706Y-20600650D02*
X11401134Y-20600650D01*
X11401134Y-20600650D02*
X11382087Y-20610174D01*
X11382087Y-20610174D02*
X11372563Y-20619698D01*
X11582087Y-20733984D02*
X11563039Y-20724460D01*
X11563039Y-20724460D02*
X11553515Y-20714936D01*
X11553515Y-20714936D02*
X11543991Y-20695889D01*
X11543991Y-20695889D02*
X11543991Y-20638746D01*
X11543991Y-20638746D02*
X11553515Y-20619698D01*
X11553515Y-20619698D02*
X11563039Y-20610174D01*
X11563039Y-20610174D02*
X11582087Y-20600650D01*
X11582087Y-20600650D02*
X11610658Y-20600650D01*
X11610658Y-20600650D02*
X11629706Y-20610174D01*
X11629706Y-20610174D02*
X11639230Y-20619698D01*
X11639230Y-20619698D02*
X11648753Y-20638746D01*
X11648753Y-20638746D02*
X11648753Y-20695889D01*
X11648753Y-20695889D02*
X11639230Y-20714936D01*
X11639230Y-20714936D02*
X11629706Y-20724460D01*
X11629706Y-20724460D02*
X11610658Y-20733984D01*
X11610658Y-20733984D02*
X11582087Y-20733984D01*
X11763039Y-20733984D02*
X11743991Y-20724460D01*
X11743991Y-20724460D02*
X11734468Y-20705412D01*
X11734468Y-20705412D02*
X11734468Y-20533984D01*
X11915420Y-20724460D02*
X11896372Y-20733984D01*
X11896372Y-20733984D02*
X11858277Y-20733984D01*
X11858277Y-20733984D02*
X11839230Y-20724460D01*
X11839230Y-20724460D02*
X11829706Y-20705412D01*
X11829706Y-20705412D02*
X11829706Y-20629222D01*
X11829706Y-20629222D02*
X11839230Y-20610174D01*
X11839230Y-20610174D02*
X11858277Y-20600650D01*
X11858277Y-20600650D02*
X11896372Y-20600650D01*
X11896372Y-20600650D02*
X11915420Y-20610174D01*
X11915420Y-20610174D02*
X11924944Y-20629222D01*
X11924944Y-20629222D02*
X11924944Y-20648270D01*
X11924944Y-20648270D02*
X11829706Y-20667317D01*
X12001134Y-20724460D02*
X12020182Y-20733984D01*
X12020182Y-20733984D02*
X12058277Y-20733984D01*
X12058277Y-20733984D02*
X12077325Y-20724460D01*
X12077325Y-20724460D02*
X12086849Y-20705412D01*
X12086849Y-20705412D02*
X12086849Y-20695889D01*
X12086849Y-20695889D02*
X12077325Y-20676841D01*
X12077325Y-20676841D02*
X12058277Y-20667317D01*
X12058277Y-20667317D02*
X12029706Y-20667317D01*
X12029706Y-20667317D02*
X12010658Y-20657793D01*
X12010658Y-20657793D02*
X12001134Y-20638746D01*
X12001134Y-20638746D02*
X12001134Y-20629222D01*
X12001134Y-20629222D02*
X12010658Y-20610174D01*
X12010658Y-20610174D02*
X12029706Y-20600650D01*
X12029706Y-20600650D02*
X12058277Y-20600650D01*
X12058277Y-20600650D02*
X12077325Y-20610174D01*
X12153515Y-20810174D02*
X12163039Y-20800650D01*
X12163039Y-20800650D02*
X12182087Y-20772079D01*
X12182087Y-20772079D02*
X12191611Y-20753031D01*
X12191611Y-20753031D02*
X12201134Y-20724460D01*
X12201134Y-20724460D02*
X12210658Y-20676841D01*
X12210658Y-20676841D02*
X12210658Y-20638746D01*
X12210658Y-20638746D02*
X12201134Y-20591127D01*
X12201134Y-20591127D02*
X12191611Y-20562555D01*
X12191611Y-20562555D02*
X12182087Y-20543508D01*
X12182087Y-20543508D02*
X12163039Y-20514936D01*
X12163039Y-20514936D02*
X12153515Y-20505412D01*
D12*
X6997500Y-20906500D02*
G75*
G02*
X6937500Y-20906500I-30000J0D01*
G01*
X6937500Y-20906500D02*
G75*
G02*
X6997500Y-20906500I30000J0D01*
G01*
D11*
X7296372Y-20797984D02*
X7315420Y-20797984D01*
X7315420Y-20797984D02*
X7334467Y-20807508D01*
X7334467Y-20807508D02*
X7343991Y-20817031D01*
X7343991Y-20817031D02*
X7353515Y-20836079D01*
X7353515Y-20836079D02*
X7363039Y-20874174D01*
X7363039Y-20874174D02*
X7363039Y-20921793D01*
X7363039Y-20921793D02*
X7353515Y-20959889D01*
X7353515Y-20959889D02*
X7343991Y-20978936D01*
X7343991Y-20978936D02*
X7334467Y-20988460D01*
X7334467Y-20988460D02*
X7315420Y-20997984D01*
X7315420Y-20997984D02*
X7296372Y-20997984D01*
X7296372Y-20997984D02*
X7277324Y-20988460D01*
X7277324Y-20988460D02*
X7267801Y-20978936D01*
X7267801Y-20978936D02*
X7258277Y-20959889D01*
X7258277Y-20959889D02*
X7248753Y-20921793D01*
X7248753Y-20921793D02*
X7248753Y-20874174D01*
X7248753Y-20874174D02*
X7258277Y-20836079D01*
X7258277Y-20836079D02*
X7267801Y-20817031D01*
X7267801Y-20817031D02*
X7277324Y-20807508D01*
X7277324Y-20807508D02*
X7296372Y-20797984D01*
X7448753Y-20978936D02*
X7458277Y-20988460D01*
X7458277Y-20988460D02*
X7448753Y-20997984D01*
X7448753Y-20997984D02*
X7439229Y-20988460D01*
X7439229Y-20988460D02*
X7448753Y-20978936D01*
X7448753Y-20978936D02*
X7448753Y-20997984D01*
X7629705Y-20797984D02*
X7591610Y-20797984D01*
X7591610Y-20797984D02*
X7572562Y-20807508D01*
X7572562Y-20807508D02*
X7563039Y-20817031D01*
X7563039Y-20817031D02*
X7543991Y-20845603D01*
X7543991Y-20845603D02*
X7534467Y-20883698D01*
X7534467Y-20883698D02*
X7534467Y-20959889D01*
X7534467Y-20959889D02*
X7543991Y-20978936D01*
X7543991Y-20978936D02*
X7553515Y-20988460D01*
X7553515Y-20988460D02*
X7572562Y-20997984D01*
X7572562Y-20997984D02*
X7610658Y-20997984D01*
X7610658Y-20997984D02*
X7629705Y-20988460D01*
X7629705Y-20988460D02*
X7639229Y-20978936D01*
X7639229Y-20978936D02*
X7648753Y-20959889D01*
X7648753Y-20959889D02*
X7648753Y-20912270D01*
X7648753Y-20912270D02*
X7639229Y-20893222D01*
X7639229Y-20893222D02*
X7629705Y-20883698D01*
X7629705Y-20883698D02*
X7610658Y-20874174D01*
X7610658Y-20874174D02*
X7572562Y-20874174D01*
X7572562Y-20874174D02*
X7553515Y-20883698D01*
X7553515Y-20883698D02*
X7543991Y-20893222D01*
X7543991Y-20893222D02*
X7534467Y-20912270D01*
X7772562Y-20797984D02*
X7791610Y-20797984D01*
X7791610Y-20797984D02*
X7810658Y-20807508D01*
X7810658Y-20807508D02*
X7820182Y-20817031D01*
X7820182Y-20817031D02*
X7829705Y-20836079D01*
X7829705Y-20836079D02*
X7839229Y-20874174D01*
X7839229Y-20874174D02*
X7839229Y-20921793D01*
X7839229Y-20921793D02*
X7829705Y-20959889D01*
X7829705Y-20959889D02*
X7820182Y-20978936D01*
X7820182Y-20978936D02*
X7810658Y-20988460D01*
X7810658Y-20988460D02*
X7791610Y-20997984D01*
X7791610Y-20997984D02*
X7772562Y-20997984D01*
X7772562Y-20997984D02*
X7753515Y-20988460D01*
X7753515Y-20988460D02*
X7743991Y-20978936D01*
X7743991Y-20978936D02*
X7734467Y-20959889D01*
X7734467Y-20959889D02*
X7724943Y-20921793D01*
X7724943Y-20921793D02*
X7724943Y-20874174D01*
X7724943Y-20874174D02*
X7734467Y-20836079D01*
X7734467Y-20836079D02*
X7743991Y-20817031D01*
X7743991Y-20817031D02*
X7753515Y-20807508D01*
X7753515Y-20807508D02*
X7772562Y-20797984D01*
X7963039Y-20797984D02*
X7982086Y-20797984D01*
X7982086Y-20797984D02*
X8001134Y-20807508D01*
X8001134Y-20807508D02*
X8010658Y-20817031D01*
X8010658Y-20817031D02*
X8020182Y-20836079D01*
X8020182Y-20836079D02*
X8029705Y-20874174D01*
X8029705Y-20874174D02*
X8029705Y-20921793D01*
X8029705Y-20921793D02*
X8020182Y-20959889D01*
X8020182Y-20959889D02*
X8010658Y-20978936D01*
X8010658Y-20978936D02*
X8001134Y-20988460D01*
X8001134Y-20988460D02*
X7982086Y-20997984D01*
X7982086Y-20997984D02*
X7963039Y-20997984D01*
X7963039Y-20997984D02*
X7943991Y-20988460D01*
X7943991Y-20988460D02*
X7934467Y-20978936D01*
X7934467Y-20978936D02*
X7924943Y-20959889D01*
X7924943Y-20959889D02*
X7915420Y-20921793D01*
X7915420Y-20921793D02*
X7915420Y-20874174D01*
X7915420Y-20874174D02*
X7924943Y-20836079D01*
X7924943Y-20836079D02*
X7934467Y-20817031D01*
X7934467Y-20817031D02*
X7943991Y-20807508D01*
X7943991Y-20807508D02*
X7963039Y-20797984D01*
X8115420Y-20997984D02*
X8115420Y-20864650D01*
X8115420Y-20883698D02*
X8124943Y-20874174D01*
X8124943Y-20874174D02*
X8143991Y-20864650D01*
X8143991Y-20864650D02*
X8172563Y-20864650D01*
X8172563Y-20864650D02*
X8191610Y-20874174D01*
X8191610Y-20874174D02*
X8201134Y-20893222D01*
X8201134Y-20893222D02*
X8201134Y-20997984D01*
X8201134Y-20893222D02*
X8210658Y-20874174D01*
X8210658Y-20874174D02*
X8229705Y-20864650D01*
X8229705Y-20864650D02*
X8258277Y-20864650D01*
X8258277Y-20864650D02*
X8277324Y-20874174D01*
X8277324Y-20874174D02*
X8286848Y-20893222D01*
X8286848Y-20893222D02*
X8286848Y-20997984D01*
X8382086Y-20997984D02*
X8382086Y-20864650D01*
X8382086Y-20883698D02*
X8391610Y-20874174D01*
X8391610Y-20874174D02*
X8410658Y-20864650D01*
X8410658Y-20864650D02*
X8439229Y-20864650D01*
X8439229Y-20864650D02*
X8458277Y-20874174D01*
X8458277Y-20874174D02*
X8467801Y-20893222D01*
X8467801Y-20893222D02*
X8467801Y-20997984D01*
X8467801Y-20893222D02*
X8477325Y-20874174D01*
X8477325Y-20874174D02*
X8496372Y-20864650D01*
X8496372Y-20864650D02*
X8524944Y-20864650D01*
X8524944Y-20864650D02*
X8543991Y-20874174D01*
X8543991Y-20874174D02*
X8553515Y-20893222D01*
X8553515Y-20893222D02*
X8553515Y-20997984D01*
X8943991Y-20788460D02*
X8772563Y-21045603D01*
X9201134Y-20797984D02*
X9220182Y-20797984D01*
X9220182Y-20797984D02*
X9239229Y-20807508D01*
X9239229Y-20807508D02*
X9248753Y-20817031D01*
X9248753Y-20817031D02*
X9258277Y-20836079D01*
X9258277Y-20836079D02*
X9267801Y-20874174D01*
X9267801Y-20874174D02*
X9267801Y-20921793D01*
X9267801Y-20921793D02*
X9258277Y-20959889D01*
X9258277Y-20959889D02*
X9248753Y-20978936D01*
X9248753Y-20978936D02*
X9239229Y-20988460D01*
X9239229Y-20988460D02*
X9220182Y-20997984D01*
X9220182Y-20997984D02*
X9201134Y-20997984D01*
X9201134Y-20997984D02*
X9182087Y-20988460D01*
X9182087Y-20988460D02*
X9172563Y-20978936D01*
X9172563Y-20978936D02*
X9163039Y-20959889D01*
X9163039Y-20959889D02*
X9153515Y-20921793D01*
X9153515Y-20921793D02*
X9153515Y-20874174D01*
X9153515Y-20874174D02*
X9163039Y-20836079D01*
X9163039Y-20836079D02*
X9172563Y-20817031D01*
X9172563Y-20817031D02*
X9182087Y-20807508D01*
X9182087Y-20807508D02*
X9201134Y-20797984D01*
X9353515Y-20978936D02*
X9363039Y-20988460D01*
X9363039Y-20988460D02*
X9353515Y-20997984D01*
X9353515Y-20997984D02*
X9343991Y-20988460D01*
X9343991Y-20988460D02*
X9353515Y-20978936D01*
X9353515Y-20978936D02*
X9353515Y-20997984D01*
X9486848Y-20797984D02*
X9505896Y-20797984D01*
X9505896Y-20797984D02*
X9524944Y-20807508D01*
X9524944Y-20807508D02*
X9534468Y-20817031D01*
X9534468Y-20817031D02*
X9543991Y-20836079D01*
X9543991Y-20836079D02*
X9553515Y-20874174D01*
X9553515Y-20874174D02*
X9553515Y-20921793D01*
X9553515Y-20921793D02*
X9543991Y-20959889D01*
X9543991Y-20959889D02*
X9534468Y-20978936D01*
X9534468Y-20978936D02*
X9524944Y-20988460D01*
X9524944Y-20988460D02*
X9505896Y-20997984D01*
X9505896Y-20997984D02*
X9486848Y-20997984D01*
X9486848Y-20997984D02*
X9467801Y-20988460D01*
X9467801Y-20988460D02*
X9458277Y-20978936D01*
X9458277Y-20978936D02*
X9448753Y-20959889D01*
X9448753Y-20959889D02*
X9439229Y-20921793D01*
X9439229Y-20921793D02*
X9439229Y-20874174D01*
X9439229Y-20874174D02*
X9448753Y-20836079D01*
X9448753Y-20836079D02*
X9458277Y-20817031D01*
X9458277Y-20817031D02*
X9467801Y-20807508D01*
X9467801Y-20807508D02*
X9486848Y-20797984D01*
X9629706Y-20817031D02*
X9639229Y-20807508D01*
X9639229Y-20807508D02*
X9658277Y-20797984D01*
X9658277Y-20797984D02*
X9705896Y-20797984D01*
X9705896Y-20797984D02*
X9724944Y-20807508D01*
X9724944Y-20807508D02*
X9734468Y-20817031D01*
X9734468Y-20817031D02*
X9743991Y-20836079D01*
X9743991Y-20836079D02*
X9743991Y-20855127D01*
X9743991Y-20855127D02*
X9734468Y-20883698D01*
X9734468Y-20883698D02*
X9620182Y-20997984D01*
X9620182Y-20997984D02*
X9743991Y-20997984D01*
X9810658Y-20797984D02*
X9934468Y-20797984D01*
X9934468Y-20797984D02*
X9867801Y-20874174D01*
X9867801Y-20874174D02*
X9896372Y-20874174D01*
X9896372Y-20874174D02*
X9915420Y-20883698D01*
X9915420Y-20883698D02*
X9924944Y-20893222D01*
X9924944Y-20893222D02*
X9934468Y-20912270D01*
X9934468Y-20912270D02*
X9934468Y-20959889D01*
X9934468Y-20959889D02*
X9924944Y-20978936D01*
X9924944Y-20978936D02*
X9915420Y-20988460D01*
X9915420Y-20988460D02*
X9896372Y-20997984D01*
X9896372Y-20997984D02*
X9839229Y-20997984D01*
X9839229Y-20997984D02*
X9820182Y-20988460D01*
X9820182Y-20988460D02*
X9810658Y-20978936D01*
X10105896Y-20797984D02*
X10067801Y-20797984D01*
X10067801Y-20797984D02*
X10048753Y-20807508D01*
X10048753Y-20807508D02*
X10039229Y-20817031D01*
X10039229Y-20817031D02*
X10020182Y-20845603D01*
X10020182Y-20845603D02*
X10010658Y-20883698D01*
X10010658Y-20883698D02*
X10010658Y-20959889D01*
X10010658Y-20959889D02*
X10020182Y-20978936D01*
X10020182Y-20978936D02*
X10029706Y-20988460D01*
X10029706Y-20988460D02*
X10048753Y-20997984D01*
X10048753Y-20997984D02*
X10086849Y-20997984D01*
X10086849Y-20997984D02*
X10105896Y-20988460D01*
X10105896Y-20988460D02*
X10115420Y-20978936D01*
X10115420Y-20978936D02*
X10124944Y-20959889D01*
X10124944Y-20959889D02*
X10124944Y-20912270D01*
X10124944Y-20912270D02*
X10115420Y-20893222D01*
X10115420Y-20893222D02*
X10105896Y-20883698D01*
X10105896Y-20883698D02*
X10086849Y-20874174D01*
X10086849Y-20874174D02*
X10048753Y-20874174D01*
X10048753Y-20874174D02*
X10029706Y-20883698D01*
X10029706Y-20883698D02*
X10020182Y-20893222D01*
X10020182Y-20893222D02*
X10010658Y-20912270D01*
X10201134Y-20797984D02*
X10201134Y-20836079D01*
X10277325Y-20797984D02*
X10277325Y-20836079D01*
X10572563Y-21074174D02*
X10563039Y-21064650D01*
X10563039Y-21064650D02*
X10543991Y-21036079D01*
X10543991Y-21036079D02*
X10534468Y-21017031D01*
X10534468Y-21017031D02*
X10524944Y-20988460D01*
X10524944Y-20988460D02*
X10515420Y-20940841D01*
X10515420Y-20940841D02*
X10515420Y-20902746D01*
X10515420Y-20902746D02*
X10524944Y-20855127D01*
X10524944Y-20855127D02*
X10534468Y-20826555D01*
X10534468Y-20826555D02*
X10543991Y-20807508D01*
X10543991Y-20807508D02*
X10563039Y-20778936D01*
X10563039Y-20778936D02*
X10572563Y-20769412D01*
X10686849Y-20797984D02*
X10705896Y-20797984D01*
X10705896Y-20797984D02*
X10724944Y-20807508D01*
X10724944Y-20807508D02*
X10734468Y-20817031D01*
X10734468Y-20817031D02*
X10743991Y-20836079D01*
X10743991Y-20836079D02*
X10753515Y-20874174D01*
X10753515Y-20874174D02*
X10753515Y-20921793D01*
X10753515Y-20921793D02*
X10743991Y-20959889D01*
X10743991Y-20959889D02*
X10734468Y-20978936D01*
X10734468Y-20978936D02*
X10724944Y-20988460D01*
X10724944Y-20988460D02*
X10705896Y-20997984D01*
X10705896Y-20997984D02*
X10686849Y-20997984D01*
X10686849Y-20997984D02*
X10667801Y-20988460D01*
X10667801Y-20988460D02*
X10658277Y-20978936D01*
X10658277Y-20978936D02*
X10648753Y-20959889D01*
X10648753Y-20959889D02*
X10639230Y-20921793D01*
X10639230Y-20921793D02*
X10639230Y-20874174D01*
X10639230Y-20874174D02*
X10648753Y-20836079D01*
X10648753Y-20836079D02*
X10658277Y-20817031D01*
X10658277Y-20817031D02*
X10667801Y-20807508D01*
X10667801Y-20807508D02*
X10686849Y-20797984D01*
X10991611Y-20997984D02*
X10991611Y-20797984D01*
X11077325Y-20997984D02*
X11077325Y-20893222D01*
X11077325Y-20893222D02*
X11067801Y-20874174D01*
X11067801Y-20874174D02*
X11048753Y-20864650D01*
X11048753Y-20864650D02*
X11020182Y-20864650D01*
X11020182Y-20864650D02*
X11001134Y-20874174D01*
X11001134Y-20874174D02*
X10991611Y-20883698D01*
X11201134Y-20997984D02*
X11182087Y-20988460D01*
X11182087Y-20988460D02*
X11172563Y-20978936D01*
X11172563Y-20978936D02*
X11163039Y-20959889D01*
X11163039Y-20959889D02*
X11163039Y-20902746D01*
X11163039Y-20902746D02*
X11172563Y-20883698D01*
X11172563Y-20883698D02*
X11182087Y-20874174D01*
X11182087Y-20874174D02*
X11201134Y-20864650D01*
X11201134Y-20864650D02*
X11229706Y-20864650D01*
X11229706Y-20864650D02*
X11248753Y-20874174D01*
X11248753Y-20874174D02*
X11258277Y-20883698D01*
X11258277Y-20883698D02*
X11267801Y-20902746D01*
X11267801Y-20902746D02*
X11267801Y-20959889D01*
X11267801Y-20959889D02*
X11258277Y-20978936D01*
X11258277Y-20978936D02*
X11248753Y-20988460D01*
X11248753Y-20988460D02*
X11229706Y-20997984D01*
X11229706Y-20997984D02*
X11201134Y-20997984D01*
X11382087Y-20997984D02*
X11363039Y-20988460D01*
X11363039Y-20988460D02*
X11353515Y-20969412D01*
X11353515Y-20969412D02*
X11353515Y-20797984D01*
X11534468Y-20988460D02*
X11515420Y-20997984D01*
X11515420Y-20997984D02*
X11477325Y-20997984D01*
X11477325Y-20997984D02*
X11458277Y-20988460D01*
X11458277Y-20988460D02*
X11448753Y-20969412D01*
X11448753Y-20969412D02*
X11448753Y-20893222D01*
X11448753Y-20893222D02*
X11458277Y-20874174D01*
X11458277Y-20874174D02*
X11477325Y-20864650D01*
X11477325Y-20864650D02*
X11515420Y-20864650D01*
X11515420Y-20864650D02*
X11534468Y-20874174D01*
X11534468Y-20874174D02*
X11543991Y-20893222D01*
X11543991Y-20893222D02*
X11543991Y-20912270D01*
X11543991Y-20912270D02*
X11448753Y-20931317D01*
X11620182Y-20988460D02*
X11639230Y-20997984D01*
X11639230Y-20997984D02*
X11677325Y-20997984D01*
X11677325Y-20997984D02*
X11696372Y-20988460D01*
X11696372Y-20988460D02*
X11705896Y-20969412D01*
X11705896Y-20969412D02*
X11705896Y-20959889D01*
X11705896Y-20959889D02*
X11696372Y-20940841D01*
X11696372Y-20940841D02*
X11677325Y-20931317D01*
X11677325Y-20931317D02*
X11648753Y-20931317D01*
X11648753Y-20931317D02*
X11629706Y-20921793D01*
X11629706Y-20921793D02*
X11620182Y-20902746D01*
X11620182Y-20902746D02*
X11620182Y-20893222D01*
X11620182Y-20893222D02*
X11629706Y-20874174D01*
X11629706Y-20874174D02*
X11648753Y-20864650D01*
X11648753Y-20864650D02*
X11677325Y-20864650D01*
X11677325Y-20864650D02*
X11696372Y-20874174D01*
X11943992Y-20921793D02*
X12096373Y-20921793D01*
X12020182Y-20997984D02*
X12020182Y-20845603D01*
X12429706Y-20864650D02*
X12429706Y-20997984D01*
X12382087Y-20788460D02*
X12334468Y-20931317D01*
X12334468Y-20931317D02*
X12458277Y-20931317D01*
X12677325Y-20988460D02*
X12696373Y-20997984D01*
X12696373Y-20997984D02*
X12734468Y-20997984D01*
X12734468Y-20997984D02*
X12753515Y-20988460D01*
X12753515Y-20988460D02*
X12763039Y-20969412D01*
X12763039Y-20969412D02*
X12763039Y-20959889D01*
X12763039Y-20959889D02*
X12753515Y-20940841D01*
X12753515Y-20940841D02*
X12734468Y-20931317D01*
X12734468Y-20931317D02*
X12705896Y-20931317D01*
X12705896Y-20931317D02*
X12686849Y-20921793D01*
X12686849Y-20921793D02*
X12677325Y-20902746D01*
X12677325Y-20902746D02*
X12677325Y-20893222D01*
X12677325Y-20893222D02*
X12686849Y-20874174D01*
X12686849Y-20874174D02*
X12705896Y-20864650D01*
X12705896Y-20864650D02*
X12734468Y-20864650D01*
X12734468Y-20864650D02*
X12753515Y-20874174D01*
X12877325Y-20997984D02*
X12858277Y-20988460D01*
X12858277Y-20988460D02*
X12848754Y-20969412D01*
X12848754Y-20969412D02*
X12848754Y-20797984D01*
X12982087Y-20997984D02*
X12963039Y-20988460D01*
X12963039Y-20988460D02*
X12953515Y-20978936D01*
X12953515Y-20978936D02*
X12943992Y-20959889D01*
X12943992Y-20959889D02*
X12943992Y-20902746D01*
X12943992Y-20902746D02*
X12953515Y-20883698D01*
X12953515Y-20883698D02*
X12963039Y-20874174D01*
X12963039Y-20874174D02*
X12982087Y-20864650D01*
X12982087Y-20864650D02*
X13010658Y-20864650D01*
X13010658Y-20864650D02*
X13029706Y-20874174D01*
X13029706Y-20874174D02*
X13039230Y-20883698D01*
X13039230Y-20883698D02*
X13048754Y-20902746D01*
X13048754Y-20902746D02*
X13048754Y-20959889D01*
X13048754Y-20959889D02*
X13039230Y-20978936D01*
X13039230Y-20978936D02*
X13029706Y-20988460D01*
X13029706Y-20988460D02*
X13010658Y-20997984D01*
X13010658Y-20997984D02*
X12982087Y-20997984D01*
X13105896Y-20864650D02*
X13182087Y-20864650D01*
X13134468Y-20797984D02*
X13134468Y-20969412D01*
X13134468Y-20969412D02*
X13143992Y-20988460D01*
X13143992Y-20988460D02*
X13163039Y-20997984D01*
X13163039Y-20997984D02*
X13182087Y-20997984D01*
X13239230Y-20988460D02*
X13258277Y-20997984D01*
X13258277Y-20997984D02*
X13296373Y-20997984D01*
X13296373Y-20997984D02*
X13315420Y-20988460D01*
X13315420Y-20988460D02*
X13324944Y-20969412D01*
X13324944Y-20969412D02*
X13324944Y-20959889D01*
X13324944Y-20959889D02*
X13315420Y-20940841D01*
X13315420Y-20940841D02*
X13296373Y-20931317D01*
X13296373Y-20931317D02*
X13267801Y-20931317D01*
X13267801Y-20931317D02*
X13248754Y-20921793D01*
X13248754Y-20921793D02*
X13239230Y-20902746D01*
X13239230Y-20902746D02*
X13239230Y-20893222D01*
X13239230Y-20893222D02*
X13248754Y-20874174D01*
X13248754Y-20874174D02*
X13267801Y-20864650D01*
X13267801Y-20864650D02*
X13296373Y-20864650D01*
X13296373Y-20864650D02*
X13315420Y-20874174D01*
X13391611Y-21074174D02*
X13401135Y-21064650D01*
X13401135Y-21064650D02*
X13420182Y-21036079D01*
X13420182Y-21036079D02*
X13429706Y-21017031D01*
X13429706Y-21017031D02*
X13439230Y-20988460D01*
X13439230Y-20988460D02*
X13448754Y-20940841D01*
X13448754Y-20940841D02*
X13448754Y-20902746D01*
X13448754Y-20902746D02*
X13439230Y-20855127D01*
X13439230Y-20855127D02*
X13429706Y-20826555D01*
X13429706Y-20826555D02*
X13420182Y-20807508D01*
X13420182Y-20807508D02*
X13401135Y-20778936D01*
X13401135Y-20778936D02*
X13391611Y-20769412D01*
D12*
X6957500Y-21130500D02*
X6957500Y-21210500D01*
X6917500Y-21170500D02*
X6997500Y-21170500D01*
D11*
X7296372Y-21061984D02*
X7315420Y-21061984D01*
X7315420Y-21061984D02*
X7334467Y-21071508D01*
X7334467Y-21071508D02*
X7343991Y-21081031D01*
X7343991Y-21081031D02*
X7353515Y-21100079D01*
X7353515Y-21100079D02*
X7363039Y-21138174D01*
X7363039Y-21138174D02*
X7363039Y-21185793D01*
X7363039Y-21185793D02*
X7353515Y-21223889D01*
X7353515Y-21223889D02*
X7343991Y-21242936D01*
X7343991Y-21242936D02*
X7334467Y-21252460D01*
X7334467Y-21252460D02*
X7315420Y-21261984D01*
X7315420Y-21261984D02*
X7296372Y-21261984D01*
X7296372Y-21261984D02*
X7277324Y-21252460D01*
X7277324Y-21252460D02*
X7267801Y-21242936D01*
X7267801Y-21242936D02*
X7258277Y-21223889D01*
X7258277Y-21223889D02*
X7248753Y-21185793D01*
X7248753Y-21185793D02*
X7248753Y-21138174D01*
X7248753Y-21138174D02*
X7258277Y-21100079D01*
X7258277Y-21100079D02*
X7267801Y-21081031D01*
X7267801Y-21081031D02*
X7277324Y-21071508D01*
X7277324Y-21071508D02*
X7296372Y-21061984D01*
X7448753Y-21242936D02*
X7458277Y-21252460D01*
X7458277Y-21252460D02*
X7448753Y-21261984D01*
X7448753Y-21261984D02*
X7439229Y-21252460D01*
X7439229Y-21252460D02*
X7448753Y-21242936D01*
X7448753Y-21242936D02*
X7448753Y-21261984D01*
X7572562Y-21147698D02*
X7553515Y-21138174D01*
X7553515Y-21138174D02*
X7543991Y-21128650D01*
X7543991Y-21128650D02*
X7534467Y-21109603D01*
X7534467Y-21109603D02*
X7534467Y-21100079D01*
X7534467Y-21100079D02*
X7543991Y-21081031D01*
X7543991Y-21081031D02*
X7553515Y-21071508D01*
X7553515Y-21071508D02*
X7572562Y-21061984D01*
X7572562Y-21061984D02*
X7610658Y-21061984D01*
X7610658Y-21061984D02*
X7629705Y-21071508D01*
X7629705Y-21071508D02*
X7639229Y-21081031D01*
X7639229Y-21081031D02*
X7648753Y-21100079D01*
X7648753Y-21100079D02*
X7648753Y-21109603D01*
X7648753Y-21109603D02*
X7639229Y-21128650D01*
X7639229Y-21128650D02*
X7629705Y-21138174D01*
X7629705Y-21138174D02*
X7610658Y-21147698D01*
X7610658Y-21147698D02*
X7572562Y-21147698D01*
X7572562Y-21147698D02*
X7553515Y-21157222D01*
X7553515Y-21157222D02*
X7543991Y-21166746D01*
X7543991Y-21166746D02*
X7534467Y-21185793D01*
X7534467Y-21185793D02*
X7534467Y-21223889D01*
X7534467Y-21223889D02*
X7543991Y-21242936D01*
X7543991Y-21242936D02*
X7553515Y-21252460D01*
X7553515Y-21252460D02*
X7572562Y-21261984D01*
X7572562Y-21261984D02*
X7610658Y-21261984D01*
X7610658Y-21261984D02*
X7629705Y-21252460D01*
X7629705Y-21252460D02*
X7639229Y-21242936D01*
X7639229Y-21242936D02*
X7648753Y-21223889D01*
X7648753Y-21223889D02*
X7648753Y-21185793D01*
X7648753Y-21185793D02*
X7639229Y-21166746D01*
X7639229Y-21166746D02*
X7629705Y-21157222D01*
X7629705Y-21157222D02*
X7610658Y-21147698D01*
X7772562Y-21061984D02*
X7791610Y-21061984D01*
X7791610Y-21061984D02*
X7810658Y-21071508D01*
X7810658Y-21071508D02*
X7820182Y-21081031D01*
X7820182Y-21081031D02*
X7829705Y-21100079D01*
X7829705Y-21100079D02*
X7839229Y-21138174D01*
X7839229Y-21138174D02*
X7839229Y-21185793D01*
X7839229Y-21185793D02*
X7829705Y-21223889D01*
X7829705Y-21223889D02*
X7820182Y-21242936D01*
X7820182Y-21242936D02*
X7810658Y-21252460D01*
X7810658Y-21252460D02*
X7791610Y-21261984D01*
X7791610Y-21261984D02*
X7772562Y-21261984D01*
X7772562Y-21261984D02*
X7753515Y-21252460D01*
X7753515Y-21252460D02*
X7743991Y-21242936D01*
X7743991Y-21242936D02*
X7734467Y-21223889D01*
X7734467Y-21223889D02*
X7724943Y-21185793D01*
X7724943Y-21185793D02*
X7724943Y-21138174D01*
X7724943Y-21138174D02*
X7734467Y-21100079D01*
X7734467Y-21100079D02*
X7743991Y-21081031D01*
X7743991Y-21081031D02*
X7753515Y-21071508D01*
X7753515Y-21071508D02*
X7772562Y-21061984D01*
X7963039Y-21061984D02*
X7982086Y-21061984D01*
X7982086Y-21061984D02*
X8001134Y-21071508D01*
X8001134Y-21071508D02*
X8010658Y-21081031D01*
X8010658Y-21081031D02*
X8020182Y-21100079D01*
X8020182Y-21100079D02*
X8029705Y-21138174D01*
X8029705Y-21138174D02*
X8029705Y-21185793D01*
X8029705Y-21185793D02*
X8020182Y-21223889D01*
X8020182Y-21223889D02*
X8010658Y-21242936D01*
X8010658Y-21242936D02*
X8001134Y-21252460D01*
X8001134Y-21252460D02*
X7982086Y-21261984D01*
X7982086Y-21261984D02*
X7963039Y-21261984D01*
X7963039Y-21261984D02*
X7943991Y-21252460D01*
X7943991Y-21252460D02*
X7934467Y-21242936D01*
X7934467Y-21242936D02*
X7924943Y-21223889D01*
X7924943Y-21223889D02*
X7915420Y-21185793D01*
X7915420Y-21185793D02*
X7915420Y-21138174D01*
X7915420Y-21138174D02*
X7924943Y-21100079D01*
X7924943Y-21100079D02*
X7934467Y-21081031D01*
X7934467Y-21081031D02*
X7943991Y-21071508D01*
X7943991Y-21071508D02*
X7963039Y-21061984D01*
X8115420Y-21261984D02*
X8115420Y-21128650D01*
X8115420Y-21147698D02*
X8124943Y-21138174D01*
X8124943Y-21138174D02*
X8143991Y-21128650D01*
X8143991Y-21128650D02*
X8172563Y-21128650D01*
X8172563Y-21128650D02*
X8191610Y-21138174D01*
X8191610Y-21138174D02*
X8201134Y-21157222D01*
X8201134Y-21157222D02*
X8201134Y-21261984D01*
X8201134Y-21157222D02*
X8210658Y-21138174D01*
X8210658Y-21138174D02*
X8229705Y-21128650D01*
X8229705Y-21128650D02*
X8258277Y-21128650D01*
X8258277Y-21128650D02*
X8277324Y-21138174D01*
X8277324Y-21138174D02*
X8286848Y-21157222D01*
X8286848Y-21157222D02*
X8286848Y-21261984D01*
X8382086Y-21261984D02*
X8382086Y-21128650D01*
X8382086Y-21147698D02*
X8391610Y-21138174D01*
X8391610Y-21138174D02*
X8410658Y-21128650D01*
X8410658Y-21128650D02*
X8439229Y-21128650D01*
X8439229Y-21128650D02*
X8458277Y-21138174D01*
X8458277Y-21138174D02*
X8467801Y-21157222D01*
X8467801Y-21157222D02*
X8467801Y-21261984D01*
X8467801Y-21157222D02*
X8477325Y-21138174D01*
X8477325Y-21138174D02*
X8496372Y-21128650D01*
X8496372Y-21128650D02*
X8524944Y-21128650D01*
X8524944Y-21128650D02*
X8543991Y-21138174D01*
X8543991Y-21138174D02*
X8553515Y-21157222D01*
X8553515Y-21157222D02*
X8553515Y-21261984D01*
X8943991Y-21052460D02*
X8772563Y-21309603D01*
X9201134Y-21061984D02*
X9220182Y-21061984D01*
X9220182Y-21061984D02*
X9239229Y-21071508D01*
X9239229Y-21071508D02*
X9248753Y-21081031D01*
X9248753Y-21081031D02*
X9258277Y-21100079D01*
X9258277Y-21100079D02*
X9267801Y-21138174D01*
X9267801Y-21138174D02*
X9267801Y-21185793D01*
X9267801Y-21185793D02*
X9258277Y-21223889D01*
X9258277Y-21223889D02*
X9248753Y-21242936D01*
X9248753Y-21242936D02*
X9239229Y-21252460D01*
X9239229Y-21252460D02*
X9220182Y-21261984D01*
X9220182Y-21261984D02*
X9201134Y-21261984D01*
X9201134Y-21261984D02*
X9182087Y-21252460D01*
X9182087Y-21252460D02*
X9172563Y-21242936D01*
X9172563Y-21242936D02*
X9163039Y-21223889D01*
X9163039Y-21223889D02*
X9153515Y-21185793D01*
X9153515Y-21185793D02*
X9153515Y-21138174D01*
X9153515Y-21138174D02*
X9163039Y-21100079D01*
X9163039Y-21100079D02*
X9172563Y-21081031D01*
X9172563Y-21081031D02*
X9182087Y-21071508D01*
X9182087Y-21071508D02*
X9201134Y-21061984D01*
X9353515Y-21242936D02*
X9363039Y-21252460D01*
X9363039Y-21252460D02*
X9353515Y-21261984D01*
X9353515Y-21261984D02*
X9343991Y-21252460D01*
X9343991Y-21252460D02*
X9353515Y-21242936D01*
X9353515Y-21242936D02*
X9353515Y-21261984D01*
X9486848Y-21061984D02*
X9505896Y-21061984D01*
X9505896Y-21061984D02*
X9524944Y-21071508D01*
X9524944Y-21071508D02*
X9534468Y-21081031D01*
X9534468Y-21081031D02*
X9543991Y-21100079D01*
X9543991Y-21100079D02*
X9553515Y-21138174D01*
X9553515Y-21138174D02*
X9553515Y-21185793D01*
X9553515Y-21185793D02*
X9543991Y-21223889D01*
X9543991Y-21223889D02*
X9534468Y-21242936D01*
X9534468Y-21242936D02*
X9524944Y-21252460D01*
X9524944Y-21252460D02*
X9505896Y-21261984D01*
X9505896Y-21261984D02*
X9486848Y-21261984D01*
X9486848Y-21261984D02*
X9467801Y-21252460D01*
X9467801Y-21252460D02*
X9458277Y-21242936D01*
X9458277Y-21242936D02*
X9448753Y-21223889D01*
X9448753Y-21223889D02*
X9439229Y-21185793D01*
X9439229Y-21185793D02*
X9439229Y-21138174D01*
X9439229Y-21138174D02*
X9448753Y-21100079D01*
X9448753Y-21100079D02*
X9458277Y-21081031D01*
X9458277Y-21081031D02*
X9467801Y-21071508D01*
X9467801Y-21071508D02*
X9486848Y-21061984D01*
X9620182Y-21061984D02*
X9743991Y-21061984D01*
X9743991Y-21061984D02*
X9677325Y-21138174D01*
X9677325Y-21138174D02*
X9705896Y-21138174D01*
X9705896Y-21138174D02*
X9724944Y-21147698D01*
X9724944Y-21147698D02*
X9734468Y-21157222D01*
X9734468Y-21157222D02*
X9743991Y-21176270D01*
X9743991Y-21176270D02*
X9743991Y-21223889D01*
X9743991Y-21223889D02*
X9734468Y-21242936D01*
X9734468Y-21242936D02*
X9724944Y-21252460D01*
X9724944Y-21252460D02*
X9705896Y-21261984D01*
X9705896Y-21261984D02*
X9648753Y-21261984D01*
X9648753Y-21261984D02*
X9629706Y-21252460D01*
X9629706Y-21252460D02*
X9620182Y-21242936D01*
X9934468Y-21261984D02*
X9820182Y-21261984D01*
X9877325Y-21261984D02*
X9877325Y-21061984D01*
X9877325Y-21061984D02*
X9858277Y-21090555D01*
X9858277Y-21090555D02*
X9839229Y-21109603D01*
X9839229Y-21109603D02*
X9820182Y-21119127D01*
X10115420Y-21061984D02*
X10020182Y-21061984D01*
X10020182Y-21061984D02*
X10010658Y-21157222D01*
X10010658Y-21157222D02*
X10020182Y-21147698D01*
X10020182Y-21147698D02*
X10039229Y-21138174D01*
X10039229Y-21138174D02*
X10086849Y-21138174D01*
X10086849Y-21138174D02*
X10105896Y-21147698D01*
X10105896Y-21147698D02*
X10115420Y-21157222D01*
X10115420Y-21157222D02*
X10124944Y-21176270D01*
X10124944Y-21176270D02*
X10124944Y-21223889D01*
X10124944Y-21223889D02*
X10115420Y-21242936D01*
X10115420Y-21242936D02*
X10105896Y-21252460D01*
X10105896Y-21252460D02*
X10086849Y-21261984D01*
X10086849Y-21261984D02*
X10039229Y-21261984D01*
X10039229Y-21261984D02*
X10020182Y-21252460D01*
X10020182Y-21252460D02*
X10010658Y-21242936D01*
X10201134Y-21061984D02*
X10201134Y-21100079D01*
X10277325Y-21061984D02*
X10277325Y-21100079D01*
X10572563Y-21338174D02*
X10563039Y-21328650D01*
X10563039Y-21328650D02*
X10543991Y-21300079D01*
X10543991Y-21300079D02*
X10534468Y-21281031D01*
X10534468Y-21281031D02*
X10524944Y-21252460D01*
X10524944Y-21252460D02*
X10515420Y-21204841D01*
X10515420Y-21204841D02*
X10515420Y-21166746D01*
X10515420Y-21166746D02*
X10524944Y-21119127D01*
X10524944Y-21119127D02*
X10534468Y-21090555D01*
X10534468Y-21090555D02*
X10543991Y-21071508D01*
X10543991Y-21071508D02*
X10563039Y-21042936D01*
X10563039Y-21042936D02*
X10572563Y-21033412D01*
X10639230Y-21081031D02*
X10648753Y-21071508D01*
X10648753Y-21071508D02*
X10667801Y-21061984D01*
X10667801Y-21061984D02*
X10715420Y-21061984D01*
X10715420Y-21061984D02*
X10734468Y-21071508D01*
X10734468Y-21071508D02*
X10743991Y-21081031D01*
X10743991Y-21081031D02*
X10753515Y-21100079D01*
X10753515Y-21100079D02*
X10753515Y-21119127D01*
X10753515Y-21119127D02*
X10743991Y-21147698D01*
X10743991Y-21147698D02*
X10629706Y-21261984D01*
X10629706Y-21261984D02*
X10753515Y-21261984D01*
X10991611Y-21261984D02*
X10991611Y-21061984D01*
X11077325Y-21261984D02*
X11077325Y-21157222D01*
X11077325Y-21157222D02*
X11067801Y-21138174D01*
X11067801Y-21138174D02*
X11048753Y-21128650D01*
X11048753Y-21128650D02*
X11020182Y-21128650D01*
X11020182Y-21128650D02*
X11001134Y-21138174D01*
X11001134Y-21138174D02*
X10991611Y-21147698D01*
X11201134Y-21261984D02*
X11182087Y-21252460D01*
X11182087Y-21252460D02*
X11172563Y-21242936D01*
X11172563Y-21242936D02*
X11163039Y-21223889D01*
X11163039Y-21223889D02*
X11163039Y-21166746D01*
X11163039Y-21166746D02*
X11172563Y-21147698D01*
X11172563Y-21147698D02*
X11182087Y-21138174D01*
X11182087Y-21138174D02*
X11201134Y-21128650D01*
X11201134Y-21128650D02*
X11229706Y-21128650D01*
X11229706Y-21128650D02*
X11248753Y-21138174D01*
X11248753Y-21138174D02*
X11258277Y-21147698D01*
X11258277Y-21147698D02*
X11267801Y-21166746D01*
X11267801Y-21166746D02*
X11267801Y-21223889D01*
X11267801Y-21223889D02*
X11258277Y-21242936D01*
X11258277Y-21242936D02*
X11248753Y-21252460D01*
X11248753Y-21252460D02*
X11229706Y-21261984D01*
X11229706Y-21261984D02*
X11201134Y-21261984D01*
X11382087Y-21261984D02*
X11363039Y-21252460D01*
X11363039Y-21252460D02*
X11353515Y-21233412D01*
X11353515Y-21233412D02*
X11353515Y-21061984D01*
X11534468Y-21252460D02*
X11515420Y-21261984D01*
X11515420Y-21261984D02*
X11477325Y-21261984D01*
X11477325Y-21261984D02*
X11458277Y-21252460D01*
X11458277Y-21252460D02*
X11448753Y-21233412D01*
X11448753Y-21233412D02*
X11448753Y-21157222D01*
X11448753Y-21157222D02*
X11458277Y-21138174D01*
X11458277Y-21138174D02*
X11477325Y-21128650D01*
X11477325Y-21128650D02*
X11515420Y-21128650D01*
X11515420Y-21128650D02*
X11534468Y-21138174D01*
X11534468Y-21138174D02*
X11543991Y-21157222D01*
X11543991Y-21157222D02*
X11543991Y-21176270D01*
X11543991Y-21176270D02*
X11448753Y-21195317D01*
X11620182Y-21252460D02*
X11639230Y-21261984D01*
X11639230Y-21261984D02*
X11677325Y-21261984D01*
X11677325Y-21261984D02*
X11696372Y-21252460D01*
X11696372Y-21252460D02*
X11705896Y-21233412D01*
X11705896Y-21233412D02*
X11705896Y-21223889D01*
X11705896Y-21223889D02*
X11696372Y-21204841D01*
X11696372Y-21204841D02*
X11677325Y-21195317D01*
X11677325Y-21195317D02*
X11648753Y-21195317D01*
X11648753Y-21195317D02*
X11629706Y-21185793D01*
X11629706Y-21185793D02*
X11620182Y-21166746D01*
X11620182Y-21166746D02*
X11620182Y-21157222D01*
X11620182Y-21157222D02*
X11629706Y-21138174D01*
X11629706Y-21138174D02*
X11648753Y-21128650D01*
X11648753Y-21128650D02*
X11677325Y-21128650D01*
X11677325Y-21128650D02*
X11696372Y-21138174D01*
X11772563Y-21338174D02*
X11782087Y-21328650D01*
X11782087Y-21328650D02*
X11801134Y-21300079D01*
X11801134Y-21300079D02*
X11810658Y-21281031D01*
X11810658Y-21281031D02*
X11820182Y-21252460D01*
X11820182Y-21252460D02*
X11829706Y-21204841D01*
X11829706Y-21204841D02*
X11829706Y-21166746D01*
X11829706Y-21166746D02*
X11820182Y-21119127D01*
X11820182Y-21119127D02*
X11810658Y-21090555D01*
X11810658Y-21090555D02*
X11801134Y-21071508D01*
X11801134Y-21071508D02*
X11782087Y-21042936D01*
X11782087Y-21042936D02*
X11772563Y-21033412D01*
D12*
X6984320Y-21466320D02*
X6984320Y-21402680D01*
X6920680Y-21402680D01*
X6920680Y-21466320D01*
X6984320Y-21466320D01*
D11*
X7296372Y-21325984D02*
X7315420Y-21325984D01*
X7315420Y-21325984D02*
X7334467Y-21335508D01*
X7334467Y-21335508D02*
X7343991Y-21345031D01*
X7343991Y-21345031D02*
X7353515Y-21364079D01*
X7353515Y-21364079D02*
X7363039Y-21402174D01*
X7363039Y-21402174D02*
X7363039Y-21449793D01*
X7363039Y-21449793D02*
X7353515Y-21487889D01*
X7353515Y-21487889D02*
X7343991Y-21506936D01*
X7343991Y-21506936D02*
X7334467Y-21516460D01*
X7334467Y-21516460D02*
X7315420Y-21525984D01*
X7315420Y-21525984D02*
X7296372Y-21525984D01*
X7296372Y-21525984D02*
X7277324Y-21516460D01*
X7277324Y-21516460D02*
X7267801Y-21506936D01*
X7267801Y-21506936D02*
X7258277Y-21487889D01*
X7258277Y-21487889D02*
X7248753Y-21449793D01*
X7248753Y-21449793D02*
X7248753Y-21402174D01*
X7248753Y-21402174D02*
X7258277Y-21364079D01*
X7258277Y-21364079D02*
X7267801Y-21345031D01*
X7267801Y-21345031D02*
X7277324Y-21335508D01*
X7277324Y-21335508D02*
X7296372Y-21325984D01*
X7448753Y-21506936D02*
X7458277Y-21516460D01*
X7458277Y-21516460D02*
X7448753Y-21525984D01*
X7448753Y-21525984D02*
X7439229Y-21516460D01*
X7439229Y-21516460D02*
X7448753Y-21506936D01*
X7448753Y-21506936D02*
X7448753Y-21525984D01*
X7553515Y-21525984D02*
X7591610Y-21525984D01*
X7591610Y-21525984D02*
X7610658Y-21516460D01*
X7610658Y-21516460D02*
X7620182Y-21506936D01*
X7620182Y-21506936D02*
X7639229Y-21478365D01*
X7639229Y-21478365D02*
X7648753Y-21440270D01*
X7648753Y-21440270D02*
X7648753Y-21364079D01*
X7648753Y-21364079D02*
X7639229Y-21345031D01*
X7639229Y-21345031D02*
X7629705Y-21335508D01*
X7629705Y-21335508D02*
X7610658Y-21325984D01*
X7610658Y-21325984D02*
X7572562Y-21325984D01*
X7572562Y-21325984D02*
X7553515Y-21335508D01*
X7553515Y-21335508D02*
X7543991Y-21345031D01*
X7543991Y-21345031D02*
X7534467Y-21364079D01*
X7534467Y-21364079D02*
X7534467Y-21411698D01*
X7534467Y-21411698D02*
X7543991Y-21430746D01*
X7543991Y-21430746D02*
X7553515Y-21440270D01*
X7553515Y-21440270D02*
X7572562Y-21449793D01*
X7572562Y-21449793D02*
X7610658Y-21449793D01*
X7610658Y-21449793D02*
X7629705Y-21440270D01*
X7629705Y-21440270D02*
X7639229Y-21430746D01*
X7639229Y-21430746D02*
X7648753Y-21411698D01*
X7772562Y-21325984D02*
X7791610Y-21325984D01*
X7791610Y-21325984D02*
X7810658Y-21335508D01*
X7810658Y-21335508D02*
X7820182Y-21345031D01*
X7820182Y-21345031D02*
X7829705Y-21364079D01*
X7829705Y-21364079D02*
X7839229Y-21402174D01*
X7839229Y-21402174D02*
X7839229Y-21449793D01*
X7839229Y-21449793D02*
X7829705Y-21487889D01*
X7829705Y-21487889D02*
X7820182Y-21506936D01*
X7820182Y-21506936D02*
X7810658Y-21516460D01*
X7810658Y-21516460D02*
X7791610Y-21525984D01*
X7791610Y-21525984D02*
X7772562Y-21525984D01*
X7772562Y-21525984D02*
X7753515Y-21516460D01*
X7753515Y-21516460D02*
X7743991Y-21506936D01*
X7743991Y-21506936D02*
X7734467Y-21487889D01*
X7734467Y-21487889D02*
X7724943Y-21449793D01*
X7724943Y-21449793D02*
X7724943Y-21402174D01*
X7724943Y-21402174D02*
X7734467Y-21364079D01*
X7734467Y-21364079D02*
X7743991Y-21345031D01*
X7743991Y-21345031D02*
X7753515Y-21335508D01*
X7753515Y-21335508D02*
X7772562Y-21325984D01*
X7963039Y-21325984D02*
X7982086Y-21325984D01*
X7982086Y-21325984D02*
X8001134Y-21335508D01*
X8001134Y-21335508D02*
X8010658Y-21345031D01*
X8010658Y-21345031D02*
X8020182Y-21364079D01*
X8020182Y-21364079D02*
X8029705Y-21402174D01*
X8029705Y-21402174D02*
X8029705Y-21449793D01*
X8029705Y-21449793D02*
X8020182Y-21487889D01*
X8020182Y-21487889D02*
X8010658Y-21506936D01*
X8010658Y-21506936D02*
X8001134Y-21516460D01*
X8001134Y-21516460D02*
X7982086Y-21525984D01*
X7982086Y-21525984D02*
X7963039Y-21525984D01*
X7963039Y-21525984D02*
X7943991Y-21516460D01*
X7943991Y-21516460D02*
X7934467Y-21506936D01*
X7934467Y-21506936D02*
X7924943Y-21487889D01*
X7924943Y-21487889D02*
X7915420Y-21449793D01*
X7915420Y-21449793D02*
X7915420Y-21402174D01*
X7915420Y-21402174D02*
X7924943Y-21364079D01*
X7924943Y-21364079D02*
X7934467Y-21345031D01*
X7934467Y-21345031D02*
X7943991Y-21335508D01*
X7943991Y-21335508D02*
X7963039Y-21325984D01*
X8115420Y-21525984D02*
X8115420Y-21392650D01*
X8115420Y-21411698D02*
X8124943Y-21402174D01*
X8124943Y-21402174D02*
X8143991Y-21392650D01*
X8143991Y-21392650D02*
X8172563Y-21392650D01*
X8172563Y-21392650D02*
X8191610Y-21402174D01*
X8191610Y-21402174D02*
X8201134Y-21421222D01*
X8201134Y-21421222D02*
X8201134Y-21525984D01*
X8201134Y-21421222D02*
X8210658Y-21402174D01*
X8210658Y-21402174D02*
X8229705Y-21392650D01*
X8229705Y-21392650D02*
X8258277Y-21392650D01*
X8258277Y-21392650D02*
X8277324Y-21402174D01*
X8277324Y-21402174D02*
X8286848Y-21421222D01*
X8286848Y-21421222D02*
X8286848Y-21525984D01*
X8382086Y-21525984D02*
X8382086Y-21392650D01*
X8382086Y-21411698D02*
X8391610Y-21402174D01*
X8391610Y-21402174D02*
X8410658Y-21392650D01*
X8410658Y-21392650D02*
X8439229Y-21392650D01*
X8439229Y-21392650D02*
X8458277Y-21402174D01*
X8458277Y-21402174D02*
X8467801Y-21421222D01*
X8467801Y-21421222D02*
X8467801Y-21525984D01*
X8467801Y-21421222D02*
X8477325Y-21402174D01*
X8477325Y-21402174D02*
X8496372Y-21392650D01*
X8496372Y-21392650D02*
X8524944Y-21392650D01*
X8524944Y-21392650D02*
X8543991Y-21402174D01*
X8543991Y-21402174D02*
X8553515Y-21421222D01*
X8553515Y-21421222D02*
X8553515Y-21525984D01*
X8943991Y-21316460D02*
X8772563Y-21573603D01*
X9201134Y-21325984D02*
X9220182Y-21325984D01*
X9220182Y-21325984D02*
X9239229Y-21335508D01*
X9239229Y-21335508D02*
X9248753Y-21345031D01*
X9248753Y-21345031D02*
X9258277Y-21364079D01*
X9258277Y-21364079D02*
X9267801Y-21402174D01*
X9267801Y-21402174D02*
X9267801Y-21449793D01*
X9267801Y-21449793D02*
X9258277Y-21487889D01*
X9258277Y-21487889D02*
X9248753Y-21506936D01*
X9248753Y-21506936D02*
X9239229Y-21516460D01*
X9239229Y-21516460D02*
X9220182Y-21525984D01*
X9220182Y-21525984D02*
X9201134Y-21525984D01*
X9201134Y-21525984D02*
X9182087Y-21516460D01*
X9182087Y-21516460D02*
X9172563Y-21506936D01*
X9172563Y-21506936D02*
X9163039Y-21487889D01*
X9163039Y-21487889D02*
X9153515Y-21449793D01*
X9153515Y-21449793D02*
X9153515Y-21402174D01*
X9153515Y-21402174D02*
X9163039Y-21364079D01*
X9163039Y-21364079D02*
X9172563Y-21345031D01*
X9172563Y-21345031D02*
X9182087Y-21335508D01*
X9182087Y-21335508D02*
X9201134Y-21325984D01*
X9353515Y-21506936D02*
X9363039Y-21516460D01*
X9363039Y-21516460D02*
X9353515Y-21525984D01*
X9353515Y-21525984D02*
X9343991Y-21516460D01*
X9343991Y-21516460D02*
X9353515Y-21506936D01*
X9353515Y-21506936D02*
X9353515Y-21525984D01*
X9486848Y-21325984D02*
X9505896Y-21325984D01*
X9505896Y-21325984D02*
X9524944Y-21335508D01*
X9524944Y-21335508D02*
X9534468Y-21345031D01*
X9534468Y-21345031D02*
X9543991Y-21364079D01*
X9543991Y-21364079D02*
X9553515Y-21402174D01*
X9553515Y-21402174D02*
X9553515Y-21449793D01*
X9553515Y-21449793D02*
X9543991Y-21487889D01*
X9543991Y-21487889D02*
X9534468Y-21506936D01*
X9534468Y-21506936D02*
X9524944Y-21516460D01*
X9524944Y-21516460D02*
X9505896Y-21525984D01*
X9505896Y-21525984D02*
X9486848Y-21525984D01*
X9486848Y-21525984D02*
X9467801Y-21516460D01*
X9467801Y-21516460D02*
X9458277Y-21506936D01*
X9458277Y-21506936D02*
X9448753Y-21487889D01*
X9448753Y-21487889D02*
X9439229Y-21449793D01*
X9439229Y-21449793D02*
X9439229Y-21402174D01*
X9439229Y-21402174D02*
X9448753Y-21364079D01*
X9448753Y-21364079D02*
X9458277Y-21345031D01*
X9458277Y-21345031D02*
X9467801Y-21335508D01*
X9467801Y-21335508D02*
X9486848Y-21325984D01*
X9620182Y-21325984D02*
X9743991Y-21325984D01*
X9743991Y-21325984D02*
X9677325Y-21402174D01*
X9677325Y-21402174D02*
X9705896Y-21402174D01*
X9705896Y-21402174D02*
X9724944Y-21411698D01*
X9724944Y-21411698D02*
X9734468Y-21421222D01*
X9734468Y-21421222D02*
X9743991Y-21440270D01*
X9743991Y-21440270D02*
X9743991Y-21487889D01*
X9743991Y-21487889D02*
X9734468Y-21506936D01*
X9734468Y-21506936D02*
X9724944Y-21516460D01*
X9724944Y-21516460D02*
X9705896Y-21525984D01*
X9705896Y-21525984D02*
X9648753Y-21525984D01*
X9648753Y-21525984D02*
X9629706Y-21516460D01*
X9629706Y-21516460D02*
X9620182Y-21506936D01*
X9924944Y-21325984D02*
X9829706Y-21325984D01*
X9829706Y-21325984D02*
X9820182Y-21421222D01*
X9820182Y-21421222D02*
X9829706Y-21411698D01*
X9829706Y-21411698D02*
X9848753Y-21402174D01*
X9848753Y-21402174D02*
X9896372Y-21402174D01*
X9896372Y-21402174D02*
X9915420Y-21411698D01*
X9915420Y-21411698D02*
X9924944Y-21421222D01*
X9924944Y-21421222D02*
X9934468Y-21440270D01*
X9934468Y-21440270D02*
X9934468Y-21487889D01*
X9934468Y-21487889D02*
X9924944Y-21506936D01*
X9924944Y-21506936D02*
X9915420Y-21516460D01*
X9915420Y-21516460D02*
X9896372Y-21525984D01*
X9896372Y-21525984D02*
X9848753Y-21525984D01*
X9848753Y-21525984D02*
X9829706Y-21516460D01*
X9829706Y-21516460D02*
X9820182Y-21506936D01*
X10105896Y-21392650D02*
X10105896Y-21525984D01*
X10058277Y-21316460D02*
X10010658Y-21459317D01*
X10010658Y-21459317D02*
X10134468Y-21459317D01*
X10201134Y-21325984D02*
X10201134Y-21364079D01*
X10277325Y-21325984D02*
X10277325Y-21364079D01*
X10572563Y-21602174D02*
X10563039Y-21592650D01*
X10563039Y-21592650D02*
X10543991Y-21564079D01*
X10543991Y-21564079D02*
X10534468Y-21545031D01*
X10534468Y-21545031D02*
X10524944Y-21516460D01*
X10524944Y-21516460D02*
X10515420Y-21468841D01*
X10515420Y-21468841D02*
X10515420Y-21430746D01*
X10515420Y-21430746D02*
X10524944Y-21383127D01*
X10524944Y-21383127D02*
X10534468Y-21354555D01*
X10534468Y-21354555D02*
X10543991Y-21335508D01*
X10543991Y-21335508D02*
X10563039Y-21306936D01*
X10563039Y-21306936D02*
X10572563Y-21297412D01*
X10639230Y-21345031D02*
X10648753Y-21335508D01*
X10648753Y-21335508D02*
X10667801Y-21325984D01*
X10667801Y-21325984D02*
X10715420Y-21325984D01*
X10715420Y-21325984D02*
X10734468Y-21335508D01*
X10734468Y-21335508D02*
X10743991Y-21345031D01*
X10743991Y-21345031D02*
X10753515Y-21364079D01*
X10753515Y-21364079D02*
X10753515Y-21383127D01*
X10753515Y-21383127D02*
X10743991Y-21411698D01*
X10743991Y-21411698D02*
X10629706Y-21525984D01*
X10629706Y-21525984D02*
X10753515Y-21525984D01*
X10991611Y-21525984D02*
X10991611Y-21325984D01*
X11077325Y-21525984D02*
X11077325Y-21421222D01*
X11077325Y-21421222D02*
X11067801Y-21402174D01*
X11067801Y-21402174D02*
X11048753Y-21392650D01*
X11048753Y-21392650D02*
X11020182Y-21392650D01*
X11020182Y-21392650D02*
X11001134Y-21402174D01*
X11001134Y-21402174D02*
X10991611Y-21411698D01*
X11201134Y-21525984D02*
X11182087Y-21516460D01*
X11182087Y-21516460D02*
X11172563Y-21506936D01*
X11172563Y-21506936D02*
X11163039Y-21487889D01*
X11163039Y-21487889D02*
X11163039Y-21430746D01*
X11163039Y-21430746D02*
X11172563Y-21411698D01*
X11172563Y-21411698D02*
X11182087Y-21402174D01*
X11182087Y-21402174D02*
X11201134Y-21392650D01*
X11201134Y-21392650D02*
X11229706Y-21392650D01*
X11229706Y-21392650D02*
X11248753Y-21402174D01*
X11248753Y-21402174D02*
X11258277Y-21411698D01*
X11258277Y-21411698D02*
X11267801Y-21430746D01*
X11267801Y-21430746D02*
X11267801Y-21487889D01*
X11267801Y-21487889D02*
X11258277Y-21506936D01*
X11258277Y-21506936D02*
X11248753Y-21516460D01*
X11248753Y-21516460D02*
X11229706Y-21525984D01*
X11229706Y-21525984D02*
X11201134Y-21525984D01*
X11382087Y-21525984D02*
X11363039Y-21516460D01*
X11363039Y-21516460D02*
X11353515Y-21497412D01*
X11353515Y-21497412D02*
X11353515Y-21325984D01*
X11534468Y-21516460D02*
X11515420Y-21525984D01*
X11515420Y-21525984D02*
X11477325Y-21525984D01*
X11477325Y-21525984D02*
X11458277Y-21516460D01*
X11458277Y-21516460D02*
X11448753Y-21497412D01*
X11448753Y-21497412D02*
X11448753Y-21421222D01*
X11448753Y-21421222D02*
X11458277Y-21402174D01*
X11458277Y-21402174D02*
X11477325Y-21392650D01*
X11477325Y-21392650D02*
X11515420Y-21392650D01*
X11515420Y-21392650D02*
X11534468Y-21402174D01*
X11534468Y-21402174D02*
X11543991Y-21421222D01*
X11543991Y-21421222D02*
X11543991Y-21440270D01*
X11543991Y-21440270D02*
X11448753Y-21459317D01*
X11620182Y-21516460D02*
X11639230Y-21525984D01*
X11639230Y-21525984D02*
X11677325Y-21525984D01*
X11677325Y-21525984D02*
X11696372Y-21516460D01*
X11696372Y-21516460D02*
X11705896Y-21497412D01*
X11705896Y-21497412D02*
X11705896Y-21487889D01*
X11705896Y-21487889D02*
X11696372Y-21468841D01*
X11696372Y-21468841D02*
X11677325Y-21459317D01*
X11677325Y-21459317D02*
X11648753Y-21459317D01*
X11648753Y-21459317D02*
X11629706Y-21449793D01*
X11629706Y-21449793D02*
X11620182Y-21430746D01*
X11620182Y-21430746D02*
X11620182Y-21421222D01*
X11620182Y-21421222D02*
X11629706Y-21402174D01*
X11629706Y-21402174D02*
X11648753Y-21392650D01*
X11648753Y-21392650D02*
X11677325Y-21392650D01*
X11677325Y-21392650D02*
X11696372Y-21402174D01*
X11772563Y-21602174D02*
X11782087Y-21592650D01*
X11782087Y-21592650D02*
X11801134Y-21564079D01*
X11801134Y-21564079D02*
X11810658Y-21545031D01*
X11810658Y-21545031D02*
X11820182Y-21516460D01*
X11820182Y-21516460D02*
X11829706Y-21468841D01*
X11829706Y-21468841D02*
X11829706Y-21430746D01*
X11829706Y-21430746D02*
X11820182Y-21383127D01*
X11820182Y-21383127D02*
X11810658Y-21354555D01*
X11810658Y-21354555D02*
X11801134Y-21335508D01*
X11801134Y-21335508D02*
X11782087Y-21306936D01*
X11782087Y-21306936D02*
X11772563Y-21297412D01*
D12*
X6947500Y-21748500D02*
X6997500Y-21698500D01*
X6947500Y-21648500D01*
X6897500Y-21698500D01*
X6947500Y-21748500D01*
D11*
X7363039Y-21789984D02*
X7248753Y-21789984D01*
X7305896Y-21789984D02*
X7305896Y-21589984D01*
X7305896Y-21589984D02*
X7286848Y-21618555D01*
X7286848Y-21618555D02*
X7267801Y-21637603D01*
X7267801Y-21637603D02*
X7248753Y-21647127D01*
X7448753Y-21770936D02*
X7458277Y-21780460D01*
X7458277Y-21780460D02*
X7448753Y-21789984D01*
X7448753Y-21789984D02*
X7439229Y-21780460D01*
X7439229Y-21780460D02*
X7448753Y-21770936D01*
X7448753Y-21770936D02*
X7448753Y-21789984D01*
X7582086Y-21589984D02*
X7601134Y-21589984D01*
X7601134Y-21589984D02*
X7620182Y-21599508D01*
X7620182Y-21599508D02*
X7629705Y-21609031D01*
X7629705Y-21609031D02*
X7639229Y-21628079D01*
X7639229Y-21628079D02*
X7648753Y-21666174D01*
X7648753Y-21666174D02*
X7648753Y-21713793D01*
X7648753Y-21713793D02*
X7639229Y-21751889D01*
X7639229Y-21751889D02*
X7629705Y-21770936D01*
X7629705Y-21770936D02*
X7620182Y-21780460D01*
X7620182Y-21780460D02*
X7601134Y-21789984D01*
X7601134Y-21789984D02*
X7582086Y-21789984D01*
X7582086Y-21789984D02*
X7563039Y-21780460D01*
X7563039Y-21780460D02*
X7553515Y-21770936D01*
X7553515Y-21770936D02*
X7543991Y-21751889D01*
X7543991Y-21751889D02*
X7534467Y-21713793D01*
X7534467Y-21713793D02*
X7534467Y-21666174D01*
X7534467Y-21666174D02*
X7543991Y-21628079D01*
X7543991Y-21628079D02*
X7553515Y-21609031D01*
X7553515Y-21609031D02*
X7563039Y-21599508D01*
X7563039Y-21599508D02*
X7582086Y-21589984D01*
X7772562Y-21589984D02*
X7791610Y-21589984D01*
X7791610Y-21589984D02*
X7810658Y-21599508D01*
X7810658Y-21599508D02*
X7820182Y-21609031D01*
X7820182Y-21609031D02*
X7829705Y-21628079D01*
X7829705Y-21628079D02*
X7839229Y-21666174D01*
X7839229Y-21666174D02*
X7839229Y-21713793D01*
X7839229Y-21713793D02*
X7829705Y-21751889D01*
X7829705Y-21751889D02*
X7820182Y-21770936D01*
X7820182Y-21770936D02*
X7810658Y-21780460D01*
X7810658Y-21780460D02*
X7791610Y-21789984D01*
X7791610Y-21789984D02*
X7772562Y-21789984D01*
X7772562Y-21789984D02*
X7753515Y-21780460D01*
X7753515Y-21780460D02*
X7743991Y-21770936D01*
X7743991Y-21770936D02*
X7734467Y-21751889D01*
X7734467Y-21751889D02*
X7724943Y-21713793D01*
X7724943Y-21713793D02*
X7724943Y-21666174D01*
X7724943Y-21666174D02*
X7734467Y-21628079D01*
X7734467Y-21628079D02*
X7743991Y-21609031D01*
X7743991Y-21609031D02*
X7753515Y-21599508D01*
X7753515Y-21599508D02*
X7772562Y-21589984D01*
X7963039Y-21589984D02*
X7982086Y-21589984D01*
X7982086Y-21589984D02*
X8001134Y-21599508D01*
X8001134Y-21599508D02*
X8010658Y-21609031D01*
X8010658Y-21609031D02*
X8020182Y-21628079D01*
X8020182Y-21628079D02*
X8029705Y-21666174D01*
X8029705Y-21666174D02*
X8029705Y-21713793D01*
X8029705Y-21713793D02*
X8020182Y-21751889D01*
X8020182Y-21751889D02*
X8010658Y-21770936D01*
X8010658Y-21770936D02*
X8001134Y-21780460D01*
X8001134Y-21780460D02*
X7982086Y-21789984D01*
X7982086Y-21789984D02*
X7963039Y-21789984D01*
X7963039Y-21789984D02*
X7943991Y-21780460D01*
X7943991Y-21780460D02*
X7934467Y-21770936D01*
X7934467Y-21770936D02*
X7924943Y-21751889D01*
X7924943Y-21751889D02*
X7915420Y-21713793D01*
X7915420Y-21713793D02*
X7915420Y-21666174D01*
X7915420Y-21666174D02*
X7924943Y-21628079D01*
X7924943Y-21628079D02*
X7934467Y-21609031D01*
X7934467Y-21609031D02*
X7943991Y-21599508D01*
X7943991Y-21599508D02*
X7963039Y-21589984D01*
X8115420Y-21789984D02*
X8115420Y-21656650D01*
X8115420Y-21675698D02*
X8124943Y-21666174D01*
X8124943Y-21666174D02*
X8143991Y-21656650D01*
X8143991Y-21656650D02*
X8172563Y-21656650D01*
X8172563Y-21656650D02*
X8191610Y-21666174D01*
X8191610Y-21666174D02*
X8201134Y-21685222D01*
X8201134Y-21685222D02*
X8201134Y-21789984D01*
X8201134Y-21685222D02*
X8210658Y-21666174D01*
X8210658Y-21666174D02*
X8229705Y-21656650D01*
X8229705Y-21656650D02*
X8258277Y-21656650D01*
X8258277Y-21656650D02*
X8277324Y-21666174D01*
X8277324Y-21666174D02*
X8286848Y-21685222D01*
X8286848Y-21685222D02*
X8286848Y-21789984D01*
X8382086Y-21789984D02*
X8382086Y-21656650D01*
X8382086Y-21675698D02*
X8391610Y-21666174D01*
X8391610Y-21666174D02*
X8410658Y-21656650D01*
X8410658Y-21656650D02*
X8439229Y-21656650D01*
X8439229Y-21656650D02*
X8458277Y-21666174D01*
X8458277Y-21666174D02*
X8467801Y-21685222D01*
X8467801Y-21685222D02*
X8467801Y-21789984D01*
X8467801Y-21685222D02*
X8477325Y-21666174D01*
X8477325Y-21666174D02*
X8496372Y-21656650D01*
X8496372Y-21656650D02*
X8524944Y-21656650D01*
X8524944Y-21656650D02*
X8543991Y-21666174D01*
X8543991Y-21666174D02*
X8553515Y-21685222D01*
X8553515Y-21685222D02*
X8553515Y-21789984D01*
X8943991Y-21580460D02*
X8772563Y-21837603D01*
X9201134Y-21589984D02*
X9220182Y-21589984D01*
X9220182Y-21589984D02*
X9239229Y-21599508D01*
X9239229Y-21599508D02*
X9248753Y-21609031D01*
X9248753Y-21609031D02*
X9258277Y-21628079D01*
X9258277Y-21628079D02*
X9267801Y-21666174D01*
X9267801Y-21666174D02*
X9267801Y-21713793D01*
X9267801Y-21713793D02*
X9258277Y-21751889D01*
X9258277Y-21751889D02*
X9248753Y-21770936D01*
X9248753Y-21770936D02*
X9239229Y-21780460D01*
X9239229Y-21780460D02*
X9220182Y-21789984D01*
X9220182Y-21789984D02*
X9201134Y-21789984D01*
X9201134Y-21789984D02*
X9182087Y-21780460D01*
X9182087Y-21780460D02*
X9172563Y-21770936D01*
X9172563Y-21770936D02*
X9163039Y-21751889D01*
X9163039Y-21751889D02*
X9153515Y-21713793D01*
X9153515Y-21713793D02*
X9153515Y-21666174D01*
X9153515Y-21666174D02*
X9163039Y-21628079D01*
X9163039Y-21628079D02*
X9172563Y-21609031D01*
X9172563Y-21609031D02*
X9182087Y-21599508D01*
X9182087Y-21599508D02*
X9201134Y-21589984D01*
X9353515Y-21770936D02*
X9363039Y-21780460D01*
X9363039Y-21780460D02*
X9353515Y-21789984D01*
X9353515Y-21789984D02*
X9343991Y-21780460D01*
X9343991Y-21780460D02*
X9353515Y-21770936D01*
X9353515Y-21770936D02*
X9353515Y-21789984D01*
X9486848Y-21589984D02*
X9505896Y-21589984D01*
X9505896Y-21589984D02*
X9524944Y-21599508D01*
X9524944Y-21599508D02*
X9534468Y-21609031D01*
X9534468Y-21609031D02*
X9543991Y-21628079D01*
X9543991Y-21628079D02*
X9553515Y-21666174D01*
X9553515Y-21666174D02*
X9553515Y-21713793D01*
X9553515Y-21713793D02*
X9543991Y-21751889D01*
X9543991Y-21751889D02*
X9534468Y-21770936D01*
X9534468Y-21770936D02*
X9524944Y-21780460D01*
X9524944Y-21780460D02*
X9505896Y-21789984D01*
X9505896Y-21789984D02*
X9486848Y-21789984D01*
X9486848Y-21789984D02*
X9467801Y-21780460D01*
X9467801Y-21780460D02*
X9458277Y-21770936D01*
X9458277Y-21770936D02*
X9448753Y-21751889D01*
X9448753Y-21751889D02*
X9439229Y-21713793D01*
X9439229Y-21713793D02*
X9439229Y-21666174D01*
X9439229Y-21666174D02*
X9448753Y-21628079D01*
X9448753Y-21628079D02*
X9458277Y-21609031D01*
X9458277Y-21609031D02*
X9467801Y-21599508D01*
X9467801Y-21599508D02*
X9486848Y-21589984D01*
X9620182Y-21589984D02*
X9743991Y-21589984D01*
X9743991Y-21589984D02*
X9677325Y-21666174D01*
X9677325Y-21666174D02*
X9705896Y-21666174D01*
X9705896Y-21666174D02*
X9724944Y-21675698D01*
X9724944Y-21675698D02*
X9734468Y-21685222D01*
X9734468Y-21685222D02*
X9743991Y-21704270D01*
X9743991Y-21704270D02*
X9743991Y-21751889D01*
X9743991Y-21751889D02*
X9734468Y-21770936D01*
X9734468Y-21770936D02*
X9724944Y-21780460D01*
X9724944Y-21780460D02*
X9705896Y-21789984D01*
X9705896Y-21789984D02*
X9648753Y-21789984D01*
X9648753Y-21789984D02*
X9629706Y-21780460D01*
X9629706Y-21780460D02*
X9620182Y-21770936D01*
X9839229Y-21789984D02*
X9877325Y-21789984D01*
X9877325Y-21789984D02*
X9896372Y-21780460D01*
X9896372Y-21780460D02*
X9905896Y-21770936D01*
X9905896Y-21770936D02*
X9924944Y-21742365D01*
X9924944Y-21742365D02*
X9934468Y-21704270D01*
X9934468Y-21704270D02*
X9934468Y-21628079D01*
X9934468Y-21628079D02*
X9924944Y-21609031D01*
X9924944Y-21609031D02*
X9915420Y-21599508D01*
X9915420Y-21599508D02*
X9896372Y-21589984D01*
X9896372Y-21589984D02*
X9858277Y-21589984D01*
X9858277Y-21589984D02*
X9839229Y-21599508D01*
X9839229Y-21599508D02*
X9829706Y-21609031D01*
X9829706Y-21609031D02*
X9820182Y-21628079D01*
X9820182Y-21628079D02*
X9820182Y-21675698D01*
X9820182Y-21675698D02*
X9829706Y-21694746D01*
X9829706Y-21694746D02*
X9839229Y-21704270D01*
X9839229Y-21704270D02*
X9858277Y-21713793D01*
X9858277Y-21713793D02*
X9896372Y-21713793D01*
X9896372Y-21713793D02*
X9915420Y-21704270D01*
X9915420Y-21704270D02*
X9924944Y-21694746D01*
X9924944Y-21694746D02*
X9934468Y-21675698D01*
X10105896Y-21656650D02*
X10105896Y-21789984D01*
X10058277Y-21580460D02*
X10010658Y-21723317D01*
X10010658Y-21723317D02*
X10134468Y-21723317D01*
X10201134Y-21589984D02*
X10201134Y-21628079D01*
X10277325Y-21589984D02*
X10277325Y-21628079D01*
X10572563Y-21866174D02*
X10563039Y-21856650D01*
X10563039Y-21856650D02*
X10543991Y-21828079D01*
X10543991Y-21828079D02*
X10534468Y-21809031D01*
X10534468Y-21809031D02*
X10524944Y-21780460D01*
X10524944Y-21780460D02*
X10515420Y-21732841D01*
X10515420Y-21732841D02*
X10515420Y-21694746D01*
X10515420Y-21694746D02*
X10524944Y-21647127D01*
X10524944Y-21647127D02*
X10534468Y-21618555D01*
X10534468Y-21618555D02*
X10543991Y-21599508D01*
X10543991Y-21599508D02*
X10563039Y-21570936D01*
X10563039Y-21570936D02*
X10572563Y-21561412D01*
X10753515Y-21789984D02*
X10639230Y-21789984D01*
X10696372Y-21789984D02*
X10696372Y-21589984D01*
X10696372Y-21589984D02*
X10677325Y-21618555D01*
X10677325Y-21618555D02*
X10658277Y-21637603D01*
X10658277Y-21637603D02*
X10639230Y-21647127D01*
X10934468Y-21589984D02*
X10839230Y-21589984D01*
X10839230Y-21589984D02*
X10829706Y-21685222D01*
X10829706Y-21685222D02*
X10839230Y-21675698D01*
X10839230Y-21675698D02*
X10858277Y-21666174D01*
X10858277Y-21666174D02*
X10905896Y-21666174D01*
X10905896Y-21666174D02*
X10924944Y-21675698D01*
X10924944Y-21675698D02*
X10934468Y-21685222D01*
X10934468Y-21685222D02*
X10943991Y-21704270D01*
X10943991Y-21704270D02*
X10943991Y-21751889D01*
X10943991Y-21751889D02*
X10934468Y-21770936D01*
X10934468Y-21770936D02*
X10924944Y-21780460D01*
X10924944Y-21780460D02*
X10905896Y-21789984D01*
X10905896Y-21789984D02*
X10858277Y-21789984D01*
X10858277Y-21789984D02*
X10839230Y-21780460D01*
X10839230Y-21780460D02*
X10829706Y-21770936D01*
X11182087Y-21789984D02*
X11182087Y-21589984D01*
X11267801Y-21789984D02*
X11267801Y-21685222D01*
X11267801Y-21685222D02*
X11258277Y-21666174D01*
X11258277Y-21666174D02*
X11239230Y-21656650D01*
X11239230Y-21656650D02*
X11210658Y-21656650D01*
X11210658Y-21656650D02*
X11191610Y-21666174D01*
X11191610Y-21666174D02*
X11182087Y-21675698D01*
X11391610Y-21789984D02*
X11372563Y-21780460D01*
X11372563Y-21780460D02*
X11363039Y-21770936D01*
X11363039Y-21770936D02*
X11353515Y-21751889D01*
X11353515Y-21751889D02*
X11353515Y-21694746D01*
X11353515Y-21694746D02*
X11363039Y-21675698D01*
X11363039Y-21675698D02*
X11372563Y-21666174D01*
X11372563Y-21666174D02*
X11391610Y-21656650D01*
X11391610Y-21656650D02*
X11420182Y-21656650D01*
X11420182Y-21656650D02*
X11439230Y-21666174D01*
X11439230Y-21666174D02*
X11448753Y-21675698D01*
X11448753Y-21675698D02*
X11458277Y-21694746D01*
X11458277Y-21694746D02*
X11458277Y-21751889D01*
X11458277Y-21751889D02*
X11448753Y-21770936D01*
X11448753Y-21770936D02*
X11439230Y-21780460D01*
X11439230Y-21780460D02*
X11420182Y-21789984D01*
X11420182Y-21789984D02*
X11391610Y-21789984D01*
X11572563Y-21789984D02*
X11553515Y-21780460D01*
X11553515Y-21780460D02*
X11543991Y-21761412D01*
X11543991Y-21761412D02*
X11543991Y-21589984D01*
X11724944Y-21780460D02*
X11705896Y-21789984D01*
X11705896Y-21789984D02*
X11667801Y-21789984D01*
X11667801Y-21789984D02*
X11648753Y-21780460D01*
X11648753Y-21780460D02*
X11639230Y-21761412D01*
X11639230Y-21761412D02*
X11639230Y-21685222D01*
X11639230Y-21685222D02*
X11648753Y-21666174D01*
X11648753Y-21666174D02*
X11667801Y-21656650D01*
X11667801Y-21656650D02*
X11705896Y-21656650D01*
X11705896Y-21656650D02*
X11724944Y-21666174D01*
X11724944Y-21666174D02*
X11734468Y-21685222D01*
X11734468Y-21685222D02*
X11734468Y-21704270D01*
X11734468Y-21704270D02*
X11639230Y-21723317D01*
X11810658Y-21780460D02*
X11829706Y-21789984D01*
X11829706Y-21789984D02*
X11867801Y-21789984D01*
X11867801Y-21789984D02*
X11886849Y-21780460D01*
X11886849Y-21780460D02*
X11896372Y-21761412D01*
X11896372Y-21761412D02*
X11896372Y-21751889D01*
X11896372Y-21751889D02*
X11886849Y-21732841D01*
X11886849Y-21732841D02*
X11867801Y-21723317D01*
X11867801Y-21723317D02*
X11839230Y-21723317D01*
X11839230Y-21723317D02*
X11820182Y-21713793D01*
X11820182Y-21713793D02*
X11810658Y-21694746D01*
X11810658Y-21694746D02*
X11810658Y-21685222D01*
X11810658Y-21685222D02*
X11820182Y-21666174D01*
X11820182Y-21666174D02*
X11839230Y-21656650D01*
X11839230Y-21656650D02*
X11867801Y-21656650D01*
X11867801Y-21656650D02*
X11886849Y-21666174D01*
X11963039Y-21866174D02*
X11972563Y-21856650D01*
X11972563Y-21856650D02*
X11991611Y-21828079D01*
X11991611Y-21828079D02*
X12001134Y-21809031D01*
X12001134Y-21809031D02*
X12010658Y-21780460D01*
X12010658Y-21780460D02*
X12020182Y-21732841D01*
X12020182Y-21732841D02*
X12020182Y-21694746D01*
X12020182Y-21694746D02*
X12010658Y-21647127D01*
X12010658Y-21647127D02*
X12001134Y-21618555D01*
X12001134Y-21618555D02*
X11991611Y-21599508D01*
X11991611Y-21599508D02*
X11972563Y-21570936D01*
X11972563Y-21570936D02*
X11963039Y-21561412D01*
D13*
X6847500Y-21887500D02*
X6997500Y-22037500D01*
X6997500Y-21887500D02*
X6847500Y-22037500D01*
X6997500Y-21962500D02*
G75*
G02*
X6847500Y-21962500I-75000J0D01*
G01*
X6847500Y-21962500D02*
G75*
G02*
X6997500Y-21962500I75000J0D01*
G01*
D11*
X7363039Y-22053984D02*
X7248753Y-22053984D01*
X7305896Y-22053984D02*
X7305896Y-21853984D01*
X7305896Y-21853984D02*
X7286848Y-21882555D01*
X7286848Y-21882555D02*
X7267801Y-21901603D01*
X7267801Y-21901603D02*
X7248753Y-21911127D01*
X7448753Y-22034936D02*
X7458277Y-22044460D01*
X7458277Y-22044460D02*
X7448753Y-22053984D01*
X7448753Y-22053984D02*
X7439229Y-22044460D01*
X7439229Y-22044460D02*
X7448753Y-22034936D01*
X7448753Y-22034936D02*
X7448753Y-22053984D01*
X7639229Y-21853984D02*
X7543991Y-21853984D01*
X7543991Y-21853984D02*
X7534467Y-21949222D01*
X7534467Y-21949222D02*
X7543991Y-21939698D01*
X7543991Y-21939698D02*
X7563039Y-21930174D01*
X7563039Y-21930174D02*
X7610658Y-21930174D01*
X7610658Y-21930174D02*
X7629705Y-21939698D01*
X7629705Y-21939698D02*
X7639229Y-21949222D01*
X7639229Y-21949222D02*
X7648753Y-21968270D01*
X7648753Y-21968270D02*
X7648753Y-22015889D01*
X7648753Y-22015889D02*
X7639229Y-22034936D01*
X7639229Y-22034936D02*
X7629705Y-22044460D01*
X7629705Y-22044460D02*
X7610658Y-22053984D01*
X7610658Y-22053984D02*
X7563039Y-22053984D01*
X7563039Y-22053984D02*
X7543991Y-22044460D01*
X7543991Y-22044460D02*
X7534467Y-22034936D01*
X7772562Y-21853984D02*
X7791610Y-21853984D01*
X7791610Y-21853984D02*
X7810658Y-21863508D01*
X7810658Y-21863508D02*
X7820182Y-21873031D01*
X7820182Y-21873031D02*
X7829705Y-21892079D01*
X7829705Y-21892079D02*
X7839229Y-21930174D01*
X7839229Y-21930174D02*
X7839229Y-21977793D01*
X7839229Y-21977793D02*
X7829705Y-22015889D01*
X7829705Y-22015889D02*
X7820182Y-22034936D01*
X7820182Y-22034936D02*
X7810658Y-22044460D01*
X7810658Y-22044460D02*
X7791610Y-22053984D01*
X7791610Y-22053984D02*
X7772562Y-22053984D01*
X7772562Y-22053984D02*
X7753515Y-22044460D01*
X7753515Y-22044460D02*
X7743991Y-22034936D01*
X7743991Y-22034936D02*
X7734467Y-22015889D01*
X7734467Y-22015889D02*
X7724943Y-21977793D01*
X7724943Y-21977793D02*
X7724943Y-21930174D01*
X7724943Y-21930174D02*
X7734467Y-21892079D01*
X7734467Y-21892079D02*
X7743991Y-21873031D01*
X7743991Y-21873031D02*
X7753515Y-21863508D01*
X7753515Y-21863508D02*
X7772562Y-21853984D01*
X7963039Y-21853984D02*
X7982086Y-21853984D01*
X7982086Y-21853984D02*
X8001134Y-21863508D01*
X8001134Y-21863508D02*
X8010658Y-21873031D01*
X8010658Y-21873031D02*
X8020182Y-21892079D01*
X8020182Y-21892079D02*
X8029705Y-21930174D01*
X8029705Y-21930174D02*
X8029705Y-21977793D01*
X8029705Y-21977793D02*
X8020182Y-22015889D01*
X8020182Y-22015889D02*
X8010658Y-22034936D01*
X8010658Y-22034936D02*
X8001134Y-22044460D01*
X8001134Y-22044460D02*
X7982086Y-22053984D01*
X7982086Y-22053984D02*
X7963039Y-22053984D01*
X7963039Y-22053984D02*
X7943991Y-22044460D01*
X7943991Y-22044460D02*
X7934467Y-22034936D01*
X7934467Y-22034936D02*
X7924943Y-22015889D01*
X7924943Y-22015889D02*
X7915420Y-21977793D01*
X7915420Y-21977793D02*
X7915420Y-21930174D01*
X7915420Y-21930174D02*
X7924943Y-21892079D01*
X7924943Y-21892079D02*
X7934467Y-21873031D01*
X7934467Y-21873031D02*
X7943991Y-21863508D01*
X7943991Y-21863508D02*
X7963039Y-21853984D01*
X8115420Y-22053984D02*
X8115420Y-21920650D01*
X8115420Y-21939698D02*
X8124943Y-21930174D01*
X8124943Y-21930174D02*
X8143991Y-21920650D01*
X8143991Y-21920650D02*
X8172563Y-21920650D01*
X8172563Y-21920650D02*
X8191610Y-21930174D01*
X8191610Y-21930174D02*
X8201134Y-21949222D01*
X8201134Y-21949222D02*
X8201134Y-22053984D01*
X8201134Y-21949222D02*
X8210658Y-21930174D01*
X8210658Y-21930174D02*
X8229705Y-21920650D01*
X8229705Y-21920650D02*
X8258277Y-21920650D01*
X8258277Y-21920650D02*
X8277324Y-21930174D01*
X8277324Y-21930174D02*
X8286848Y-21949222D01*
X8286848Y-21949222D02*
X8286848Y-22053984D01*
X8382086Y-22053984D02*
X8382086Y-21920650D01*
X8382086Y-21939698D02*
X8391610Y-21930174D01*
X8391610Y-21930174D02*
X8410658Y-21920650D01*
X8410658Y-21920650D02*
X8439229Y-21920650D01*
X8439229Y-21920650D02*
X8458277Y-21930174D01*
X8458277Y-21930174D02*
X8467801Y-21949222D01*
X8467801Y-21949222D02*
X8467801Y-22053984D01*
X8467801Y-21949222D02*
X8477325Y-21930174D01*
X8477325Y-21930174D02*
X8496372Y-21920650D01*
X8496372Y-21920650D02*
X8524944Y-21920650D01*
X8524944Y-21920650D02*
X8543991Y-21930174D01*
X8543991Y-21930174D02*
X8553515Y-21949222D01*
X8553515Y-21949222D02*
X8553515Y-22053984D01*
X8943991Y-21844460D02*
X8772563Y-22101603D01*
X9201134Y-21853984D02*
X9220182Y-21853984D01*
X9220182Y-21853984D02*
X9239229Y-21863508D01*
X9239229Y-21863508D02*
X9248753Y-21873031D01*
X9248753Y-21873031D02*
X9258277Y-21892079D01*
X9258277Y-21892079D02*
X9267801Y-21930174D01*
X9267801Y-21930174D02*
X9267801Y-21977793D01*
X9267801Y-21977793D02*
X9258277Y-22015889D01*
X9258277Y-22015889D02*
X9248753Y-22034936D01*
X9248753Y-22034936D02*
X9239229Y-22044460D01*
X9239229Y-22044460D02*
X9220182Y-22053984D01*
X9220182Y-22053984D02*
X9201134Y-22053984D01*
X9201134Y-22053984D02*
X9182087Y-22044460D01*
X9182087Y-22044460D02*
X9172563Y-22034936D01*
X9172563Y-22034936D02*
X9163039Y-22015889D01*
X9163039Y-22015889D02*
X9153515Y-21977793D01*
X9153515Y-21977793D02*
X9153515Y-21930174D01*
X9153515Y-21930174D02*
X9163039Y-21892079D01*
X9163039Y-21892079D02*
X9172563Y-21873031D01*
X9172563Y-21873031D02*
X9182087Y-21863508D01*
X9182087Y-21863508D02*
X9201134Y-21853984D01*
X9353515Y-22034936D02*
X9363039Y-22044460D01*
X9363039Y-22044460D02*
X9353515Y-22053984D01*
X9353515Y-22053984D02*
X9343991Y-22044460D01*
X9343991Y-22044460D02*
X9353515Y-22034936D01*
X9353515Y-22034936D02*
X9353515Y-22053984D01*
X9486848Y-21853984D02*
X9505896Y-21853984D01*
X9505896Y-21853984D02*
X9524944Y-21863508D01*
X9524944Y-21863508D02*
X9534468Y-21873031D01*
X9534468Y-21873031D02*
X9543991Y-21892079D01*
X9543991Y-21892079D02*
X9553515Y-21930174D01*
X9553515Y-21930174D02*
X9553515Y-21977793D01*
X9553515Y-21977793D02*
X9543991Y-22015889D01*
X9543991Y-22015889D02*
X9534468Y-22034936D01*
X9534468Y-22034936D02*
X9524944Y-22044460D01*
X9524944Y-22044460D02*
X9505896Y-22053984D01*
X9505896Y-22053984D02*
X9486848Y-22053984D01*
X9486848Y-22053984D02*
X9467801Y-22044460D01*
X9467801Y-22044460D02*
X9458277Y-22034936D01*
X9458277Y-22034936D02*
X9448753Y-22015889D01*
X9448753Y-22015889D02*
X9439229Y-21977793D01*
X9439229Y-21977793D02*
X9439229Y-21930174D01*
X9439229Y-21930174D02*
X9448753Y-21892079D01*
X9448753Y-21892079D02*
X9458277Y-21873031D01*
X9458277Y-21873031D02*
X9467801Y-21863508D01*
X9467801Y-21863508D02*
X9486848Y-21853984D01*
X9734468Y-21853984D02*
X9639229Y-21853984D01*
X9639229Y-21853984D02*
X9629706Y-21949222D01*
X9629706Y-21949222D02*
X9639229Y-21939698D01*
X9639229Y-21939698D02*
X9658277Y-21930174D01*
X9658277Y-21930174D02*
X9705896Y-21930174D01*
X9705896Y-21930174D02*
X9724944Y-21939698D01*
X9724944Y-21939698D02*
X9734468Y-21949222D01*
X9734468Y-21949222D02*
X9743991Y-21968270D01*
X9743991Y-21968270D02*
X9743991Y-22015889D01*
X9743991Y-22015889D02*
X9734468Y-22034936D01*
X9734468Y-22034936D02*
X9724944Y-22044460D01*
X9724944Y-22044460D02*
X9705896Y-22053984D01*
X9705896Y-22053984D02*
X9658277Y-22053984D01*
X9658277Y-22053984D02*
X9639229Y-22044460D01*
X9639229Y-22044460D02*
X9629706Y-22034936D01*
X9839229Y-22053984D02*
X9877325Y-22053984D01*
X9877325Y-22053984D02*
X9896372Y-22044460D01*
X9896372Y-22044460D02*
X9905896Y-22034936D01*
X9905896Y-22034936D02*
X9924944Y-22006365D01*
X9924944Y-22006365D02*
X9934468Y-21968270D01*
X9934468Y-21968270D02*
X9934468Y-21892079D01*
X9934468Y-21892079D02*
X9924944Y-21873031D01*
X9924944Y-21873031D02*
X9915420Y-21863508D01*
X9915420Y-21863508D02*
X9896372Y-21853984D01*
X9896372Y-21853984D02*
X9858277Y-21853984D01*
X9858277Y-21853984D02*
X9839229Y-21863508D01*
X9839229Y-21863508D02*
X9829706Y-21873031D01*
X9829706Y-21873031D02*
X9820182Y-21892079D01*
X9820182Y-21892079D02*
X9820182Y-21939698D01*
X9820182Y-21939698D02*
X9829706Y-21958746D01*
X9829706Y-21958746D02*
X9839229Y-21968270D01*
X9839229Y-21968270D02*
X9858277Y-21977793D01*
X9858277Y-21977793D02*
X9896372Y-21977793D01*
X9896372Y-21977793D02*
X9915420Y-21968270D01*
X9915420Y-21968270D02*
X9924944Y-21958746D01*
X9924944Y-21958746D02*
X9934468Y-21939698D01*
X10124944Y-22053984D02*
X10010658Y-22053984D01*
X10067801Y-22053984D02*
X10067801Y-21853984D01*
X10067801Y-21853984D02*
X10048753Y-21882555D01*
X10048753Y-21882555D02*
X10029706Y-21901603D01*
X10029706Y-21901603D02*
X10010658Y-21911127D01*
X10201134Y-21853984D02*
X10201134Y-21892079D01*
X10277325Y-21853984D02*
X10277325Y-21892079D01*
X10572563Y-22130174D02*
X10563039Y-22120650D01*
X10563039Y-22120650D02*
X10543991Y-22092079D01*
X10543991Y-22092079D02*
X10534468Y-22073031D01*
X10534468Y-22073031D02*
X10524944Y-22044460D01*
X10524944Y-22044460D02*
X10515420Y-21996841D01*
X10515420Y-21996841D02*
X10515420Y-21958746D01*
X10515420Y-21958746D02*
X10524944Y-21911127D01*
X10524944Y-21911127D02*
X10534468Y-21882555D01*
X10534468Y-21882555D02*
X10543991Y-21863508D01*
X10543991Y-21863508D02*
X10563039Y-21834936D01*
X10563039Y-21834936D02*
X10572563Y-21825412D01*
X10686849Y-21853984D02*
X10705896Y-21853984D01*
X10705896Y-21853984D02*
X10724944Y-21863508D01*
X10724944Y-21863508D02*
X10734468Y-21873031D01*
X10734468Y-21873031D02*
X10743991Y-21892079D01*
X10743991Y-21892079D02*
X10753515Y-21930174D01*
X10753515Y-21930174D02*
X10753515Y-21977793D01*
X10753515Y-21977793D02*
X10743991Y-22015889D01*
X10743991Y-22015889D02*
X10734468Y-22034936D01*
X10734468Y-22034936D02*
X10724944Y-22044460D01*
X10724944Y-22044460D02*
X10705896Y-22053984D01*
X10705896Y-22053984D02*
X10686849Y-22053984D01*
X10686849Y-22053984D02*
X10667801Y-22044460D01*
X10667801Y-22044460D02*
X10658277Y-22034936D01*
X10658277Y-22034936D02*
X10648753Y-22015889D01*
X10648753Y-22015889D02*
X10639230Y-21977793D01*
X10639230Y-21977793D02*
X10639230Y-21930174D01*
X10639230Y-21930174D02*
X10648753Y-21892079D01*
X10648753Y-21892079D02*
X10658277Y-21873031D01*
X10658277Y-21873031D02*
X10667801Y-21863508D01*
X10667801Y-21863508D02*
X10686849Y-21853984D01*
X10991611Y-22053984D02*
X10991611Y-21853984D01*
X11077325Y-22053984D02*
X11077325Y-21949222D01*
X11077325Y-21949222D02*
X11067801Y-21930174D01*
X11067801Y-21930174D02*
X11048753Y-21920650D01*
X11048753Y-21920650D02*
X11020182Y-21920650D01*
X11020182Y-21920650D02*
X11001134Y-21930174D01*
X11001134Y-21930174D02*
X10991611Y-21939698D01*
X11201134Y-22053984D02*
X11182087Y-22044460D01*
X11182087Y-22044460D02*
X11172563Y-22034936D01*
X11172563Y-22034936D02*
X11163039Y-22015889D01*
X11163039Y-22015889D02*
X11163039Y-21958746D01*
X11163039Y-21958746D02*
X11172563Y-21939698D01*
X11172563Y-21939698D02*
X11182087Y-21930174D01*
X11182087Y-21930174D02*
X11201134Y-21920650D01*
X11201134Y-21920650D02*
X11229706Y-21920650D01*
X11229706Y-21920650D02*
X11248753Y-21930174D01*
X11248753Y-21930174D02*
X11258277Y-21939698D01*
X11258277Y-21939698D02*
X11267801Y-21958746D01*
X11267801Y-21958746D02*
X11267801Y-22015889D01*
X11267801Y-22015889D02*
X11258277Y-22034936D01*
X11258277Y-22034936D02*
X11248753Y-22044460D01*
X11248753Y-22044460D02*
X11229706Y-22053984D01*
X11229706Y-22053984D02*
X11201134Y-22053984D01*
X11382087Y-22053984D02*
X11363039Y-22044460D01*
X11363039Y-22044460D02*
X11353515Y-22025412D01*
X11353515Y-22025412D02*
X11353515Y-21853984D01*
X11534468Y-22044460D02*
X11515420Y-22053984D01*
X11515420Y-22053984D02*
X11477325Y-22053984D01*
X11477325Y-22053984D02*
X11458277Y-22044460D01*
X11458277Y-22044460D02*
X11448753Y-22025412D01*
X11448753Y-22025412D02*
X11448753Y-21949222D01*
X11448753Y-21949222D02*
X11458277Y-21930174D01*
X11458277Y-21930174D02*
X11477325Y-21920650D01*
X11477325Y-21920650D02*
X11515420Y-21920650D01*
X11515420Y-21920650D02*
X11534468Y-21930174D01*
X11534468Y-21930174D02*
X11543991Y-21949222D01*
X11543991Y-21949222D02*
X11543991Y-21968270D01*
X11543991Y-21968270D02*
X11448753Y-21987317D01*
X11620182Y-22044460D02*
X11639230Y-22053984D01*
X11639230Y-22053984D02*
X11677325Y-22053984D01*
X11677325Y-22053984D02*
X11696372Y-22044460D01*
X11696372Y-22044460D02*
X11705896Y-22025412D01*
X11705896Y-22025412D02*
X11705896Y-22015889D01*
X11705896Y-22015889D02*
X11696372Y-21996841D01*
X11696372Y-21996841D02*
X11677325Y-21987317D01*
X11677325Y-21987317D02*
X11648753Y-21987317D01*
X11648753Y-21987317D02*
X11629706Y-21977793D01*
X11629706Y-21977793D02*
X11620182Y-21958746D01*
X11620182Y-21958746D02*
X11620182Y-21949222D01*
X11620182Y-21949222D02*
X11629706Y-21930174D01*
X11629706Y-21930174D02*
X11648753Y-21920650D01*
X11648753Y-21920650D02*
X11677325Y-21920650D01*
X11677325Y-21920650D02*
X11696372Y-21930174D01*
X11943992Y-21977793D02*
X12096373Y-21977793D01*
X12020182Y-22053984D02*
X12020182Y-21901603D01*
X12334468Y-21873031D02*
X12343992Y-21863508D01*
X12343992Y-21863508D02*
X12363039Y-21853984D01*
X12363039Y-21853984D02*
X12410658Y-21853984D01*
X12410658Y-21853984D02*
X12429706Y-21863508D01*
X12429706Y-21863508D02*
X12439230Y-21873031D01*
X12439230Y-21873031D02*
X12448753Y-21892079D01*
X12448753Y-21892079D02*
X12448753Y-21911127D01*
X12448753Y-21911127D02*
X12439230Y-21939698D01*
X12439230Y-21939698D02*
X12324944Y-22053984D01*
X12324944Y-22053984D02*
X12448753Y-22053984D01*
X12677325Y-22044460D02*
X12696373Y-22053984D01*
X12696373Y-22053984D02*
X12734468Y-22053984D01*
X12734468Y-22053984D02*
X12753515Y-22044460D01*
X12753515Y-22044460D02*
X12763039Y-22025412D01*
X12763039Y-22025412D02*
X12763039Y-22015889D01*
X12763039Y-22015889D02*
X12753515Y-21996841D01*
X12753515Y-21996841D02*
X12734468Y-21987317D01*
X12734468Y-21987317D02*
X12705896Y-21987317D01*
X12705896Y-21987317D02*
X12686849Y-21977793D01*
X12686849Y-21977793D02*
X12677325Y-21958746D01*
X12677325Y-21958746D02*
X12677325Y-21949222D01*
X12677325Y-21949222D02*
X12686849Y-21930174D01*
X12686849Y-21930174D02*
X12705896Y-21920650D01*
X12705896Y-21920650D02*
X12734468Y-21920650D01*
X12734468Y-21920650D02*
X12753515Y-21930174D01*
X12877325Y-22053984D02*
X12858277Y-22044460D01*
X12858277Y-22044460D02*
X12848754Y-22025412D01*
X12848754Y-22025412D02*
X12848754Y-21853984D01*
X12982087Y-22053984D02*
X12963039Y-22044460D01*
X12963039Y-22044460D02*
X12953515Y-22034936D01*
X12953515Y-22034936D02*
X12943992Y-22015889D01*
X12943992Y-22015889D02*
X12943992Y-21958746D01*
X12943992Y-21958746D02*
X12953515Y-21939698D01*
X12953515Y-21939698D02*
X12963039Y-21930174D01*
X12963039Y-21930174D02*
X12982087Y-21920650D01*
X12982087Y-21920650D02*
X13010658Y-21920650D01*
X13010658Y-21920650D02*
X13029706Y-21930174D01*
X13029706Y-21930174D02*
X13039230Y-21939698D01*
X13039230Y-21939698D02*
X13048754Y-21958746D01*
X13048754Y-21958746D02*
X13048754Y-22015889D01*
X13048754Y-22015889D02*
X13039230Y-22034936D01*
X13039230Y-22034936D02*
X13029706Y-22044460D01*
X13029706Y-22044460D02*
X13010658Y-22053984D01*
X13010658Y-22053984D02*
X12982087Y-22053984D01*
X13105896Y-21920650D02*
X13182087Y-21920650D01*
X13134468Y-21853984D02*
X13134468Y-22025412D01*
X13134468Y-22025412D02*
X13143992Y-22044460D01*
X13143992Y-22044460D02*
X13163039Y-22053984D01*
X13163039Y-22053984D02*
X13182087Y-22053984D01*
X13239230Y-22044460D02*
X13258277Y-22053984D01*
X13258277Y-22053984D02*
X13296373Y-22053984D01*
X13296373Y-22053984D02*
X13315420Y-22044460D01*
X13315420Y-22044460D02*
X13324944Y-22025412D01*
X13324944Y-22025412D02*
X13324944Y-22015889D01*
X13324944Y-22015889D02*
X13315420Y-21996841D01*
X13315420Y-21996841D02*
X13296373Y-21987317D01*
X13296373Y-21987317D02*
X13267801Y-21987317D01*
X13267801Y-21987317D02*
X13248754Y-21977793D01*
X13248754Y-21977793D02*
X13239230Y-21958746D01*
X13239230Y-21958746D02*
X13239230Y-21949222D01*
X13239230Y-21949222D02*
X13248754Y-21930174D01*
X13248754Y-21930174D02*
X13267801Y-21920650D01*
X13267801Y-21920650D02*
X13296373Y-21920650D01*
X13296373Y-21920650D02*
X13315420Y-21930174D01*
X13391611Y-22130174D02*
X13401135Y-22120650D01*
X13401135Y-22120650D02*
X13420182Y-22092079D01*
X13420182Y-22092079D02*
X13429706Y-22073031D01*
X13429706Y-22073031D02*
X13439230Y-22044460D01*
X13439230Y-22044460D02*
X13448754Y-21996841D01*
X13448754Y-21996841D02*
X13448754Y-21958746D01*
X13448754Y-21958746D02*
X13439230Y-21911127D01*
X13439230Y-21911127D02*
X13429706Y-21882555D01*
X13429706Y-21882555D02*
X13420182Y-21863508D01*
X13420182Y-21863508D02*
X13401135Y-21834936D01*
X13401135Y-21834936D02*
X13391611Y-21825412D01*
M02*
