M48
; DRILL file {KiCad 8.0.1} date 2024-06-12T21:18:51+0200
; FORMAT={-:-/ absolute / inch / decimal}
; #@! TF.CreationDate,2024-06-12T21:18:51+02:00
; #@! TF.GenerationSoftware,Kicad,Pcbnew,8.0.1
; #@! TF.FileFunction,Plated,1,4,PTH
FMAT,2
INCH
; #@! TA.AperFunction,Plated,PTH,ViaDrill
T1C0.0118
; #@! TA.AperFunction,Plated,PTH,ComponentDrill
T2C0.0236
; #@! TA.AperFunction,Plated,PTH,ComponentDrill
T3C0.0315
; #@! TA.AperFunction,Plated,PTH,ComponentDrill
T4C0.0354
; #@! TA.AperFunction,Plated,PTH,ComponentDrill
T5C0.0394
; #@! TA.AperFunction,Plated,PTH,ComponentDrill
T6C0.0591
%
G90
G05
T1
X3.0699Y-3.3052
X3.0699Y-3.6201
X3.0699Y-4.565
X3.0699Y-5.195
X3.0699Y-5.8249
X3.0699Y-6.1398
X3.0699Y-6.7698
X3.0699Y-7.0847
X3.0699Y-7.3997
X3.0699Y-7.7146
X3.3848Y-3.3052
X3.3848Y-4.565
X3.3848Y-5.195
X3.3848Y-6.1398
X3.3848Y-6.7698
X3.3848Y-7.3997
X3.3848Y-7.7146
X3.6259Y-6.224
X3.6359Y-6.964
X3.6459Y-3.964
X3.6459Y-4.714
X3.6459Y-5.464
X3.6998Y-3.6201
X3.6998Y-7.0847
X3.6998Y-7.3997
X3.6998Y-7.7146
X4.0148Y-4.565
X4.0148Y-5.195
X4.0148Y-5.5099
X4.0148Y-6.1398
X4.0148Y-6.7698
X4.0148Y-7.0847
X4.0148Y-7.3997
X4.0148Y-7.7146
X4.2859Y-3.964
X4.2859Y-6.224
X4.2959Y-4.714
X4.2959Y-5.464
X4.2959Y-6.964
X4.3009Y-3.389
X4.3009Y-3.584
X4.3109Y-3.169
X4.3297Y-3.6201
X4.3297Y-4.565
X4.3297Y-5.195
X4.3297Y-6.1398
X4.3297Y-6.4548
X4.3297Y-6.7698
X4.3297Y-7.3997
X4.3297Y-7.7146
X4.6447Y-3.6201
X4.6447Y-4.565
X4.6447Y-5.195
X4.6447Y-5.5099
X4.6447Y-6.1398
X4.6447Y-6.7698
X4.6447Y-7.0847
X4.6447Y-7.3997
X4.6447Y-7.7146
X4.9596Y-3.6201
X4.9596Y-4.2501
X4.9596Y-4.565
X4.9596Y-5.195
X4.9596Y-5.8249
X4.9596Y-6.1398
X4.9596Y-6.4548
X4.9596Y-6.7698
X4.9596Y-7.3997
X4.9596Y-7.7146
X5.0359Y-3.964
X5.0359Y-4.714
X5.0359Y-5.464
X5.0359Y-6.224
X5.0359Y-6.964
X5.2309Y-3.614
X5.2746Y-4.565
X5.2746Y-5.195
X5.2746Y-5.8249
X5.2746Y-6.1398
X5.2746Y-6.7698
X5.2746Y-7.3997
X5.2746Y-7.7146
X5.5896Y-4.565
X5.5896Y-4.88
X5.5896Y-5.195
X5.5896Y-5.5099
X5.5896Y-6.1398
X5.5896Y-6.7698
X5.5896Y-7.0847
X5.5896Y-7.3997
X5.5896Y-7.7146
X5.7609Y-3.604
X5.7859Y-3.964
X5.7859Y-4.714
X5.7859Y-5.464
X5.7859Y-6.224
X5.7859Y-6.964
X5.9045Y-4.2501
X5.9045Y-4.565
X5.9045Y-5.195
X5.9045Y-5.8249
X5.9045Y-6.1398
X5.9045Y-6.4548
X5.9045Y-6.7698
X5.9045Y-7.3997
X5.9045Y-7.7146
X6.2195Y-4.565
X6.2195Y-5.195
X6.2195Y-5.5099
X6.2195Y-5.8249
X6.2195Y-6.1398
X6.2195Y-6.7698
X6.2195Y-7.0847
X6.2195Y-7.3997
X6.2195Y-7.7146
X6.2809Y-3.564
X6.5259Y-5.464
X6.5344Y-3.6201
X6.5344Y-4.565
X6.5344Y-5.195
X6.5344Y-6.1398
X6.5344Y-6.4548
X6.5344Y-6.7698
X6.5344Y-7.3997
X6.5344Y-7.7146
X6.5359Y-3.964
X6.5359Y-4.714
X6.5359Y-6.224
X6.5359Y-6.964
X6.8494Y-4.565
X6.8494Y-5.195
X6.8494Y-6.1398
X6.8494Y-6.7698
X6.8494Y-7.0847
X6.8494Y-7.3997
X6.8494Y-7.7146
X6.9359Y-3.564
X7.1644Y-4.565
X7.1644Y-5.195
X7.1644Y-6.1398
X7.1644Y-6.7698
X7.1644Y-7.3997
X7.1644Y-7.7146
X7.2759Y-6.224
X7.2859Y-3.964
X7.2859Y-4.714
X7.2859Y-5.464
X7.2859Y-6.964
X7.3809Y-3.524
X7.4793Y-7.0847
X7.4793Y-7.3997
X7.4793Y-7.7146
X7.7943Y-4.565
X7.7943Y-4.88
X7.7943Y-5.195
X7.7943Y-5.5099
X7.7943Y-6.1398
X7.7943Y-6.7698
X7.7943Y-7.0847
X7.7943Y-7.3997
X7.7943Y-7.7146
X8.0259Y-3.964
X8.0359Y-4.714
X8.0359Y-5.464
X8.0359Y-6.224
X8.0359Y-6.964
X8.1093Y-3.6201
X8.1093Y-4.2501
X8.1093Y-4.565
X8.1093Y-5.195
X8.1093Y-5.8249
X8.1093Y-6.1398
X8.1093Y-6.4548
X8.1093Y-6.7698
X8.1093Y-7.3997
X8.1093Y-7.7146
X8.3009Y-3.249
X8.4242Y-4.565
X8.4242Y-5.195
X8.4242Y-5.5099
X8.4242Y-6.1398
X8.4242Y-6.7698
X8.4242Y-7.0847
X8.4242Y-7.3997
X8.4242Y-7.7146
X8.4859Y-3.569
X8.7392Y-3.6201
X8.7392Y-4.565
X8.7392Y-5.195
X8.7392Y-6.1398
X8.7392Y-6.4548
X8.7392Y-6.7698
X8.7392Y-7.3997
X8.7392Y-7.7146
X8.7759Y-4.714
X8.7859Y-5.464
X8.7859Y-6.224
X8.7859Y-6.964
X8.8059Y-3.964
X9.0541Y-4.565
X9.0541Y-5.195
X9.0541Y-5.8249
X9.0541Y-6.1398
X9.0541Y-6.7698
X9.0541Y-7.3997
X9.0541Y-7.7146
X9.3691Y-4.565
X9.3691Y-5.195
X9.3691Y-6.1398
X9.3691Y-6.7698
X9.3691Y-7.3997
X9.3691Y-7.7146
X9.5259Y-4.714
X9.5259Y-5.464
X9.5259Y-6.224
X9.5259Y-6.964
X9.5359Y-3.964
X9.6841Y-3.3052
X9.6841Y-7.0847
X9.6841Y-7.3997
X9.6841Y-7.7146
X9.9309Y-3.689
X9.999Y-3.3052
X9.999Y-4.565
X9.999Y-5.195
X9.999Y-5.5099
X9.999Y-6.1398
X9.999Y-6.7698
X9.999Y-7.0847
X9.999Y-7.3997
X9.999Y-7.7146
X10.0159Y-3.814
X10.2659Y-5.464
X10.2759Y-4.714
X10.2759Y-6.224
X10.2759Y-6.964
X10.2959Y-3.964
X10.314Y-4.565
X10.314Y-5.195
X10.314Y-6.1398
X10.314Y-6.4548
X10.314Y-6.7698
X10.314Y-7.3997
X10.314Y-7.7146
X10.6289Y-3.3052
X10.6289Y-4.565
X10.6289Y-6.1398
X10.6289Y-6.7698
X10.6289Y-7.0847
X10.6289Y-7.3997
X10.6289Y-7.7146
X10.8009Y-3.804
X10.9439Y-3.3052
X10.9439Y-4.2501
X10.9439Y-4.565
X10.9439Y-5.195
X10.9439Y-5.8249
X10.9439Y-6.1398
X10.9439Y-6.4548
X10.9439Y-6.7698
X10.9439Y-7.3997
X10.9439Y-7.7146
X11.0159Y-4.714
X11.0259Y-5.464
X11.0259Y-6.224
X11.0259Y-6.964
X11.0459Y-3.964
X11.1409Y-3.6887
X11.2589Y-3.3052
X11.2589Y-4.565
X11.2589Y-5.195
X11.2589Y-5.8249
X11.2589Y-6.7698
X11.2589Y-7.3997
X11.2589Y-7.7146
X11.4109Y-3.609
X11.4409Y-3.639
X11.4709Y-3.669
X11.5359Y-3.509
X11.5455Y-3.7366
X11.5493Y-3.8114
X11.5738Y-3.3052
X11.5738Y-4.565
X11.5738Y-4.88
X11.5738Y-5.195
X11.5738Y-5.5099
X11.5738Y-6.1398
X11.5738Y-6.7698
X11.5738Y-7.0847
X11.5738Y-7.3997
X11.5738Y-7.7146
X11.5924Y-3.7955
X11.641Y-3.7829
X11.7559Y-3.509
X11.7659Y-5.464
X11.7659Y-6.964
X11.7759Y-4.714
X11.7759Y-6.224
X11.7859Y-3.964
X11.7863Y-3.6345
X11.7961Y-3.6645
X11.8045Y-3.7054
X11.8059Y-3.604
X11.8209Y-3.539
X11.8709Y-3.7087
X11.8888Y-3.3052
X11.8888Y-4.2501
X11.8888Y-4.565
X11.8888Y-5.195
X11.8888Y-5.8249
X11.8888Y-6.1398
X11.8888Y-6.4548
X11.8888Y-6.7698
X11.8888Y-7.3997
X11.8888Y-7.7146
X11.922Y-3.4245
X11.9259Y-3.704
X11.9756Y-3.7265
X12.0009Y-4.449
X12.002Y-3.2545
X12.0059Y-5.139
X12.0109Y-5.939
X12.0109Y-6.654
X12.0159Y-3.344
X12.0259Y-3.649
X12.0309Y-3.704
X12.0547Y-3.894
X12.0559Y-4.624
X12.0953Y-3.7569
X12.0953Y-3.7884
X12.1009Y-3.604
X12.1009Y-3.994
X12.1059Y-4.094
X12.1109Y-3.419
X12.1159Y-3.5325
X12.1189Y-3.499
X12.1209Y-3.579
X12.1359Y-3.394
X12.1559Y-3.219
X12.1703Y-3.5846
X12.1703Y-3.5096
X12.174Y-3.3859
X12.1859Y-3.804
X12.2037Y-4.565
X12.2037Y-5.195
X12.2037Y-5.5099
X12.2037Y-5.8249
X12.2037Y-6.1398
X12.2037Y-7.0847
X12.2037Y-7.3997
X12.2037Y-7.7146
X12.2109Y-3.254
X12.2256Y-3.4325
X12.2453Y-3.464
X12.2609Y-3.104
X12.2709Y-3.484
X12.2709Y-3.894
X12.2965Y-3.394
X12.3109Y-3.999
X12.3309Y-3.234
X12.4159Y-3.919
X12.4209Y-3.189
X12.4309Y-3.374
X12.4359Y-3.4378
X12.4509Y-3.584
X12.4709Y-3.489
X12.482Y-3.7145
X12.4959Y-3.284
X12.5009Y-3.364
X12.5159Y-3.964
X12.5159Y-4.714
X12.5159Y-5.464
X12.5159Y-6.964
X12.5187Y-3.6201
X12.5187Y-4.565
X12.5187Y-5.195
X12.5187Y-6.1398
X12.5187Y-6.4548
X12.5187Y-6.7698
X12.5187Y-7.3997
X12.5187Y-7.7146
X12.5259Y-6.224
X12.5459Y-3.709
X12.5559Y-3.544
X12.5672Y-3.3428
X12.6409Y-3.854
X12.6509Y-3.759
X12.8337Y-4.565
X12.8337Y-5.195
X12.8337Y-5.5099
X12.8337Y-6.1398
X12.8337Y-6.7698
X12.8337Y-7.0847
X12.8337Y-7.3997
X12.8337Y-7.7146
X13.1249Y-3.563
X13.1486Y-3.3052
X13.1486Y-4.565
X13.1486Y-5.195
X13.1486Y-6.1398
X13.1486Y-6.7698
X13.1486Y-7.3997
X13.1486Y-7.7146
X13.2178Y-3.5559
X13.2659Y-3.964
X13.2659Y-4.714
X13.2659Y-5.464
X13.2659Y-6.224
X13.2659Y-6.964
X13.4636Y-3.3052
X13.4636Y-3.6201
X13.4636Y-7.0847
X13.4636Y-7.3997
X13.4636Y-7.7146
X13.6509Y-3.379
X13.6614Y-3.8386
X13.7008Y-3.878
X13.7205Y-3.4449
X13.7785Y-4.565
X13.7785Y-4.88
X13.7785Y-5.195
X13.7785Y-5.5099
X13.7785Y-6.1398
X13.7785Y-6.7698
X13.7785Y-7.0847
X13.7785Y-7.3997
X13.7785Y-7.7146
X13.7795Y-3.4843
X13.8583Y-3.878
X13.87Y-3.48
X13.87Y-3.64
X13.8976Y-3.8386
X13.95Y-3.56
X14.0159Y-6.224
X14.0159Y-6.964
X14.0259Y-3.964
X14.0259Y-4.714
X14.0259Y-5.464
X14.0935Y-3.3052
X14.0935Y-3.6201
X14.0935Y-3.9351
X14.0935Y-4.2501
X14.0935Y-4.565
X14.0935Y-5.195
X14.0935Y-5.8249
X14.0935Y-6.1398
X14.0935Y-6.4548
X14.0935Y-6.7698
X14.0935Y-7.3997
X14.0935Y-7.7146
T3
X11.742Y-3.3788
X11.742Y-3.5709
T4
X13.2357Y-3.244
X13.3357Y-3.244
T5
X3.4805Y-3.3806
X3.4805Y-3.479
X3.4805Y-3.5774
X4.0513Y-3.3806
X4.0513Y-3.5774
X9.9363Y-3.5363
X10.0363Y-3.5363
X10.1363Y-3.5363
X10.2363Y-3.5363
X10.4665Y-3.5363
X10.5665Y-3.5363
X10.6665Y-3.5363
X10.8965Y-3.5363
X10.9965Y-3.5363
X11.0965Y-3.5363
T2
G00X13.5941Y-3.1457
M15
G01X13.5941Y-3.1142
M16
G05
G00X13.5941Y-3.3161
M15
G01X13.5941Y-3.2728
M16
G05
G00X13.9343Y-3.1457
M15
G01X13.9343Y-3.1142
M16
G05
G00X13.9343Y-3.3161
M15
G01X13.9343Y-3.2728
M16
G05
T6
G00X3.7502Y-3.2585
M15
G01X3.8013Y-3.2585
M16
G05
G00X3.7502Y-3.6995
M15
G01X3.8013Y-3.6995
M16
G05
M30
